<?xml version="1.0" encoding="UTF-8" standalone="no"?><!DOCTYPE svg PUBLIC "-//W3C//DTD SVG 1.1//EN" "http://www.w3.org/Graphics/SVG/1.1/DTD/svg11.dtd"><svg width="100%" height="100%" viewBox="0 0 717 273" version="1.1" xmlns="http://www.w3.org/2000/svg" xmlns:xlink="http://www.w3.org/1999/xlink" xml:space="preserve" xmlns:serif="http://www.serif.com/" style="fill-rule:evenodd;clip-rule:evenodd;stroke-linecap:round;stroke-linejoin:round;stroke-miterlimit:10;"><g><circle cx="178.5" cy="141.5" r="40" style="fill:none;"/><path d="M183.83,100.21c6.85,0.56 15.43,6.11 20.83,11.88c5.4,5.77 10.01,15.01 11.57,22.74c1.55,7.72 0.93,16.62 -2.25,23.62c-3.17,6.99 -10.16,14.29 -16.8,18.34c-6.63,4.06 -15.61,6.84 -23.02,6.01c-7.41,-0.82 -15.85,-5.52 -21.43,-10.97c-5.58,-5.45 -10.5,-13.75 -12.06,-21.72c-1.56,-7.97 -0.51,-18.87 2.7,-26.07c3.22,-7.2 10.09,-13.15 16.58,-17.13c6.49,-3.98 18.04,-5.83 22.34,-6.74c4.3,-0.9 2.51,0.81 3.49,1.31c0.97,0.51 2.32,0.89 2.37,1.73m-12.39,-2.68c7.11,-1.33 17.31,1.55 23.44,5.83c6.13,4.28 10.4,12.33 13.35,19.86c2.95,7.53 5.75,17.79 4.36,25.32c-1.39,7.52 -7,14.84 -12.7,19.85c-5.71,5 -14.13,9.29 -21.53,10.18c-7.4,0.89 -16.34,-0.81 -22.85,-4.84c-6.52,-4.03 -13.23,-12.1 -16.24,-19.34c-3.02,-7.24 -3.23,-16.43 -1.87,-24.08c1.35,-7.65 4.93,-16.23 9.98,-21.82c5.05,-5.6 16.48,-10.11 20.31,-11.76c3.84,-1.65 1.98,1.46 2.69,1.85c0.72,0.4 1.59,-0.12 1.62,0.5" style="fill:none;fill-rule:nonzero;stroke:#000;stroke-width:2px;"/><g><g><path d="M171.448,153.188c-0.432,-0.24 -0.666,-0.504 -0.702,-0.792c-0.036,-0.288 0.126,-0.792 0.486,-1.512c0.36,-0.72 0.924,-1.836 1.692,-3.348c0.576,-1.08 1.014,-1.926 1.314,-2.538c0.3,-0.612 0.504,-1.05 0.612,-1.314c0.108,-0.264 0.162,-0.432 0.162,-0.504c-0.048,-0.216 -0.024,-0.39 0.072,-0.522c0.096,-0.132 0.252,-0.246 0.468,-0.342c0.12,-0.12 0.318,-0.336 0.594,-0.648c0.276,-0.312 0.534,-0.684 0.774,-1.116c0.216,-0.504 0.468,-1.02 0.756,-1.548c0.288,-0.528 0.672,-1.194 1.152,-1.998c0.48,-0.804 1.104,-1.854 1.872,-3.15c0.48,-0.84 1.008,-1.698 1.584,-2.574c0.576,-0.876 1.188,-1.746 1.836,-2.61c0.264,-0.336 0.504,-0.606 0.72,-0.81c0.216,-0.204 0.432,-0.294 0.648,-0.27c0.288,0 0.618,0.096 0.99,0.288c0.372,0.192 0.714,0.444 1.026,0.756c0.312,0.312 0.54,0.648 0.684,1.008c0.12,0.192 0.168,0.6 0.144,1.224c-0.024,0.624 -0.072,1.38 -0.144,2.268c-0.072,0.888 -0.156,1.836 -0.252,2.844c-0.072,0.984 -0.18,2.148 -0.324,3.492c-0.144,1.344 -0.282,2.748 -0.414,4.212c-0.132,1.464 -0.234,2.874 -0.306,4.23c-0.072,1.356 -0.072,2.538 0,3.546c0.024,0.216 0.024,0.42 0,0.612c-0.024,0.192 -0.036,0.348 -0.036,0.468c-0.144,0.144 -0.378,0.21 -0.702,0.198c-0.324,-0.012 -0.636,-0.09 -0.936,-0.234c-0.3,-0.144 -0.474,-0.324 -0.522,-0.54c-0.072,-0.072 -0.114,-0.174 -0.126,-0.306c-0.012,-0.132 -0.006,-0.414 0.018,-0.846c0.024,-0.432 0.048,-1.116 0.072,-2.052l0.18,-5.832l-0.468,0.036c-0.216,0 -0.624,0.024 -1.224,0.072c-0.6,0.048 -1.248,0.114 -1.944,0.198c-0.696,0.084 -1.338,0.168 -1.926,0.252c-0.588,0.084 -0.99,0.162 -1.206,0.234c-0.216,0 -0.474,0.144 -0.774,0.432c-0.3,0.288 -0.582,0.66 -0.846,1.116c-0.096,0.336 -0.27,0.69 -0.522,1.062c-0.252,0.372 -0.378,0.618 -0.378,0.738c-0.168,0.12 -0.306,0.264 -0.414,0.432c-0.108,0.168 -0.162,0.252 -0.162,0.252c-0,0.144 -0.114,0.498 -0.342,1.062c-0.228,0.564 -0.51,1.188 -0.846,1.872c-0.336,0.684 -0.672,1.278 -1.008,1.782l-0.756,1.152l-0.576,-0.432Zm7.452,-11.592c-0,0 0.126,-0.024 0.378,-0.072c0.252,-0.048 0.552,-0.102 0.9,-0.162c0.348,-0.06 0.666,-0.09 0.954,-0.09c1.008,-0.24 1.74,-0.402 2.196,-0.486c0.456,-0.084 0.774,-0.126 0.954,-0.126c0.18,0 0.342,0.036 0.486,0.108c0.096,0.12 0.186,0.192 0.27,0.216c0.084,0.024 0.126,0.036 0.126,0.036c0.024,-0.048 0.06,-0.324 0.108,-0.828c0.048,-0.504 0.114,-1.128 0.198,-1.872c0.084,-0.744 0.168,-1.518 0.252,-2.322c0.084,-0.804 0.15,-1.548 0.198,-2.232c0.048,-0.684 0.084,-1.206 0.108,-1.566c0.024,-0.456 0.048,-0.87 0.072,-1.242c0.024,-0.372 0.036,-0.558 0.036,-0.558c-0.144,0 -0.45,0.264 -0.918,0.792c-0.468,0.528 -0.99,1.224 -1.566,2.088c-0.576,0.864 -1.116,1.788 -1.62,2.772c-0.24,0.456 -0.468,0.864 -0.684,1.224c-0.216,0.36 -0.384,0.54 -0.504,0.54c-0.048,0.048 -0.186,0.258 -0.414,0.63c-0.228,0.372 -0.474,0.792 -0.738,1.26c-0.264,0.468 -0.48,0.888 -0.648,1.26c-0.168,0.372 -0.216,0.582 -0.144,0.63Z" style="fill-rule:nonzero;"/></g></g><path d="M206.78,169.78l133.98,48.9" style="fill:none;fill-rule:nonzero;"/><path d="M346.4,220.73l-8.89,1.02l3.25,-3.07l-0.5,-4.45l6.14,6.5Z" style="fill:none;fill-rule:nonzero;"/><path d="M206.31,168.72c54.1,18.93 105.77,37.79 134.27,48.41m-132.85,-47.18c40.19,15.39 82.45,30.6 133.58,49.42" style="fill:none;fill-rule:nonzero;stroke:#c06;stroke-width:2px;"/><path d="M340.11,214.4m0,0m1.87,10.99c0.77,-1.54 1.76,-3.66 2.95,-4.54m-3.47,4.3c1.49,-2.03 3.43,-3.51 4.17,-4.77" style="fill:none;fill-rule:nonzero;stroke:#c06;stroke-width:1px;"/><path d="M345.68,219.92c-1.92,1.81 -5.31,1.1 -8.73,2.4m9.67,-1.7c-3.43,0.17 -7.26,0.58 -9.28,1.18m0.33,-0.04c1.17,-0.78 1.41,-1.52 3.19,-2.76m-3.13,2.76c0.84,-1.29 1.94,-2.12 2.83,-3.3m0.16,0.2c-0.03,-1.38 -0.16,-3.2 -0.83,-4.45m0.88,4.47c-0.16,-1.08 -0.06,-2.41 -0.66,-4.44m0.82,0.85c1.46,0.27 2.47,3.3 5.51,6.16m-6.21,-7.46c2.18,2.44 4.48,5.31 6.55,7.3" style="fill:none;fill-rule:nonzero;stroke:#c06;stroke-width:2px;"/><circle cx="388.5" cy="231.5" r="40" style="fill:none;"/><path d="M373.6,192.13c6.44,-3.09 17.58,-2.71 25.03,-0.57c7.45,2.14 15.04,7.25 19.69,13.42c4.66,6.17 7.61,15.48 8.23,23.59c0.62,8.11 -0.63,18.04 -4.49,25.07c-3.86,7.03 -11.79,14.2 -18.68,17.11c-6.89,2.91 -15.27,2.2 -22.67,0.34c-7.39,-1.86 -16.47,-5.49 -21.71,-11.48c-5.24,-5.98 -9.13,-16.42 -9.71,-24.42c-0.58,-8 2.47,-16.73 6.24,-23.56c3.76,-6.83 12.05,-14.01 16.34,-17.42c4.29,-3.4 6.86,-2.36 9.4,-3.03c2.53,-0.66 5.9,-1.51 5.81,-0.95m14.98,2.1c6.45,1.68 12.33,8.59 16.47,14.95c4.15,6.37 7.99,15.3 8.4,23.23c0.4,7.92 -1.57,17.43 -5.95,24.34c-4.38,6.91 -12.98,14.22 -20.36,17.11c-7.37,2.89 -16.73,2.78 -23.88,0.24c-7.15,-2.54 -14.39,-9.12 -19.03,-15.48c-4.64,-6.36 -8.71,-14.39 -8.81,-22.69c-0.1,-8.31 3.97,-20.21 8.21,-27.14c4.24,-6.93 10.42,-12.08 17.21,-14.44c6.79,-2.36 19.24,0.59 23.52,0.31c4.28,-0.29 1.65,-2.11 2.17,-2c0.53,0.11 1.18,1.67 0.96,2.65" style="fill:none;fill-rule:nonzero;stroke:#000;stroke-width:2px;"/><g><g><path d="M387.208,244.016c-0.36,-0.144 -0.726,-0.3 -1.098,-0.468c-0.372,-0.168 -0.72,-0.414 -1.044,-0.738c-0.324,-0.324 -0.606,-0.774 -0.846,-1.35c-0.24,-0.696 -0.402,-1.38 -0.486,-2.052c-0.084,-0.672 -0.114,-1.452 -0.09,-2.34c-0,-1.248 0.09,-2.334 0.27,-3.258c0.18,-0.924 0.462,-1.866 0.846,-2.826c0.048,-0.072 0.138,-0.282 0.27,-0.63c0.132,-0.348 0.288,-0.726 0.468,-1.134c0.18,-0.408 0.318,-0.72 0.414,-0.936c0.192,-0.408 0.486,-0.954 0.882,-1.638c0.396,-0.684 0.822,-1.35 1.278,-1.998c0.696,-1.032 1.272,-1.848 1.728,-2.448c0.456,-0.6 0.888,-1.104 1.296,-1.512c0.408,-0.408 0.87,-0.798 1.386,-1.17c0.516,-0.372 1.182,-0.834 1.998,-1.386c0.528,-0.384 1.11,-0.588 1.746,-0.612c0.636,-0.024 1.23,0.114 1.782,0.414c0.552,0.3 0.96,0.738 1.224,1.314c0.264,0.504 0.396,1.11 0.396,1.818c0,0.708 -0.108,1.452 -0.324,2.232c-0.216,0.78 -0.516,1.518 -0.9,2.214c-0.384,0.696 -0.828,1.272 -1.332,1.728c-0.312,0.288 -0.594,0.396 -0.846,0.324c-0.252,-0.072 -0.546,-0.264 -0.882,-0.576c-0.216,-0.408 -0.33,-0.648 -0.342,-0.72c-0.012,-0.072 0.03,-0.12 0.126,-0.144c0.144,-0.168 0.336,-0.456 0.576,-0.864c0.24,-0.408 0.48,-0.846 0.72,-1.314c0.24,-0.468 0.408,-0.846 0.504,-1.134c0.192,-1.008 0.324,-1.722 0.396,-2.142c0.072,-0.42 -0,-0.738 -0.216,-0.954c-0.096,-0.096 -0.234,-0.132 -0.414,-0.108c-0.18,0.024 -0.474,0.144 -0.882,0.36c-0.552,0.24 -1.272,0.774 -2.16,1.602c-0.888,0.828 -1.704,1.746 -2.448,2.754c-0.96,1.272 -1.764,2.4 -2.412,3.384c-0.648,0.984 -1.14,1.992 -1.476,3.024c-0.048,0.096 -0.126,0.276 -0.234,0.54c-0.108,0.264 -0.162,0.396 -0.162,0.396c0.024,0.096 -0.012,0.33 -0.108,0.702c-0.096,0.372 -0.204,0.69 -0.324,0.954c-0.264,1.104 -0.42,2.25 -0.468,3.438c-0.048,1.188 0.018,2.238 0.198,3.15c0.18,0.912 0.45,1.548 0.81,1.908c0.312,0.216 0.738,0.288 1.278,0.216c0.54,-0.072 1.158,-0.24 1.854,-0.504c0.696,-0.264 1.404,-0.552 2.124,-0.864c0.576,-0.24 1.104,-0.504 1.584,-0.792c0.48,-0.288 0.84,-0.54 1.08,-0.756c0.192,-0.144 0.438,-0.294 0.738,-0.45c0.3,-0.156 0.558,-0.234 0.774,-0.234c0.336,-0.12 0.528,-0.168 0.576,-0.144c0.048,0.024 0.072,0.132 0.072,0.324c-0,0.336 -0.186,0.708 -0.558,1.116c-0.372,0.408 -0.846,0.78 -1.422,1.116c-0.192,0.192 -0.444,0.396 -0.756,0.612c-0.312,0.216 -0.636,0.384 -0.972,0.504c-0.504,0.384 -1.128,0.756 -1.872,1.116c-0.744,0.36 -1.494,0.636 -2.25,0.828c-0.756,0.192 -1.446,0.228 -2.07,0.108Z" style="fill-rule:nonzero;"/></g></g><path d="M416.78,203.22l154.56,-87.66" style="fill:none;fill-rule:nonzero;"/><path d="M576.56,112.6l-4.99,7.43l-0.23,-4.47l-3.72,-2.49l8.94,-0.47Z" style="fill:none;fill-rule:nonzero;"/><path d="M415.67,204.49c36.94,-23.98 71.58,-44.56 156.35,-87.4m-155.41,85.93c61.04,-34.22 121.68,-69.76 155.63,-87.7" style="fill:none;fill-rule:nonzero;stroke:#f39;stroke-width:2px;"/><path d="M567.8,112.87m-0,0" style="fill:none;fill-rule:nonzero;stroke:#f39;stroke-width:1px;"/><path d="M577.28,112.72c-1.88,3.04 -4.13,5.42 -5.44,8.08m4.73,-8.1c-1.31,1.82 -2.37,3.21 -4.59,7.63m-0.31,0.1c-0.06,-1.7 0.15,-3.35 0.07,-4.8m-0.1,4.46c-0.09,-1.14 -0.29,-2.02 -0.44,-4.63m-0.03,0.32c-0.79,-0.73 -2.11,-1.88 -3.77,-2.74m3.81,2.69c-0.85,-0.89 -1.4,-1.23 -3.7,-2.56m0.24,0.7c2.29,-1.69 5.55,-0.75 8.51,-2.15m-8.47,1.07c2.36,0.1 4.42,0 8.78,-0.57" style="fill:none;fill-rule:nonzero;stroke:#f39;stroke-width:2px;"/><circle cx="328.5" cy="41.5" r="40" style="fill:none;"/><path d="M333.33,3.18c7.03,0.35 15.14,5.67 20.72,10.64c5.59,4.98 11.06,11.93 12.76,19.2c1.71,7.27 0.71,17.68 -2.52,24.44c-3.23,6.75 -10.25,12.56 -16.84,16.09c-6.58,3.54 -15.2,5.63 -22.65,5.12c-7.45,-0.51 -16.25,-3.34 -22.05,-8.18c-5.81,-4.85 -11.14,-13.67 -12.76,-20.87c-1.63,-7.2 0.02,-15.46 2.99,-22.33c2.98,-6.87 8.5,-14.86 14.85,-18.88c6.35,-4.03 18.69,-4.58 23.27,-5.25c4.57,-0.67 3.32,0.88 4.17,1.24c0.85,0.35 0.99,0.34 0.93,0.9m-18.89,-0.11c6.76,-2.17 16.78,-1.93 24.17,0.58c7.39,2.52 16.12,8.37 20.16,14.52c4.04,6.15 4.53,15.01 4.08,22.37c-0.46,7.37 -2.34,16.01 -6.81,21.84c-4.47,5.83 -12.79,10.87 -20,13.16c-7.21,2.28 -16.43,2.71 -23.27,0.56c-6.83,-2.15 -13.44,-7.45 -17.74,-13.44c-4.31,-6 -8.2,-14.95 -8.07,-22.53c0.12,-7.58 4.54,-16.92 8.83,-22.95c4.28,-6.04 13.76,-10.69 16.86,-13.25c3.11,-2.55 1.28,-2.01 1.75,-2.06c0.47,-0.04 0.88,0.96 1.06,1.79" style="fill:none;fill-rule:nonzero;stroke:#000;stroke-width:2px;"/><g><g><path d="M326.02,54.052c-1.032,-0.672 -1.728,-1.254 -2.088,-1.746c-0.36,-0.492 -0.216,-0.942 0.432,-1.35c0.144,-0.096 0.378,-0.018 0.702,0.234c0.324,0.252 0.594,0.486 0.81,0.702c0.48,0.432 1.074,0.702 1.782,0.81c0.708,0.108 1.506,0.042 2.394,-0.198c1.008,-0.312 1.89,-0.75 2.646,-1.314c0.756,-0.564 1.47,-1.254 2.142,-2.07c0.504,-0.648 0.852,-1.35 1.044,-2.106c0.192,-0.756 0.27,-1.458 0.234,-2.106c-0.036,-0.648 -0.174,-1.104 -0.414,-1.368c-0.6,-0.84 -1.434,-1.422 -2.502,-1.746c-1.068,-0.324 -2.322,-0.294 -3.762,0.09c-0.168,0.024 -0.42,0.072 -0.756,0.144c-0.336,0.072 -0.636,0.138 -0.9,0.198c-0.264,0.06 -0.408,0.09 -0.432,0.09c-0.168,0.048 -0.3,0.102 -0.396,0.162c-0.096,0.06 -0.21,0.24 -0.342,0.54c-0.132,0.3 -0.33,0.828 -0.594,1.584c-0.264,0.756 -0.66,1.866 -1.188,3.33c-0.504,1.464 -0.906,2.502 -1.206,3.114c-0.3,0.612 -0.564,0.888 -0.792,0.828c-0.228,-0.06 -0.51,-0.318 -0.846,-0.774c-0.192,-0.336 -0.312,-0.666 -0.36,-0.99c-0.048,-0.324 0.048,-0.702 0.288,-1.134c0.12,-0.216 0.216,-0.414 0.288,-0.594c0.072,-0.18 0.168,-0.498 0.288,-0.954c0.12,-0.36 0.354,-0.99 0.702,-1.89c0.348,-0.9 0.762,-1.956 1.242,-3.168c0.48,-1.212 0.984,-2.466 1.512,-3.762c0.528,-1.296 1.038,-2.52 1.53,-3.672c0.492,-1.152 0.906,-2.124 1.242,-2.916c0.336,-0.744 0.54,-1.284 0.612,-1.62c0.072,-0.336 0.048,-0.516 -0.072,-0.54c-0,-0.12 -0.036,-0.234 -0.108,-0.342c-0.072,-0.108 -0.096,-0.21 -0.072,-0.306c-0,-0.096 0.162,-0.228 0.486,-0.396c0.324,-0.168 0.684,-0.324 1.08,-0.468c0.396,-0.144 0.702,-0.192 0.918,-0.144c0.12,0 0.264,-0.006 0.432,-0.018c0.168,-0.012 0.252,-0.066 0.252,-0.162c0.072,0 0.3,-0.024 0.684,-0.072c0.384,-0.048 0.804,-0.048 1.26,0c1.608,0.144 2.856,0.606 3.744,1.386c0.888,0.78 1.32,1.842 1.296,3.186c-0.024,0.408 -0.234,0.96 -0.63,1.656c-0.396,0.696 -0.876,1.392 -1.44,2.088c-0.564,0.696 -1.11,1.284 -1.638,1.764c-0.312,0.264 -0.642,0.534 -0.99,0.81c-0.348,0.276 -0.648,0.504 -0.9,0.684c-0.252,0.18 -0.378,0.27 -0.378,0.27c-0,-0 0.096,0.036 0.288,0.108c0.192,0.072 0.396,0.144 0.612,0.216c1.104,0.408 2.016,0.924 2.736,1.548c0.72,0.624 1.212,1.488 1.476,2.592c0.096,0.36 0.102,0.804 0.018,1.332c-0.084,0.528 -0.198,1.05 -0.342,1.566c-0.144,0.516 -0.3,0.954 -0.468,1.314c-0.168,0.168 -0.3,0.342 -0.396,0.522c-0.096,0.18 -0.144,0.27 -0.144,0.27c-0,0.048 -0.096,0.234 -0.288,0.558c-0.192,0.324 -0.42,0.678 -0.684,1.062c-0.264,0.384 -0.516,0.72 -0.756,1.008c-0.24,0.192 -0.522,0.42 -0.846,0.684c-0.324,0.264 -0.684,0.516 -1.08,0.756c-0.396,0.24 -0.822,0.444 -1.278,0.612c-0.672,0.288 -1.398,0.486 -2.178,0.594c-0.78,0.108 -1.518,0.12 -2.214,0.036c-0.696,-0.084 -1.26,-0.258 -1.692,-0.522Zm1.764,-13.86c-0,-0 0.222,-0.042 0.666,-0.126c0.444,-0.084 0.93,-0.18 1.458,-0.288c0.528,-0.108 0.912,-0.21 1.152,-0.306c0.12,-0.072 0.294,-0.168 0.522,-0.288c0.228,-0.12 0.462,-0.3 0.702,-0.54c0.336,-0.312 0.762,-0.762 1.278,-1.35c0.516,-0.588 1.026,-1.212 1.53,-1.872c0.504,-0.66 0.888,-1.254 1.152,-1.782c0.552,-0.864 0.852,-1.506 0.9,-1.926c0.048,-0.42 -0.084,-0.786 -0.396,-1.098c-0.216,-0.264 -0.582,-0.438 -1.098,-0.522c-0.516,-0.084 -1.062,-0.108 -1.638,-0.072c-0.576,0.036 -1.068,0.114 -1.476,0.234c-0.312,0.096 -0.552,0.21 -0.72,0.342c-0.168,0.132 -0.252,0.33 -0.252,0.594c-0,0.216 -0.066,0.426 -0.198,0.63c-0.132,0.204 -0.258,0.366 -0.378,0.486c-0.024,0.168 -0.084,0.318 -0.18,0.45c-0.096,0.132 -0.144,0.198 -0.144,0.198c-0,0.096 -0.168,0.492 -0.504,1.188c-0.336,0.696 -0.672,1.5 -1.008,2.412c-0.432,1.032 -0.768,1.866 -1.008,2.502c-0.24,0.636 -0.36,1.014 -0.36,1.134Z" style="fill-rule:nonzero;"/></g></g><path d="M388.5,191.5l-42.06,-105.23" style="fill:none;fill-rule:nonzero;"/><path d="M344.22,80.7l6.68,5.95l-4.46,-0.38l-2.97,3.35l0.75,-8.92Z" style="fill:none;fill-rule:nonzero;"/><path d="M386.75,191.09c-11.99,-29.1 -21.42,-57.8 -38.78,-104.2m41.24,104.03c-11.33,-28.25 -22.99,-57.76 -43.52,-103.81" style="fill:none;fill-rule:nonzero;stroke:#000;stroke-width:2px;"/><path d="M344.48,80.4m0,0m4,7.29c0.47,-0.47 1.12,-0.56 1.99,-2.34m-1.79,2.49c0.48,-0.46 0.92,-1.28 1.85,-2.29" style="fill:none;fill-rule:nonzero;stroke:#000;stroke-width:1px;"/><path d="M343.56,81.33c3.06,0.36 5.1,3.44 7.71,5.05m-6.99,-5.32c1.25,0.7 2.58,2.15 6.22,5.15m0.79,0.87c-1.71,-0.26 -2.71,-0.53 -4.5,-1.18m4.08,0.63c-1.1,-0.12 -2.68,-0.07 -4.45,-0.29m0.19,-0.05c-1.57,1.2 -2.04,2.81 -3.06,3.46m3.05,-3.21c-1.1,0.68 -1.89,1.8 -2.96,3.23m-0.64,0.24c-0.02,-2.37 1.15,-5.45 1.02,-9.95m-0.93,9.92c0.65,-3.69 1.31,-7.54 0.95,-9.27" style="fill:none;fill-rule:nonzero;stroke:#000;stroke-width:2px;"/><path d="M206.78,113.22l85.97,-39.96" style="fill:none;fill-rule:nonzero;"/><path d="M298.19,70.73l-5.57,7l0.13,-4.47l-3.5,-2.79l8.94,0.26Z" style="fill:none;fill-rule:nonzero;"/><path d="M206.71,111.98c33.76,-14.1 69.52,-27.6 88,-40.56m-87.78,41.04c18.75,-8.12 39.61,-16.47 85.24,-39.82" style="fill:none;fill-rule:nonzero;stroke:#000;stroke-width:2px;"/><path d="M289.08,70.66m0,0" style="fill:none;fill-rule:nonzero;stroke:#000;stroke-width:1px;"/><path d="M297.7,71.61c-1.05,2.39 -3.88,3.63 -4.77,6.84m5.14,-7.44c-1.64,2.03 -3.76,4.62 -5.72,6.92m0.62,-0.38c-0.02,-1.16 -0.03,-2.57 -0.14,-4.09m-0.42,4.29c0.14,-1.48 0.12,-2.93 0.33,-4.33m0.24,-0.52c-1.28,-0.77 -3,-1.37 -3.54,-2.08m3.33,2.39c-1.3,-0.94 -2.11,-1.7 -3.5,-2.61m0.42,-0.78c1.86,0.7 5.68,1.16 7.99,1.44m-8.03,-0.59c1.83,-0.22 4.74,-0.34 8.58,-0.04" style="fill:none;fill-rule:nonzero;stroke:#000;stroke-width:2px;"/><circle cx="618.5" cy="111.5" r="40" style="fill:none;"/><path d="M631.86,74.51c6.68,1.76 13.61,8.47 17.69,14.68c4.07,6.21 6.64,15.06 6.76,22.6c0.13,7.55 -1.86,16.59 -6.01,22.68c-4.15,6.09 -11.46,11.41 -18.88,13.88c-7.41,2.46 -18.14,3.26 -25.61,0.89c-7.46,-2.37 -14.91,-8.84 -19.19,-15.09c-4.28,-6.25 -6.48,-14.87 -6.47,-22.41c0.01,-7.53 2.41,-16.54 6.53,-22.81c4.12,-6.28 11.26,-12.41 18.18,-14.83c6.92,-2.41 18.47,0.27 23.35,0.36c4.89,0.09 4.83,-0.33 5.98,0.18c1.15,0.52 1.41,2.13 0.93,2.9m-1.91,-1.69c7.11,1.77 13.61,6.09 17.82,12.21c4.21,6.11 7.84,16.7 7.44,24.48c-0.4,7.77 -5.04,15.98 -9.84,22.14c-4.79,6.16 -11.92,12.42 -18.92,14.82c-7.01,2.41 -16.15,1.88 -23.11,-0.41c-6.96,-2.28 -14.3,-7.18 -18.63,-13.29c-4.33,-6.1 -7.29,-15.48 -7.35,-23.33c-0.06,-7.86 2.94,-17.36 6.98,-23.82c4.04,-6.47 10.35,-12.31 17.27,-14.98c6.92,-2.67 19.77,-1.03 24.24,-1.03c4.47,0.01 2.38,0.8 2.57,1.07c0.19,0.27 -0.98,-0.1 -1.43,0.57" style="fill:none;fill-rule:nonzero;stroke:#000;stroke-width:2px;"/><g><g><path d="M616.794,122.864c-0.744,-0.048 -1.398,-0.276 -1.962,-0.684c-0.564,-0.408 -1.158,-0.828 -1.782,-1.26c-0.408,-0.408 -0.732,-0.846 -0.972,-1.314c-0.24,-0.468 -0.432,-1.086 -0.576,-1.854c-0.096,-0.456 -0.096,-1.032 0,-1.728c0.096,-0.696 0.252,-1.398 0.468,-2.106c0.216,-0.708 0.42,-1.278 0.612,-1.71c0.288,-0.672 0.654,-1.398 1.098,-2.178c0.444,-0.78 0.888,-1.524 1.332,-2.232c0.444,-0.708 0.798,-1.278 1.062,-1.71c0.168,-0.168 0.246,-0.258 0.234,-0.27c-0.012,-0.012 -0.018,-0.018 -0.018,-0.018c0,-0.12 0.126,-0.426 0.378,-0.918c0.252,-0.492 0.474,-0.93 0.666,-1.314c0.36,-0.384 0.564,-0.696 0.612,-0.936c0.048,-0.24 0.012,-0.432 -0.108,-0.576c-0.048,-0.096 0.036,-0.264 0.252,-0.504c0.216,-0.24 0.54,-0.516 0.972,-0.828c0.432,-0.312 0.924,-0.624 1.476,-0.936c0.576,-0.456 1.134,-0.702 1.674,-0.738c0.54,-0.036 0.858,0.078 0.954,0.342c0,0.072 0.138,0.09 0.414,0.054c0.276,-0.036 0.6,-0.096 0.972,-0.18c0.372,-0.084 0.702,-0.15 0.99,-0.198c0.12,-0.144 0.402,-0.258 0.846,-0.342c0.444,-0.084 0.966,-0.162 1.566,-0.234c0.312,0.024 0.618,0.03 0.918,0.018c0.3,-0.012 0.552,-0.03 0.756,-0.054c0.204,-0.024 0.306,-0.036 0.306,-0.036c0.168,-0.048 0.366,-0.024 0.594,0.072c0.228,0.096 0.438,0.36 0.63,0.792c0.168,0.432 0.114,0.756 -0.162,0.972c-0.276,0.216 -0.906,0.384 -1.89,0.504c-0.72,0.096 -1.344,0.174 -1.872,0.234c-0.528,0.06 -1.08,0.132 -1.656,0.216c-0.576,0.084 -1.284,0.222 -2.124,0.414c-0.6,0.12 -1.092,0.258 -1.476,0.414c-0.384,0.156 -0.72,0.384 -1.008,0.684c-0.288,0.3 -0.612,0.726 -0.972,1.278c-0.168,0.12 -0.384,0.432 -0.648,0.936c-0.264,0.504 -0.528,1.008 -0.792,1.512c-0.672,0.936 -1.254,1.746 -1.746,2.43c-0.492,0.684 -0.69,1.086 -0.594,1.206c0,-0 0.132,0.036 0.396,0.108c0.264,0.072 0.444,0.108 0.54,0.108c0.24,-0.12 0.534,-0.204 0.882,-0.252c0.348,-0.048 0.63,-0.096 0.846,-0.144c1.488,-0.384 2.658,-0.684 3.51,-0.9c0.852,-0.216 1.5,-0.378 1.944,-0.486c0.444,-0.108 0.786,-0.174 1.026,-0.198c0.336,-0.264 0.666,-0.312 0.99,-0.144c0.324,0.168 0.582,0.432 0.774,0.792c0.12,0.264 0.126,0.492 0.018,0.684c-0.108,0.192 -0.408,0.384 -0.9,0.576c-0.492,0.192 -1.218,0.42 -2.178,0.684c-0.96,0.264 -2.22,0.612 -3.78,1.044c-1.32,0.384 -2.448,0.612 -3.384,0.684c-0.936,0.072 -1.38,-0.132 -1.332,-0.612c-0.168,-0.096 -0.354,0.018 -0.558,0.342c-0.204,0.324 -0.402,0.762 -0.594,1.314c-0.192,0.552 -0.354,1.14 -0.486,1.764c-0.132,0.624 -0.216,1.206 -0.252,1.746c-0.036,0.54 -0.006,0.942 0.09,1.206c0.192,0.552 0.444,0.99 0.756,1.314c0.312,0.324 0.876,0.606 1.692,0.846c0.48,0.024 0.948,0.06 1.404,0.108c0.456,0.048 0.972,-0.048 1.548,-0.288c1.416,-0.24 2.532,-0.492 3.348,-0.756c0.816,-0.264 1.284,-0.444 1.404,-0.54c0.192,-0.096 0.318,-0.15 0.378,-0.162c0.06,-0.012 0.15,-0.018 0.27,-0.018c-0.072,0.12 -0.042,0.126 0.09,0.018c0.132,-0.108 0.318,-0.282 0.558,-0.522c0.264,-0.24 0.612,-0.468 1.044,-0.684c0.432,-0.216 0.822,-0.384 1.17,-0.504c0.348,-0.12 0.534,-0.12 0.558,0c0.144,0.24 0.12,0.57 -0.072,0.99c-0.192,0.42 -0.54,0.876 -1.044,1.368c-0.504,0.492 -1.152,0.966 -1.944,1.422c-1.272,0.672 -2.652,1.146 -4.14,1.422c-1.488,0.276 -2.82,0.426 -3.996,0.45Z" style="fill-rule:nonzero;"/></g></g><path d="M218.39,138.54l351.9,-26.42" style="fill:none;fill-rule:nonzero;"/><path d="M576.27,111.67l-7.68,4.59l1.7,-4.14l-2.3,-3.84l8.28,3.39Z" style="fill:none;fill-rule:nonzero;"/><path d="M217.93,139.24c82.08,-7.09 165.6,-14.26 351.59,-26.31m-351.76,26.17c109.82,-9.13 219.48,-17.58 352.38,-26.69" style="fill:none;fill-rule:nonzero;stroke:#000;stroke-width:2px;"/><path d="M568.26,107.97m0,0m1.36,9.49c2.61,-1.27 3.86,-3.67 6.73,-5.19m-5.68,5.53c1.24,-1.28 2.85,-3.24 5.06,-6.33" style="fill:none;fill-rule:nonzero;stroke:#000;stroke-width:1px;"/><path d="M576.09,111.15c-2.84,0.97 -3.75,2.3 -7.78,5.09m8.35,-4.3c-2.74,1.49 -6.4,3.31 -8.2,4.4m0.03,-0.23c0.76,-1.34 1.4,-3.01 1.66,-3.98m-1.43,4.24c0.73,-1.74 1.1,-3.24 1.68,-4.25m0.22,0.09c-0.58,-0.89 -1.32,-1.87 -2.66,-4.09m2.16,3.96c-0.34,-1.11 -1.04,-2.01 -1.95,-3.61m0.29,0.57c1.3,-0.74 3.11,1.47 6.98,1.84m-7.86,-2.49c3.85,1.39 6.2,2.46 8.76,3.53" style="fill:none;fill-rule:nonzero;stroke:#000;stroke-width:2px;"/><circle cx="488.5" cy="41.5" r="40" style="fill:none;"/><path d="M496.23,2.4c7.47,0.83 17.29,5.33 22.98,10.88c5.7,5.55 10.41,14.51 11.18,22.4c0.76,7.88 -2.38,17.78 -6.57,24.9c-4.18,7.12 -11.45,14.39 -18.56,17.82c-7.1,3.43 -16.36,4.05 -24.05,2.75c-7.69,-1.3 -16.49,-4.93 -22.09,-10.55c-5.6,-5.61 -10.34,-15.28 -11.49,-23.14c-1.16,-7.86 0.95,-16.91 4.57,-24.02c3.62,-7.12 10.18,-14.84 17.13,-18.67c6.95,-3.83 19.45,-3.92 24.57,-4.3c5.13,-0.38 4.8,1.33 6.17,2.02c1.37,0.69 2.17,1.59 2.03,2.12m-1.63,-2.11c7.41,1.48 15.02,7.31 19.96,13.22c4.95,5.91 9.35,14.3 9.7,22.22c0.34,7.91 -3.46,18.28 -7.62,25.26c-4.15,6.98 -9.91,13.41 -17.32,16.62c-7.4,3.22 -18.86,4.86 -27.11,2.67c-8.25,-2.19 -17.41,-9.32 -22.38,-15.82c-4.97,-6.5 -7.1,-15.58 -7.46,-23.17c-0.35,-7.58 1.13,-15.79 5.33,-22.36c4.21,-6.56 12.58,-13.51 19.91,-17.02c7.33,-3.51 19.52,-3.69 24.08,-4.03c4.56,-0.34 3.14,1.39 3.29,1.97c0.15,0.58 -1.88,0.76 -2.39,1.5" style="fill:none;fill-rule:nonzero;stroke:#000;stroke-width:2px;"/><g><g><path d="M485.696,55.42c-0.456,0.072 -0.876,0.114 -1.26,0.126c-0.384,0.012 -0.948,-0.078 -1.692,-0.27c-0.384,-0.12 -0.654,-0.264 -0.81,-0.432c-0.156,-0.168 -0.414,-0.48 -0.774,-0.936c-0.264,-0.384 -0.45,-0.738 -0.558,-1.062c-0.108,-0.324 -0.126,-0.576 -0.054,-0.756c0.072,-0.18 0.228,-0.234 0.468,-0.162c0.072,0.024 0.186,0.102 0.342,0.234c0.156,0.132 0.306,0.294 0.45,0.486c0.336,0.36 0.744,0.6 1.224,0.72c0.48,0.12 1.116,0.132 1.908,0.036c0.336,-0.072 0.744,-0.174 1.224,-0.306c0.48,-0.132 0.948,-0.294 1.404,-0.486c0.456,-0.192 0.816,-0.384 1.08,-0.576c1.272,-0.864 2.292,-1.548 3.06,-2.052c0.768,-0.504 1.152,-0.756 1.152,-0.756c0.048,-0.096 0.138,-0.174 0.27,-0.234c0.132,-0.06 0.294,-0.126 0.486,-0.198c0.144,-0.144 0.378,-0.372 0.702,-0.684c0.324,-0.312 0.636,-0.624 0.936,-0.936c0.3,-0.312 0.486,-0.492 0.558,-0.54c0.048,-0.216 0.096,-0.39 0.144,-0.522c0.048,-0.132 0.072,-0.27 0.072,-0.414c0.192,-0.192 0.45,-0.594 0.774,-1.206c0.324,-0.612 0.654,-1.296 0.99,-2.052c0.336,-0.756 0.576,-1.446 0.72,-2.07c0.336,-1.68 0.42,-3.096 0.252,-4.248c-0.168,-1.152 -0.51,-2.142 -1.026,-2.97c-0.516,-0.828 -1.158,-1.566 -1.926,-2.214c-0.264,-0.216 -0.63,-0.45 -1.098,-0.702c-0.468,-0.252 -0.954,-0.474 -1.458,-0.666c-0.504,-0.192 -0.942,-0.348 -1.314,-0.468c-0.372,-0.12 -0.594,-0.168 -0.666,-0.144c-0.096,0.024 -0.294,0.402 -0.594,1.134c-0.3,0.732 -0.654,1.662 -1.062,2.79c-0.408,1.128 -0.846,2.328 -1.314,3.6c-0.468,1.272 -0.906,2.472 -1.314,3.6c-0.144,0.456 -0.3,0.936 -0.468,1.44c-0.168,0.504 -0.312,0.942 -0.432,1.314c-0.12,0.372 -0.18,0.618 -0.18,0.738c-0.264,0.408 -0.474,0.948 -0.63,1.62c-0.156,0.672 -0.33,1.788 -0.522,3.348c-0.216,0.816 -0.372,1.434 -0.468,1.854c-0.096,0.42 -0.192,0.618 -0.288,0.594l-0.144,0.144c0,0.144 -0.096,0.216 -0.288,0.216c-0.192,-0 -0.414,-0.054 -0.666,-0.162c-0.252,-0.108 -0.45,-0.234 -0.594,-0.378c-0.072,-0.264 -0.114,-0.516 -0.126,-0.756c-0.012,-0.24 0.078,-0.708 0.27,-1.404c0.12,-0.456 0.27,-1.014 0.45,-1.674c0.18,-0.66 0.378,-1.344 0.594,-2.052c0.216,-0.708 0.42,-1.362 0.612,-1.962c0.192,-0.6 0.336,-1.056 0.432,-1.368c0.168,-0.408 0.408,-1.176 0.72,-2.304c0.192,-0.624 0.39,-1.248 0.594,-1.872c0.204,-0.624 0.402,-1.182 0.594,-1.674c0.192,-0.492 0.324,-0.81 0.396,-0.954c0.12,-0.312 0.3,-0.84 0.54,-1.584c0.24,-0.744 0.552,-1.572 0.936,-2.484l0.252,-1.188l-0.396,-0.18c-0.288,0.096 -0.51,0.126 -0.666,0.09c-0.156,-0.036 -0.258,-0.066 -0.306,-0.09c-0.144,0.048 -0.348,0.012 -0.612,-0.108c-0.264,-0.12 -0.498,-0.276 -0.702,-0.468c-0.204,-0.192 -0.33,-0.36 -0.378,-0.504c-0.048,-0.096 -0.078,-0.222 -0.09,-0.378c-0.012,-0.156 -0.018,-0.234 -0.018,-0.234c0.024,-0.144 0.204,-0.282 0.54,-0.414c0.336,-0.132 0.774,-0.246 1.314,-0.342c0.54,-0.096 1.128,-0.162 1.764,-0.198c0.636,-0.036 1.254,-0.03 1.854,0.018c0.624,0.048 1.212,0.18 1.764,0.396c0.552,0.216 1.152,0.444 1.8,0.684c0.768,0.288 1.578,0.786 2.43,1.494c0.852,0.708 1.632,1.542 2.34,2.502c0.708,0.96 1.182,1.968 1.422,3.024c0.072,0.288 0.144,0.696 0.216,1.224c0.072,0.528 0.114,1.038 0.126,1.53c0.012,0.492 -0.042,0.81 -0.162,0.954c-0.048,0.096 -0.078,0.21 -0.09,0.342c-0.012,0.132 0.03,0.222 0.126,0.27c-0.024,0.072 -0.108,0.342 -0.252,0.81c-0.144,0.468 -0.276,0.87 -0.396,1.206c-0.048,0.624 -0.192,1.272 -0.432,1.944c-0.24,0.672 -0.504,1.302 -0.792,1.89c-0.288,0.588 -0.552,1.086 -0.792,1.494c-0.096,0 -0.186,0.018 -0.27,0.054c-0.084,0.036 -0.078,0.066 0.018,0.09c-0,0.12 -0.132,0.348 -0.396,0.684c-0.096,0.072 -0.246,0.246 -0.45,0.522c-0.204,0.276 -0.366,0.462 -0.486,0.558c-0.024,0.168 -0.096,0.306 -0.216,0.414c-0.12,0.108 -0.228,0.162 -0.324,0.162l-0.054,0c-0.036,0 -0.054,0.048 -0.054,0.144c-0.192,0.288 -0.492,0.63 -0.9,1.026c-0.408,0.396 -0.87,0.804 -1.386,1.224c-0.516,0.42 -1.044,0.81 -1.584,1.17c-0.54,0.36 -1.05,0.636 -1.53,0.828c-0.24,0.168 -0.492,0.306 -0.756,0.414c-0.264,0.108 -0.516,0.222 -0.756,0.342c-0.12,0.096 -0.384,0.234 -0.792,0.414c-0.408,0.18 -0.846,0.354 -1.314,0.522c-0.468,0.168 -0.882,0.288 -1.242,0.36Z" style="fill-rule:nonzero;"/></g></g><path d="M406.5,193.5l59.11,-108.76" style="fill:none;fill-rule:nonzero;"/><path d="M468.47,79.46l-0.3,8.94l-2.56,-3.66l-4.47,-0.16l7.33,-5.12Z" style="fill:none;fill-rule:nonzero;"/><path d="M406.12,193.6c21.69,-39.38 43.85,-73.89 57.66,-109.24m-57.91,109c22.58,-39.41 42.33,-78.12 59.89,-107.67" style="fill:none;fill-rule:nonzero;stroke:#000;stroke-width:2px;"/><path d="M460.89,84.86m0,0" style="fill:none;fill-rule:nonzero;stroke:#000;stroke-width:1px;"/><path d="M469.14,78.63c-0.77,3.91 -1.56,5.46 -1.74,10.6m0.98,-9.58c-0.06,3.75 -0.35,7.06 -0.36,9.19m0.31,-0.42c-1.48,-1.8 -2.59,-3.32 -2.59,-3.86m2.37,3.67c-0.72,-0.79 -1.24,-1.64 -2.51,-3.39m0.2,0.22c-1.6,-0.61 -3.77,-0.72 -4.32,-0.84m4.29,0.58c-1.79,-0.21 -3.41,-0.01 -4.74,-0.18m-0.48,-0.76c3,-0.67 4.91,-1.68 8.47,-4.13m-7.85,5.06c2.37,-2.12 5.6,-3.86 6.99,-5.56" style="fill:none;fill-rule:nonzero;stroke:#000;stroke-width:2px;"/><path d="M590.22,83.22l-65.33,-11.95" style="fill:none;fill-rule:nonzero;"/><path d="M518.98,70.19l8.59,-2.5l-2.68,3.58l1.24,4.29l-7.15,-5.37Z" style="fill:none;fill-rule:nonzero;"/><path d="M591.52,82.48c-17.3,-4.35 -37.15,-6.34 -68.04,-10.05m67.55,10.47c-20.95,-2.8 -40.69,-7.68 -65.81,-12.14" style="fill:none;fill-rule:nonzero;stroke:#ffcce6;stroke-width:2px;"/><path d="M518.86,70.33m0,0m6.52,4.49c0.68,-0.35 1.04,-0.85 1.68,-1.53m-1.43,1.57c0.19,-0.4 0.69,-0.89 1.14,-1.57" style="fill:none;fill-rule:nonzero;stroke:#ffcce6;stroke-width:1px;"/><path d="M518.87,71.05c3.05,-1.92 7.83,-2.9 8.75,-3.03m-8.36,2.4c3.06,-0.94 5.28,-1.8 8.67,-2.66m-0.33,0.35c-1.03,0.7 -1.15,1.24 -2.54,3.52m2.72,-3.81c-1.19,1.14 -2.12,2.72 -2.96,3.65m-0.17,0.09c0.62,0.8 0.57,1.83 1.42,4.37m-1.12,-4.63c0.33,1.71 0.83,3.19 1.33,4.04m-0.97,0.03c-1.46,-2.02 -4.08,-3.43 -6.74,-5.01m7.98,4.84c-3.09,-1.63 -5.39,-3.83 -7.66,-5.27" style="fill:none;fill-rule:nonzero;stroke:#ffcce6;stroke-width:2px;"/><path d="M528.5,41.5l171.88,-28.65" style="fill:none;fill-rule:nonzero;"/><path d="M706.29,11.87l-7.23,5.26l1.32,-4.28l-2.63,-3.61l8.54,2.63Z" style="fill:none;fill-rule:nonzero;"/><path d="M527.48,39.93c66.21,-12.2 133.82,-23.95 171.92,-28.37m-170.66,29.43c42.24,-7.85 83.46,-15.61 172.14,-28.11" style="fill:none;fill-rule:nonzero;stroke:#000;stroke-width:2px;"/><path d="M697.44,9.59m0,0m3.58,9.13c1.11,-2.24 3.16,-4.09 5.67,-6.49m-6.47,6.66c2.21,-2.33 4.42,-4.61 6.1,-7.47" style="fill:none;fill-rule:nonzero;stroke:#000;stroke-width:1px;"/><path d="M705.75,11.75c-2.62,2.68 -4.32,4.92 -6.86,4.6m7.19,-4.58c-1.26,1.15 -3.71,2.48 -7.17,5.31m0.01,-0.32c0.6,-1.27 0.95,-2.52 1.47,-3.72m-1.52,4.3c0.23,-1.16 0.74,-1.85 1.48,-4.58m-0.16,0.14c-0.78,-1.14 -1.49,-2.53 -2.83,-3.95m3.11,3.86c-1.16,-1.37 -2.34,-2.89 -2.72,-3.44m0.68,0.43c1.61,-0.07 2.47,0.53 7.83,2.82m-8.4,-3.78c1.45,1.3 3.22,1.64 8.43,2.88" style="fill:none;fill-rule:nonzero;stroke:#000;stroke-width:2px;"/><path d="M8.5,11.5l126.6,100.87" style="fill:none;fill-rule:nonzero;"/><path d="M139.79,116.11l-8.75,-1.86l4.06,-1.88l0.93,-4.38l3.76,8.12Z" style="fill:none;fill-rule:nonzero;"/><path d="M9.16,13.09c37.85,27.9 77.65,60.21 125.39,99.53m-126.37,-101.82c49.78,38.95 99.41,77.76 127.6,102.14" style="fill:none;fill-rule:nonzero;stroke:#000;stroke-width:2px;"/><path d="M135.76,108.31m0,0m1.13,11.4c0.54,-1.54 1.91,-3.35 3.11,-4.38m-3.62,4.46c0.73,-0.82 1.78,-1.87 3.41,-3.86" style="fill:none;fill-rule:nonzero;stroke:#000;stroke-width:1px;"/><path d="M140.6,116.8c-4.47,-2.25 -6.97,-2.68 -9.94,-2.65m9.33,1.53c-3.14,-0.01 -6.88,-0.65 -8.71,-1.6m-0.54,-0.09c1.59,0.1 1.8,-0.43 4.21,-1.61m-4.05,1.71c1.07,-0.33 2,-0.6 4.22,-1.65m-0.16,-0.26c0.36,-0.89 0.65,-2.48 1.24,-4.24m-0.97,4.32c0.28,-1.62 0.78,-3.33 0.66,-4.25m0.54,-0.5c1.16,2.75 2.02,4.46 3.72,8.14m-4.32,-7.22c1.67,1.57 2.25,3.6 4.04,7.65" style="fill:none;fill-rule:nonzero;stroke:#000;stroke-width:2px;"/><path d="M428.5,231.5l181.81,19.14" style="fill:none;fill-rule:nonzero;"/><path d="M616.28,251.27l-8.38,3.14l2.41,-3.77l-1.57,-4.19l7.54,4.82Z" style="fill:none;fill-rule:nonzero;"/><path d="M426.84,232.25c44.74,3.21 82.72,7.09 183.35,20.19m-182.57,-21.82c61.58,8.93 121.6,15.5 183.54,19.13" style="fill:none;fill-rule:nonzero;stroke:#000;stroke-width:2px;"/><path d="M608.71,246.48m0,-0m1.81,10.83c2.47,-3.04 3.43,-5.6 4.92,-6.67m-5.03,5.98c1.55,-0.98 2.4,-3.51 4.71,-5.72" style="fill:none;fill-rule:nonzero;stroke:#000;stroke-width:1px;"/><path d="M616.66,250.97c-3.74,1.35 -6.3,3.04 -9.36,4.02m8.69,-3.58c-1.85,0.41 -4.65,1.33 -8.35,2.71m0.69,0.13c0.11,-1.17 1.29,-1.92 1.67,-3.77m-2.19,3.85c0.83,-0.97 1.6,-1.84 2.56,-3.91m-0.14,-0.21c-0.55,-1.19 -0.39,-1.74 -1.66,-3.58m1.91,3.84c-0.39,-0.68 -0.74,-1.38 -1.58,-4.1m-0.05,0.36c3.1,1.59 4.43,2.17 8.18,4.66m-7.91,-4.55c2.4,1.3 4.98,2.74 7.33,4.51" style="fill:none;fill-rule:nonzero;stroke:#000;stroke-width:2px;"/><path d="M288.5,44.36l-201.86,-31.59" style="fill:none;fill-rule:nonzero;"/><path d="M80.71,11.85l8.52,-2.72l-2.59,3.64l1.35,4.26l-7.28,-5.18Z" style="fill:none;fill-rule:nonzero;"/><path d="M288.52,44.28c-70.82,-12.51 -140.3,-21.97 -201.61,-32.1m202.09,33.01c-55.7,-8.62 -111.61,-16.59 -203.23,-32.74" style="fill:none;fill-rule:nonzero;stroke:#000;stroke-width:2px;"/><path d="M80.92,11.61m0,0m6.1,5.4c0.49,-0.87 0.6,-1.24 1.83,-2.37m-1.9,2.1c0.72,-0.8 1.33,-1.47 2.08,-2.27" style="fill:none;fill-rule:nonzero;stroke:#000;stroke-width:1px;"/><path d="M80.66,12.36c3.49,-1.14 7.35,-3.39 7.76,-3.75m-7.59,3.05c3.22,-0.69 6.06,-1.65 8.52,-2.95m0.14,0.37c-0.75,1.29 -1.62,1.41 -2.43,3.36m2.13,-3.31c-0.93,1.13 -1.46,2.38 -2.44,3.58m-0.14,0.29c0.01,0.43 0.63,1.92 1.77,4.45m-1.53,-4.48c0.22,0.65 0.29,1.34 1.16,3.88m-0.19,-0.58c-1.68,-0.74 -4.72,-2.39 -7.76,-3.72m8,4.82c-2.88,-2.69 -6,-3.94 -7.1,-5.33" style="fill:none;fill-rule:nonzero;stroke:#000;stroke-width:2px;"/><path d="M108.5,235.5l63.48,-48.97" style="fill:none;fill-rule:nonzero;"/><path d="M176.73,182.87l-3.89,8.05l-0.86,-4.39l-4.03,-1.94l8.78,-1.72Z" style="fill:none;fill-rule:nonzero;"/><path d="M110.2,234.58c16,-12.81 33.29,-26.09 62.51,-47.17m-64.21,48.83c14.83,-10.27 27.19,-21.63 62.68,-49.53" style="fill:none;fill-rule:nonzero;stroke:#000;stroke-width:2px;"/><path d="M168.25,184.25m0,0" style="fill:none;fill-rule:nonzero;stroke:#000;stroke-width:1px;"/><path d="M176.77,183.55c-1.46,0.83 -2.34,3.68 -4.6,8.1m4.22,-9.11c-0.82,1.83 -1.55,4.41 -3.28,8.62m-0.51,-0.47c-0.02,-1.92 -0.21,-3.26 -0.24,-4.08m0.3,4.5c-0.11,-1.63 -0.56,-2.89 -0.87,-4.4m0.28,-0.13c-1.82,-0.7 -2.26,-1.44 -3.86,-1.6m3.78,1.62c-1.38,-0.69 -2.77,-1.24 -3.89,-1.91m-0.11,-0.13c2.52,-1.01 5.92,-0.89 8.86,-2.18m-9.3,2.48c1.9,-0.64 3.87,-1.14 8.92,-1.66" style="fill:none;fill-rule:nonzero;stroke:#000;stroke-width:2px;"/></g></svg>