<?xml version="1.0" encoding="UTF-8" standalone="no"?><!DOCTYPE svg PUBLIC "-//W3C//DTD SVG 1.1//EN" "http://www.w3.org/Graphics/SVG/1.1/DTD/svg11.dtd"><svg width="100%" height="100%" viewBox="0 0 700 251" version="1.1" xmlns="http://www.w3.org/2000/svg" xmlns:xlink="http://www.w3.org/1999/xlink" xml:space="preserve" xmlns:serif="http://www.serif.com/" style="fill-rule:evenodd;clip-rule:evenodd;stroke-linecap:round;stroke-linejoin:round;stroke-miterlimit:10;"><g><circle cx="178.5" cy="148.5" r="40" style="fill:none;"/><path d="M183.83,107.21c6.85,0.56 15.43,6.11 20.83,11.88c5.4,5.77 10.01,15.01 11.57,22.74c1.55,7.72 0.93,16.62 -2.25,23.62c-3.17,6.99 -10.16,14.29 -16.8,18.34c-6.63,4.06 -15.61,6.84 -23.02,6.01c-7.41,-0.82 -15.85,-5.52 -21.43,-10.97c-5.58,-5.45 -10.5,-13.75 -12.06,-21.72c-1.56,-7.97 -0.51,-18.87 2.7,-26.07c3.22,-7.2 10.09,-13.15 16.58,-17.13c6.49,-3.98 18.04,-5.83 22.34,-6.74c4.3,-0.9 2.51,0.81 3.49,1.31c0.97,0.51 2.32,0.89 2.37,1.73m-12.39,-2.68c7.11,-1.33 17.31,1.55 23.44,5.83c6.13,4.28 10.4,12.33 13.35,19.86c2.95,7.53 5.75,17.79 4.36,25.32c-1.39,7.52 -7,14.84 -12.7,19.85c-5.71,5 -14.13,9.29 -21.53,10.18c-7.4,0.89 -16.34,-0.81 -22.85,-4.84c-6.52,-4.03 -13.23,-12.1 -16.24,-19.34c-3.02,-7.24 -3.23,-16.43 -1.87,-24.08c1.35,-7.65 4.93,-16.23 9.98,-21.82c5.05,-5.6 16.48,-10.11 20.31,-11.76c3.84,-1.65 1.98,1.46 2.69,1.85c0.72,0.4 1.59,-0.12 1.62,0.5" style="fill:none;fill-rule:nonzero;stroke:#000;stroke-width:2px;"/><g><g><path d="M188.224,147.624c-0.072,0.168 -0.348,0.3 -0.828,0.396c-0.48,0.096 -1.248,0.204 -2.304,0.324c-0.312,0.024 -0.774,0.048 -1.386,0.072c-0.612,0.024 -1.272,0.048 -1.98,0.072c-0.708,0.024 -1.35,0.03 -1.926,0.018c-0.576,-0.012 -0.972,-0.042 -1.188,-0.09c-0,0 -0.054,0.06 -0.162,0.18c-0.108,0.12 -0.162,0.276 -0.162,0.468c-0.168,0.288 -0.378,0.732 -0.63,1.332c-0.252,0.6 -0.528,1.26 -0.828,1.98c-0.3,0.72 -0.576,1.44 -0.828,2.16c-0.252,0.72 -0.462,1.344 -0.63,1.872c-0.168,0.528 -0.252,0.888 -0.252,1.08c-0.216,0.576 -0.348,1.068 -0.396,1.476c-0.048,0.408 -0.132,0.648 -0.252,0.72c-0.024,0.096 -0.18,0.12 -0.468,0.072c-0.288,-0.048 -0.528,-0.18 -0.72,-0.396c-0.288,-0.216 -0.45,-0.414 -0.486,-0.594c-0.036,-0.18 0.03,-0.534 0.198,-1.062c0.072,-0.312 0.198,-0.774 0.378,-1.386c0.18,-0.612 0.384,-1.29 0.612,-2.034c0.228,-0.744 0.468,-1.47 0.72,-2.178c0.252,-0.708 0.498,-1.29 0.738,-1.746c0.264,-0.456 0.432,-0.87 0.504,-1.242c0.072,-0.372 0.168,-0.714 0.288,-1.026c-0.024,-0.264 -0.024,-0.444 -0,-0.54c0.024,-0.096 0.12,-0.24 0.288,-0.432c0.12,-0.096 0.27,-0.27 0.45,-0.522c0.18,-0.252 0.39,-0.642 0.63,-1.17c0.072,-0.24 0.186,-0.57 0.342,-0.99c0.156,-0.42 0.306,-0.852 0.45,-1.296c0.144,-0.444 0.276,-0.822 0.396,-1.134c0.12,-0.312 0.18,-0.48 0.18,-0.504c0.048,-0.096 0.12,-0.282 0.216,-0.558c0.096,-0.276 0.168,-0.498 0.216,-0.666c0.096,-0.336 0.174,-0.612 0.234,-0.828c0.06,-0.216 0.042,-0.324 -0.054,-0.324c-0.192,0.048 -0.576,0.084 -1.152,0.108c-0.288,0.048 -0.498,0.078 -0.63,0.09c-0.132,0.012 -0.246,0.03 -0.342,0.054c-0.24,0.024 -0.456,-0 -0.648,-0.072c-0.192,-0.072 -0.288,-0.216 -0.288,-0.432c0.048,-0.384 0.186,-0.702 0.414,-0.954c0.228,-0.252 0.522,-0.39 0.882,-0.414c0.168,-0.048 0.354,-0.09 0.558,-0.126c0.204,-0.036 0.486,-0.102 0.846,-0.198c0.456,-0.096 0.81,-0.174 1.062,-0.234c0.252,-0.06 0.45,-0.066 0.594,-0.018c0.12,-0.072 0.228,-0.15 0.324,-0.234c0.096,-0.084 0.144,-0.174 0.144,-0.27c-0,-0.12 0.054,-0.21 0.162,-0.27c0.108,-0.06 0.234,-0.096 0.378,-0.108c0.144,-0.012 0.294,0.006 0.45,0.054c0.156,0.048 0.27,0.132 0.342,0.252c0.048,0.072 0.156,0.132 0.324,0.18c0.168,0.048 0.474,0.042 0.918,-0.018c0.444,-0.06 1.074,-0.174 1.89,-0.342c0.432,-0.048 0.978,-0.096 1.638,-0.144c0.66,-0.048 1.182,-0.012 1.566,0.108c0.408,-0.072 0.774,-0.102 1.098,-0.09c0.324,0.012 0.546,-0.03 0.666,-0.126c0.504,0.096 0.87,0.162 1.098,0.198c0.228,0.036 0.414,0.114 0.558,0.234c0.096,0.096 0.126,0.186 0.09,0.27c-0.036,0.084 -0.054,0.126 -0.054,0.126c-0.096,-0.048 -0.084,-0.042 0.036,0.018c0.12,0.06 0.204,0.114 0.252,0.162c0.168,0.072 0.276,0.162 0.324,0.27c0.048,0.108 0.072,0.21 0.072,0.306c-0,0.096 -0.012,0.18 -0.036,0.252c-0.024,0.216 -0.144,0.342 -0.36,0.378c-0.216,0.036 -0.756,0.042 -1.62,0.018c-1.032,-0.144 -2.046,-0.198 -3.042,-0.162c-0.996,0.036 -2.154,0.15 -3.474,0.342c-0.48,0.024 -0.906,0.09 -1.278,0.198c-0.372,0.108 -0.582,0.162 -0.63,0.162c-0.096,-0 -0.264,0.162 -0.504,0.486c-0.24,0.324 -0.468,0.798 -0.684,1.422c-0.096,0.168 -0.264,0.552 -0.504,1.152c-0.24,0.6 -0.498,1.248 -0.774,1.944c-0.276,0.696 -0.516,1.308 -0.72,1.836c-0.204,0.528 -0.33,0.816 -0.378,0.864c0.336,0.096 0.882,0.144 1.638,0.144c0.756,-0 1.596,-0.03 2.52,-0.09c0.924,-0.06 1.77,-0.126 2.538,-0.198c0.36,-0.072 0.738,-0.138 1.134,-0.198c0.396,-0.06 0.654,-0.066 0.774,-0.018c0.12,0.072 0.228,0.21 0.324,0.414c0.096,0.204 0.162,0.414 0.198,0.63c0.036,0.216 0.018,0.396 -0.054,0.54Z" style="fill-rule:nonzero;"/></g></g><path d="M188.5,109.38l24.06,-9.56" style="fill:none;fill-rule:nonzero;"/><path d="M218.14,97.61l-5.96,6.67l0.38,-4.46l-3.33,-2.98l8.91,0.77Z" style="fill:none;fill-rule:nonzero;"/><path d="M188.03,108.32c10.43,-4.28 18.91,-8.39 24.35,-10.05m-22.93,11.28c6.42,-3.33 14.71,-6.19 23.66,-9.04" style="fill:none;fill-rule:nonzero;stroke:#c06;stroke-width:2px;"/><path d="M209.14,96.94m-0,0" style="fill:none;fill-rule:nonzero;stroke:#c06;stroke-width:1px;"/><path d="M217.88,98.42c-2.58,1.53 -4.57,4.41 -4.87,6.07m4.92,-6.91c-1.38,2.65 -3.47,4.37 -5.48,6.76m-0.63,-0.47c0.48,-0.57 0.19,-2.38 0.46,-3.76m0.01,4.12c0.16,-1.81 0.09,-3.51 0.19,-4.39m0.24,-0.01c-0.8,-0.77 -2.53,-1.48 -3.39,-2.67m3.45,2.67c-1.48,-1.28 -2.71,-2.08 -3.75,-3.21m0.12,0.19c3.76,0.94 7.24,0.97 8.24,0.77m-8.15,-0.74c2.13,0.22 4.79,-0.03 8.6,0.79" style="fill:none;fill-rule:nonzero;stroke:#c06;stroke-width:2px;"/><circle cx="368.5" cy="198.5" r="40" style="fill:none;"/><path d="M353.6,159.13c6.44,-3.09 17.58,-2.71 25.03,-0.57c7.45,2.14 15.04,7.25 19.69,13.42c4.66,6.17 7.61,15.48 8.23,23.59c0.62,8.11 -0.63,18.04 -4.49,25.07c-3.86,7.03 -11.79,14.2 -18.68,17.11c-6.89,2.91 -15.27,2.2 -22.67,0.34c-7.39,-1.86 -16.47,-5.49 -21.71,-11.48c-5.24,-5.98 -9.13,-16.42 -9.71,-24.42c-0.58,-8 2.47,-16.73 6.24,-23.56c3.76,-6.83 12.05,-14.01 16.34,-17.42c4.29,-3.4 6.86,-2.36 9.4,-3.03c2.53,-0.66 5.9,-1.51 5.81,-0.95m14.98,2.1c6.45,1.68 12.33,8.59 16.47,14.95c4.15,6.37 7.99,15.3 8.4,23.23c0.4,7.92 -1.57,17.43 -5.95,24.34c-4.38,6.91 -12.98,14.22 -20.36,17.11c-7.37,2.89 -16.73,2.78 -23.88,0.24c-7.15,-2.54 -14.39,-9.12 -19.03,-15.48c-4.64,-6.36 -8.71,-14.39 -8.81,-22.69c-0.1,-8.31 3.97,-20.21 8.21,-27.14c4.24,-6.93 10.42,-12.08 17.21,-14.44c6.79,-2.36 19.24,0.59 23.52,0.31c4.28,-0.29 1.65,-2.11 2.17,-2c0.53,0.11 1.18,1.67 0.96,2.65" style="fill:none;fill-rule:nonzero;stroke:#000;stroke-width:2px;"/><g><g><path d="M367.712,210.116c-0.168,-0.264 -0.546,-0.432 -1.134,-0.504c-0.588,-0.072 -1.302,-0.084 -2.142,-0.036c-0.336,0.048 -0.66,0.03 -0.972,-0.054c-0.312,-0.084 -0.558,-0.216 -0.738,-0.396c-0.18,-0.18 -0.246,-0.366 -0.198,-0.558c0.024,-0.288 0.27,-0.516 0.738,-0.684c0.468,-0.168 1.218,-0.264 2.25,-0.288l1.908,-0.036l0.36,-0.72c0.096,-0.264 0.216,-0.636 0.36,-1.116c0.144,-0.48 0.3,-0.996 0.468,-1.548c0.096,-0.336 0.24,-0.792 0.432,-1.368c0.192,-0.576 0.396,-1.188 0.612,-1.836c0.216,-0.648 0.408,-1.23 0.576,-1.746c0.168,-0.516 0.276,-0.882 0.324,-1.098c0.096,-0.216 0.228,-0.582 0.396,-1.098c0.168,-0.516 0.33,-1.044 0.486,-1.584c0.156,-0.54 0.258,-0.93 0.306,-1.17c0.624,-1.896 1.032,-3.246 1.224,-4.05c0.192,-0.804 0.24,-1.218 0.144,-1.242c-0.096,0 -0.33,0.012 -0.702,0.036c-0.372,0.024 -0.78,0.054 -1.224,0.09c-0.444,0.036 -0.84,0.078 -1.188,0.126c-0.348,0.048 -0.558,0.096 -0.63,0.144c-0.12,0.168 -0.324,0.204 -0.612,0.108c-0.288,-0.096 -0.468,-0.264 -0.54,-0.504c-0.024,-0.216 -0.03,-0.384 -0.018,-0.504c0.012,-0.12 0.078,-0.216 0.198,-0.288c0.168,-0.144 0.492,-0.306 0.972,-0.486c0.48,-0.18 1.026,-0.342 1.638,-0.486c0.612,-0.144 1.194,-0.252 1.746,-0.324c0.408,-0.048 0.816,-0.138 1.224,-0.27c0.408,-0.132 0.732,-0.294 0.972,-0.486c0.216,-0.072 0.426,-0.132 0.63,-0.18c0.204,-0.048 0.414,-0.06 0.63,-0.036c0.192,0.12 0.522,0.18 0.99,0.18c0.468,-0 0.966,-0.012 1.494,-0.036c1.344,-0.12 2.25,-0.156 2.718,-0.108c0.468,0.048 0.786,0.24 0.954,0.576c0.12,0.456 0.144,0.81 0.072,1.062c-0.072,0.252 -0.312,0.366 -0.72,0.342c-0.216,0.048 -0.606,0.09 -1.17,0.126c-0.564,0.036 -1.158,0.066 -1.782,0.09c-1.704,0.144 -2.616,0.312 -2.736,0.504c-0.096,0.096 -0.174,0.192 -0.234,0.288c-0.06,0.096 -0.138,0.204 -0.234,0.324c0.024,0.096 -0.03,0.402 -0.162,0.918c-0.132,0.516 -0.294,1.038 -0.486,1.566c-0.096,0.312 -0.24,0.756 -0.432,1.332c-0.192,0.576 -0.39,1.17 -0.594,1.782c-0.204,0.612 -0.39,1.164 -0.558,1.656c-0.168,0.492 -0.288,0.822 -0.36,0.99c-0.096,0.216 -0.174,0.45 -0.234,0.702c-0.06,0.252 -0.102,0.438 -0.126,0.558c-0.336,1.176 -0.63,2.172 -0.882,2.988c-0.252,0.816 -0.48,1.53 -0.684,2.142c-0.204,0.612 -0.39,1.2 -0.558,1.764c-0.168,0.564 -0.348,1.182 -0.54,1.854c-0,-0 0.186,-0.018 0.558,-0.054c0.372,-0.036 0.87,-0.078 1.494,-0.126c1.128,-0.12 1.938,-0.192 2.43,-0.216c0.492,-0.024 0.822,0.006 0.99,0.09c0.168,0.084 0.288,0.234 0.36,0.45c0.48,0.648 0.54,1.092 0.18,1.332c-0.36,0.24 -1.212,0.348 -2.556,0.324c-1.248,0.048 -2.202,0.09 -2.862,0.126c-0.66,0.036 -1.116,0.09 -1.368,0.162c-0.252,0.072 -0.402,0.192 -0.45,0.36c-0,0.192 -0.096,0.288 -0.288,0.288c-0.192,-0 -0.432,-0.048 -0.72,-0.144Z" style="fill-rule:nonzero;"/></g></g><path d="M368.5,158.5l0,-11.76" style="fill:none;fill-rule:nonzero;"/><path d="M368.5,140.74l4,8l-4,-2l-4,2l4,-8Z" style="fill:none;fill-rule:nonzero;"/><path d="M367.85,159.25c0.37,-4.14 -0.47,-6.95 1.05,-11.61m-0.5,10.74c0.1,-4.45 -0.18,-9.62 0.63,-11.78" style="fill:none;fill-rule:nonzero;stroke:#f39;stroke-width:2px;"/><path d="M368.17,141.12m0,0m3.44,8.16c0.31,-0.18 0.57,-0.45 0.68,-0.66m-0.69,0.72c0.2,-0.19 0.38,-0.4 0.61,-0.68" style="fill:none;fill-rule:nonzero;stroke:#f39;stroke-width:1px;"/><path d="M368.7,141.54c1.22,1.46 2.93,3.05 4.6,7.35m-4.66,-8.02c0.63,1.19 1.14,2.88 3.57,7.67m0.12,0.42c-0.87,-0.59 -2.27,-1.6 -4.05,-2.25m4.09,2.2c-0.92,-0.78 -1.53,-1.02 -3.98,-2.07m0.17,0.3c-1.24,-0.24 -2,0.86 -4.21,1.16m4.23,-1.7c-0.96,0.66 -2.1,1.18 -4.07,1.95m0.09,0.76c2.18,-3.52 2.93,-6.08 4.71,-8.68m-4.56,8.46c1.27,-2.35 1.71,-4.99 3.4,-8.66" style="fill:none;fill-rule:nonzero;stroke:#f39;stroke-width:2px;"/><circle cx="248.5" cy="68.5" r="40" style="fill:none;"/><path d="M253.33,30.18c7.03,0.35 15.14,5.67 20.72,10.64c5.59,4.98 11.06,11.93 12.76,19.2c1.71,7.27 0.71,17.68 -2.52,24.44c-3.23,6.75 -10.25,12.56 -16.84,16.09c-6.58,3.54 -15.2,5.63 -22.65,5.12c-7.45,-0.51 -16.25,-3.34 -22.05,-8.18c-5.81,-4.85 -11.14,-13.67 -12.76,-20.87c-1.63,-7.2 0.02,-15.46 2.99,-22.33c2.98,-6.87 8.5,-14.86 14.85,-18.88c6.35,-4.03 18.69,-4.58 23.27,-5.25c4.57,-0.67 3.32,0.88 4.17,1.24c0.85,0.35 0.99,0.34 0.93,0.9m-18.89,-0.11c6.76,-2.17 16.78,-1.93 24.17,0.58c7.39,2.52 16.12,8.37 20.16,14.52c4.04,6.15 4.53,15.01 4.08,22.37c-0.46,7.37 -2.34,16.01 -6.81,21.84c-4.47,5.83 -12.79,10.87 -20,13.16c-7.21,2.28 -16.43,2.71 -23.27,0.56c-6.83,-2.15 -13.44,-7.45 -17.74,-13.44c-4.31,-6 -8.2,-14.95 -8.07,-22.53c0.12,-7.58 4.54,-16.92 8.83,-22.95c4.28,-6.04 13.76,-10.69 16.86,-13.25c3.11,-2.55 1.28,-2.01 1.75,-2.06c0.47,-0.04 0.88,0.96 1.06,1.79" style="fill:none;fill-rule:nonzero;stroke:#000;stroke-width:2px;"/><g><g><path d="M245.39,80.116c-0.648,-0.408 -1.152,-0.99 -1.512,-1.746c-0.36,-0.756 -0.528,-1.518 -0.504,-2.286c-0.024,-1.488 0.102,-2.994 0.378,-4.518c0.276,-1.524 0.642,-3.006 1.098,-4.446c0.312,-0.864 0.654,-1.758 1.026,-2.682c0.372,-0.924 0.75,-1.794 1.134,-2.61c0.384,-0.816 0.72,-1.464 1.008,-1.944c0.744,-1.224 1.53,-2.238 2.358,-3.042c0.828,-0.804 1.446,-1.326 1.854,-1.566c0.336,-0.192 0.918,-0.384 1.746,-0.576c0.828,-0.192 1.686,-0.18 2.574,0.036c0.624,0.168 1.206,0.372 1.746,0.612c0.54,0.24 0.894,0.444 1.062,0.612c0.192,0.288 0.366,0.534 0.522,0.738c0.156,0.204 0.234,0.45 0.234,0.738c0.024,0.192 -0.042,0.426 -0.198,0.702c-0.156,0.276 -0.348,0.474 -0.576,0.594c-0.228,0.12 -0.45,0.06 -0.666,-0.18c-0.312,-0.48 -0.636,-0.81 -0.972,-0.99c-0.336,-0.18 -0.696,-0.366 -1.08,-0.558c-0.264,-0.168 -0.624,-0.258 -1.08,-0.27c-0.456,-0.012 -0.924,0.042 -1.404,0.162c-0.48,0.12 -0.9,0.324 -1.26,0.612c-0.24,0.216 -0.552,0.534 -0.936,0.954c-0.384,0.42 -0.768,0.882 -1.152,1.386c-0.384,0.504 -0.696,0.996 -0.936,1.476c-0.648,1.128 -1.23,2.262 -1.746,3.402c-0.516,1.14 -0.954,2.382 -1.314,3.726c-0.096,0.336 -0.222,0.828 -0.378,1.476c-0.156,0.648 -0.306,1.296 -0.45,1.944c-0.144,0.648 -0.24,1.176 -0.288,1.584c-0.168,1.176 -0.222,2.208 -0.162,3.096c0.06,0.888 0.366,1.5 0.918,1.836c0.552,0.336 1.464,0.288 2.736,-0.144c0.552,-0.072 1.146,-0.312 1.782,-0.72c0.636,-0.408 1.26,-0.918 1.872,-1.53c0.612,-0.612 1.134,-1.266 1.566,-1.962c0.408,-0.768 0.774,-1.524 1.098,-2.268c0.324,-0.744 0.498,-1.356 0.522,-1.836c0.024,-0.48 -0.204,-0.708 -0.684,-0.684c-0.888,-0.096 -1.608,-0.126 -2.16,-0.09c-0.552,0.036 -1.044,-0.042 -1.476,-0.234c-0.168,-0.264 -0.24,-0.528 -0.216,-0.792c0.024,-0.264 0.168,-0.528 0.432,-0.792c0.264,-0.096 0.708,-0.168 1.332,-0.216c0.624,-0.048 1.296,-0.03 2.016,0.054c0.72,0.084 1.356,0.258 1.908,0.522c0.408,0.192 0.696,0.474 0.864,0.846c0.168,0.372 0.252,0.798 0.252,1.278c-0,0.48 -0.048,0.972 -0.144,1.476c-0.12,0.528 -0.378,1.158 -0.774,1.89c-0.396,0.732 -0.87,1.506 -1.422,2.322c-0.36,0.504 -0.858,1.056 -1.494,1.656c-0.636,0.6 -1.284,1.14 -1.944,1.62c-0.66,0.48 -1.218,0.804 -1.674,0.972c-0.96,0.432 -1.944,0.714 -2.952,0.846c-1.008,0.132 -1.836,-0.03 -2.484,-0.486Z" style="fill-rule:nonzero;"/></g></g><path d="M340.22,170.22l-59.47,-65.85" style="fill:none;fill-rule:nonzero;"/><path d="M276.72,99.92l8.33,3.26l-4.3,1.19l-1.63,4.17l-2.4,-8.62Z" style="fill:none;fill-rule:nonzero;"/><path d="M338.47,169.81c-16.55,-18.36 -30.75,-36.27 -56.19,-64.82m58.65,64.65c-16.6,-17.07 -33.17,-35.49 -60.93,-64.43" style="fill:none;fill-rule:nonzero;stroke:#000;stroke-width:2px;"/><path d="M276.66,99.99m0,-0m5.29,5.71c0.62,-0.62 1.49,-0.74 2.65,-3.12m-2.38,3.32c0.64,-0.61 1.21,-1.71 2.46,-3.06" style="fill:none;fill-rule:nonzero;stroke:#000;stroke-width:1px;"/><path d="M276.06,100.55c3.55,-0.42 6.06,1.89 9.36,2.36m-8.64,-2.63c1.64,0.1 3.35,0.94 7.87,2.46m0.79,0.87c-1.67,0.17 -2.63,0.33 -4.34,0.39m3.92,-0.94c-1.06,0.33 -2.59,0.82 -4.29,1.28m0.19,-0.05c-1.05,1.52 -1,3.44 -1.72,4.28m1.71,-4.03c-0.75,0.89 -1.18,2.22 -1.62,4.05m-0.64,0.24c-0.87,-2.31 -0.56,-5.3 -2.13,-9.65m2.22,9.62c-0.61,-3.58 -1.2,-7.32 -2.2,-8.97" style="fill:none;fill-rule:nonzero;stroke:#000;stroke-width:2px;"/><path d="M618.5,138.5l-205.96,-20" style="fill:none;fill-rule:nonzero;"/><path d="M406.57,117.92l8.34,-3.21l-2.37,3.79l1.6,4.17l-7.57,-4.75Z" style="fill:none;fill-rule:nonzero;"/><path d="M618.44,137.4c-81.33,-8.52 -160.87,-14.4 -204.16,-20.53m204.35,20.95c-46.94,-4.43 -91.91,-8.36 -206.6,-19.87" style="fill:none;fill-rule:nonzero;stroke:#000;stroke-width:2px;"/><path d="M406.77,117.69m0,0m6.6,4.37c0.31,-0.05 0.84,-0.43 1.31,-1.47m-1.2,1.57c0.38,-0.42 0.86,-0.99 1.24,-1.41" style="fill:none;fill-rule:nonzero;stroke:#000;stroke-width:1px;"/><path d="M407.26,117.57c2.33,-0.63 4.62,-1.82 7.8,-2.45m-8.91,2.83c2.99,-1.03 5.69,-1.99 8.74,-2.91m0.25,-0.69c-0.85,1.65 -2.16,3.46 -2.41,4.5m2.2,-4.19c-0.89,1.15 -1.35,2.48 -2.37,3.97m0.2,-0.45c-0.03,1.69 0.9,3.29 1.13,4.75m-1.15,-4.33c0.17,0.95 0.86,1.97 1.42,4.02m-0.77,-0.7c-2.18,-0.2 -4.63,-2.91 -6.64,-4.16m7.6,5.12c-2.35,-1.85 -4.29,-2.43 -7.87,-4.93" style="fill:none;fill-rule:nonzero;stroke:#000;stroke-width:2px;"/><circle cx="368.5" cy="98.5" r="40" style="fill:none;"/><path d="M381.86,61.51c6.68,1.76 13.61,8.47 17.69,14.68c4.07,6.21 6.64,15.06 6.76,22.6c0.13,7.55 -1.86,16.59 -6.01,22.68c-4.15,6.09 -11.46,11.41 -18.88,13.88c-7.41,2.46 -18.14,3.26 -25.61,0.89c-7.46,-2.37 -14.91,-8.84 -19.19,-15.09c-4.28,-6.25 -6.48,-14.87 -6.47,-22.41c0.01,-7.53 2.41,-16.54 6.53,-22.81c4.12,-6.28 11.26,-12.41 18.18,-14.83c6.92,-2.41 18.47,0.27 23.35,0.36c4.89,0.09 4.83,-0.33 5.98,0.18c1.15,0.52 1.41,2.13 0.93,2.9m-1.91,-1.69c7.11,1.77 13.61,6.09 17.82,12.21c4.21,6.11 7.84,16.7 7.44,24.48c-0.4,7.77 -5.04,15.98 -9.84,22.14c-4.79,6.16 -11.92,12.42 -18.92,14.82c-7.01,2.41 -16.15,1.88 -23.11,-0.41c-6.96,-2.28 -14.3,-7.18 -18.63,-13.29c-4.33,-6.1 -7.29,-15.48 -7.35,-23.33c-0.06,-7.86 2.94,-17.36 6.98,-23.82c4.04,-6.47 10.35,-12.31 17.27,-14.98c6.92,-2.67 19.77,-1.03 24.24,-1.03c4.47,0.01 2.38,0.8 2.57,1.07c0.19,0.27 -0.98,-0.1 -1.43,0.57" style="fill:none;fill-rule:nonzero;stroke:#000;stroke-width:2px;"/><g><g><path d="M362.546,111.988c0,-0 -0.036,-0.018 -0.108,-0.054c-0.072,-0.036 -0.162,-0.066 -0.27,-0.09c-0.108,-0.024 -0.234,-0.036 -0.378,-0.036c-0.384,-0.096 -0.66,-0.306 -0.828,-0.63c-0.168,-0.324 -0.204,-0.678 -0.108,-1.062c0.096,-0.096 0.168,-0.3 0.216,-0.612c0.048,-0.312 0.072,-0.564 0.072,-0.756c0.096,-0.192 0.156,-0.33 0.18,-0.414c0.024,-0.084 0.084,-0.318 0.18,-0.702c0.072,-0.408 0.198,-0.978 0.378,-1.71c0.18,-0.732 0.384,-1.518 0.612,-2.358c0.228,-0.84 0.45,-1.644 0.666,-2.412c0.216,-0.768 0.414,-1.416 0.594,-1.944c0.18,-0.528 0.306,-0.828 0.378,-0.9l-0,-0.396c-0,0 0.018,-0.114 0.054,-0.342c0.036,-0.228 0.15,-0.486 0.342,-0.774c0.096,-0.264 0.18,-0.552 0.252,-0.864c0.072,-0.312 0.108,-0.516 0.108,-0.612c0.096,-0.12 0.234,-0.414 0.414,-0.882c0.18,-0.468 0.354,-0.93 0.522,-1.386c0.144,-0.384 0.306,-0.792 0.486,-1.224l0.666,-1.584l0,-0.18c0.096,-0.096 0.33,-0.582 0.702,-1.458c0.372,-0.876 0.882,-2.01 1.53,-3.402c0.096,-0.192 0.216,-0.408 0.36,-0.648c0.144,-0.24 0.216,-0.408 0.216,-0.504c0.12,-0.192 0.288,-0.282 0.504,-0.27c0.216,0.012 0.438,0.09 0.666,0.234c0.228,0.144 0.402,0.348 0.522,0.612l0.36,0.576l-1.296,2.592c-0.384,0.672 -0.702,1.284 -0.954,1.836c-0.252,0.552 -0.378,0.876 -0.378,0.972c-0,0 -0.072,0.192 -0.216,0.576c-0.144,0.384 -0.312,0.84 -0.504,1.368c-0.192,0.528 -0.36,1.008 -0.504,1.44c-0.264,0.744 -0.51,1.356 -0.738,1.836c-0.228,0.48 -0.342,0.768 -0.342,0.864c0,-0.048 0.264,-0.084 0.792,-0.108c0.528,-0.024 1.2,-0.036 2.016,-0.036c0.816,0 1.65,-0.006 2.502,-0.018c0.852,-0.012 1.608,-0.024 2.268,-0.036c0.66,-0.012 1.11,-0.042 1.35,-0.09l1.872,-0.18l1.224,-3.708c0.192,-0.672 0.444,-1.488 0.756,-2.448c0.312,-0.96 0.588,-1.776 0.828,-2.448c0.384,-1.104 0.684,-1.788 0.9,-2.052c0.216,-0.264 0.468,-0.396 0.756,-0.396c0.072,0 0.174,0.018 0.306,0.054c0.132,0.036 0.264,0.096 0.396,0.18c0.132,0.084 0.222,0.198 0.27,0.342c0.288,0.264 0.426,0.564 0.414,0.9c-0.012,0.336 -0.21,0.78 -0.594,1.332c-0.384,0.648 -0.702,1.35 -0.954,2.106c-0.252,0.756 -0.474,1.374 -0.666,1.854c0,0.288 -0.036,0.522 -0.108,0.702c-0.072,0.18 -0.156,0.318 -0.252,0.414c-0.048,0.048 -0.144,0.228 -0.288,0.54c-0.144,0.312 -0.276,0.624 -0.396,0.936c-0.12,0.312 -0.18,0.504 -0.18,0.576c0,0.168 -0.036,0.372 -0.108,0.612c-0.072,0.24 -0.156,0.408 -0.252,0.504c-0.048,0.144 -0.156,0.504 -0.324,1.08c-0.168,0.576 -0.36,1.254 -0.576,2.034c-0.216,0.78 -0.444,1.536 -0.684,2.268c-0.24,0.732 -0.456,1.338 -0.648,1.818c0,0.168 -0.06,0.378 -0.18,0.63c-0.12,0.252 -0.18,0.474 -0.18,0.666c-0.096,0.288 -0.216,0.648 -0.36,1.08c-0.144,0.432 -0.216,0.708 -0.216,0.828c-0.12,0.552 -0.246,1.116 -0.378,1.692c-0.132,0.576 -0.24,1.074 -0.324,1.494c-0.084,0.42 -0.126,0.666 -0.126,0.738c-0.096,0.096 -0.24,0.108 -0.432,0.036c-0.192,-0.072 -0.42,-0.156 -0.684,-0.252c-0.456,-0.264 -0.726,-0.546 -0.81,-0.846c-0.084,-0.3 0.006,-0.726 0.27,-1.278c0.12,-0.192 0.27,-0.666 0.45,-1.422c0.18,-0.756 0.366,-1.506 0.558,-2.25c0.144,-0.36 0.3,-0.846 0.468,-1.458c0.168,-0.612 0.336,-1.236 0.504,-1.872c0.168,-0.636 0.312,-1.176 0.432,-1.62c0.12,-0.444 0.204,-0.69 0.252,-0.738l0,-0.36c-0.048,-0.048 -0.348,-0.09 -0.9,-0.126c-0.552,-0.036 -1.236,-0.048 -2.052,-0.036c-0.816,0.012 -1.662,0.036 -2.538,0.072c-0.876,0.036 -1.662,0.102 -2.358,0.198l-2.628,0c-0.024,0.072 -0.108,0.324 -0.252,0.756c-0.144,0.432 -0.312,0.954 -0.504,1.566c-0.192,0.612 -0.39,1.236 -0.594,1.872c-0.204,0.636 -0.372,1.212 -0.504,1.728c-0.132,0.516 -0.222,0.882 -0.27,1.098c-0.096,0.432 -0.222,0.972 -0.378,1.62c-0.156,0.648 -0.324,1.314 -0.504,1.998c-0.18,0.684 -0.336,1.278 -0.468,1.782c-0.132,0.504 -0.222,0.828 -0.27,0.972Z" style="fill-rule:nonzero;"/></g></g><path d="M216.46,135.9l104.23,-34.79" style="fill:none;fill-rule:nonzero;"/><path d="M326.38,99.21l-6.32,6.33l0.63,-4.43l-3.17,-3.16l8.86,1.26Z" style="fill:none;fill-rule:nonzero;"/><path d="M215.75,136.98c23.56,-9.15 49.43,-18.82 103.75,-34.62m-104.01,34.4c32.88,-11.6 65.51,-22.77 104.97,-35.2" style="fill:none;fill-rule:nonzero;stroke:#000;stroke-width:2px;"/><path d="M317.29,98.21m0,-0" style="fill:none;fill-rule:nonzero;stroke:#000;stroke-width:1px;"/><path d="M326.87,99.4c-2.8,1.68 -4.75,5.45 -7.06,5.64m6.67,-5.42c-1.08,0.98 -2.58,2 -6.55,6.35m0.04,-0.69c-0.15,-1.38 0.66,-2.62 0.58,-4.18m-0.29,4.58c0.26,-1.69 0.05,-3.21 0.36,-4.53m-0.03,-0.19c-0.98,-1 -2.06,-2.33 -3.21,-3m3.44,3.26c-1.14,-1.38 -2.63,-2.51 -3.19,-3.27m0.54,0.18c2.15,0.51 3.94,0.73 8.15,0.76m-9.15,-1.02c2.94,0.24 5.21,0.87 9.57,1.72" style="fill:none;fill-rule:nonzero;stroke:#000;stroke-width:2px;"/><circle cx="658.5" cy="138.5" r="40" style="fill:none;"/><path d="M666.23,99.4c7.47,0.83 17.29,5.33 22.98,10.88c5.7,5.55 10.41,14.51 11.18,22.4c0.76,7.88 -2.38,17.78 -6.57,24.9c-4.18,7.12 -11.45,14.39 -18.56,17.82c-7.1,3.43 -16.36,4.05 -24.05,2.75c-7.69,-1.3 -16.49,-4.93 -22.09,-10.55c-5.6,-5.61 -10.34,-15.28 -11.49,-23.14c-1.16,-7.86 0.95,-16.91 4.57,-24.02c3.62,-7.12 10.18,-14.84 17.13,-18.67c6.95,-3.83 19.45,-3.92 24.57,-4.3c5.13,-0.38 4.8,1.33 6.17,2.02c1.37,0.69 2.17,1.59 2.03,2.12m-1.63,-2.11c7.41,1.48 15.02,7.31 19.96,13.22c4.95,5.91 9.35,14.3 9.7,22.22c0.34,7.91 -3.46,18.28 -7.62,25.26c-4.15,6.98 -9.91,13.41 -17.32,16.62c-7.4,3.22 -18.86,4.86 -27.11,2.67c-8.25,-2.19 -17.41,-9.32 -22.38,-15.82c-4.97,-6.5 -7.1,-15.58 -7.46,-23.17c-0.35,-7.58 1.13,-15.79 5.33,-22.36c4.21,-6.56 12.58,-13.51 19.91,-17.02c7.33,-3.51 19.52,-3.69 24.08,-4.03c4.56,-0.34 3.14,1.39 3.29,1.97c0.15,0.58 -1.88,0.76 -2.39,1.5" style="fill:none;fill-rule:nonzero;stroke:#000;stroke-width:2px;"/><g><g><path d="M655.696,155.516c-0.408,0.192 -0.87,0.27 -1.386,0.234c-0.516,-0.036 -1.026,-0.18 -1.53,-0.432c-0.504,-0.252 -0.948,-0.582 -1.332,-0.99c-0.168,-0.192 -0.276,-0.378 -0.324,-0.558c-0.048,-0.18 -0.024,-0.426 0.072,-0.738c0.12,-0.432 0.276,-0.648 0.468,-0.648c0.264,-0 0.564,0.228 0.9,0.684c0.672,0.6 1.338,0.768 1.998,0.504c0.66,-0.264 1.362,-0.972 2.106,-2.124c0.144,-0.36 0.372,-0.876 0.684,-1.548c0.312,-0.672 0.642,-1.392 0.99,-2.16c0.348,-0.768 0.666,-1.482 0.954,-2.142c0.288,-0.66 0.48,-1.134 0.576,-1.422c-0,-0 0.006,-0.042 0.018,-0.126c0.012,-0.084 0.066,-0.174 0.162,-0.27c0.024,-0.096 0.084,-0.288 0.18,-0.576c0.096,-0.288 0.192,-0.624 0.288,-1.008l0.99,-2.844c0.204,-0.576 0.378,-1.056 0.522,-1.44c0.12,-0.504 0.27,-1.05 0.45,-1.638c0.18,-0.588 0.33,-1.038 0.45,-1.35c0.096,-0.192 0.24,-0.582 0.432,-1.17c0.192,-0.588 0.408,-1.23 0.648,-1.926c0.288,-0.936 0.564,-1.806 0.828,-2.61c0.264,-0.804 0.474,-1.464 0.63,-1.98c0.156,-0.516 0.21,-0.81 0.162,-0.882c-0,-0 -0.21,0.036 -0.63,0.108c-0.42,0.072 -0.882,0.156 -1.386,0.252c-0.408,0.168 -0.81,0.222 -1.206,0.162c-0.396,-0.06 -0.582,-0.138 -0.558,-0.234l-0,-0.18c-0.072,0.048 -0.168,0.03 -0.288,-0.054c-0.12,-0.084 -0.228,-0.204 -0.324,-0.36c-0.096,-0.156 -0.144,-0.294 -0.144,-0.414c-0,-0.192 0.24,-0.366 0.72,-0.522c0.48,-0.156 1.092,-0.282 1.836,-0.378l2.592,-0.36c0.096,-0.072 0.27,-0.072 0.522,0c0.252,0.072 0.516,0.168 0.792,0.288c0.276,0.12 0.474,0.252 0.594,0.396c0.144,0.192 0.234,0.396 0.27,0.612c0.036,0.216 0.006,0.516 -0.09,0.9c-0.096,0.384 -0.27,0.93 -0.522,1.638c-0.252,0.708 -0.606,1.674 -1.062,2.898c-0.528,1.488 -0.996,2.838 -1.404,4.05c-0.408,1.212 -0.78,2.214 -1.116,3.006c-0.072,0.264 -0.198,0.648 -0.378,1.152c-0.18,0.504 -0.354,1.014 -0.522,1.53c-0.168,0.516 -0.3,0.942 -0.396,1.278c-0.192,0.456 -0.372,0.948 -0.54,1.476c-0.168,0.528 -0.3,0.948 -0.396,1.26c-0,0.192 -0.048,0.408 -0.144,0.648c-0.096,0.24 -0.204,0.42 -0.324,0.54c-0,0 -0.084,0.21 -0.252,0.63c-0.168,0.42 -0.372,0.918 -0.612,1.494c-0.192,0.48 -0.402,1.014 -0.63,1.602c-0.228,0.588 -0.438,1.038 -0.63,1.35c-0.12,0.288 -0.264,0.558 -0.432,0.81c-0.168,0.252 -0.252,0.426 -0.252,0.522c-0,-0 -0.006,0.036 -0.018,0.108c-0.012,0.072 -0.066,0.108 -0.162,0.108c-0,-0 -0.036,0.03 -0.108,0.09c-0.072,0.06 -0.108,0.15 -0.108,0.27c-0.048,0.144 -0.174,0.336 -0.378,0.576c-0.204,0.24 -0.444,0.492 -0.72,0.756c-0.276,0.264 -0.552,0.498 -0.828,0.702c-0.276,0.204 -0.51,0.354 -0.702,0.45Z" style="fill-rule:nonzero;"/></g></g><path d="M386.5,160.5l223.8,-21.22" style="fill:none;fill-rule:nonzero;"/><path d="M616.27,138.71l-7.58,4.74l1.61,-4.17l-2.37,-3.8l8.34,3.23Z" style="fill:none;fill-rule:nonzero;"/><path d="M386.18,160.59c77.76,-8.74 156.55,-13.45 222.55,-21.64m-222.77,21.43c81.06,-8.4 159.94,-15.82 224.47,-20.28" style="fill:none;fill-rule:nonzero;stroke:#000;stroke-width:2px;"/><path d="M608.23,135.14m0,-0m1.6,9.67c2.69,-2.54 3.78,-3.28 5.15,-6.48m-4.88,6.67c1.21,-1.26 2.44,-2.37 5.34,-5.96" style="fill:none;fill-rule:nonzero;stroke:#000;stroke-width:1px;"/><path d="M616.59,138.76c-3.97,1.21 -7.18,2.95 -7.64,4.33m7.19,-4.71c-1.97,1.17 -3.57,2.22 -7.48,5.27m0.22,0.12c0.57,-2.06 0.57,-3.59 1.76,-4.85m-1.79,4.59c0.3,-1.59 0.77,-2.77 1.34,-4.19m-0.18,-0.4c-0.14,-0.63 -0.81,-1.47 -1.81,-3.31m2.12,3.77c-1.17,-1.48 -1.9,-2.83 -2.55,-4.02m-0.38,0.97c3.24,-0.31 4.95,1.73 8.08,1.97m-7.7,-3.13c2.71,0.97 4.98,2.54 8.33,3.17" style="fill:none;fill-rule:nonzero;stroke:#000;stroke-width:2px;"/><path d="M288.5,68.5l32.63,16.32" style="fill:none;fill-rule:nonzero;"/><path d="M326.5,87.5l-8.94,0l3.57,-2.68l0,-4.48l5.37,7.16Z" style="fill:none;fill-rule:nonzero;"/><path d="M289.8,67.76c8.89,3.77 15.06,9.29 29.92,18.22m-30.41,-17.8c8.54,6.16 18.29,9.79 32.15,16.13" style="fill:none;fill-rule:nonzero;stroke:#ffcce6;stroke-width:2px;"/><path d="M321.13,80.34m0,0m0.27,11.28c2.03,-1.05 3.12,-2.55 5.03,-4.59m-4.29,4.72c0.59,-1.21 2.09,-2.68 3.43,-4.72" style="fill:none;fill-rule:nonzero;stroke:#ffcce6;stroke-width:1px;"/><path d="M326.39,88.36c-3.92,-1.01 -6.08,-1 -8.78,-0.54m9.17,-0.09c-2.89,0.04 -6.63,0.03 -8.86,-0.16m-0.33,0.35c0.48,-0.82 1.94,-1.85 3.71,-2.74m-3.53,2.45c1.22,-1.22 2.64,-1.99 3.29,-2.61m-0.17,0.09c0.35,-1.16 0.03,-2.08 0.18,-4.4m0.12,4.14c-0.23,-1.73 -0.21,-3.69 0.09,-4.73m-0.97,0.03c2.99,2.45 4.91,5.58 5.78,7.52m-4.54,-7.69c1.35,2.94 3.56,5.25 4.86,7.26" style="fill:none;fill-rule:nonzero;stroke:#ffcce6;stroke-width:2px;"/><path d="M396.78,70.22l29.69,-26.26" style="fill:none;fill-rule:nonzero;"/><path d="M430.96,39.98l-3.34,8.3l-1.15,-4.32l-4.15,-1.67l8.64,-2.31Z" style="fill:none;fill-rule:nonzero;"/><path d="M395.76,68.65c11.34,-10.05 24.07,-20.89 29.73,-25.98m-28.47,27.04c7.52,-6.12 14.03,-13.3 29.95,-25.72" style="fill:none;fill-rule:nonzero;stroke:#000;stroke-width:2px;"/><path d="M422.25,42.37m0,0" style="fill:none;fill-rule:nonzero;stroke:#000;stroke-width:1px;"/><path d="M430.82,40.25c-1.06,3.33 -1.46,5.76 -2.74,7.64m3,-7.59c-0.78,2.43 -1.76,3.9 -3.47,7.76m-0.26,0.16c-0.39,-1.42 -0.26,-3.04 -0.96,-4.65m1.13,4.66c-0.03,-1.16 -0.64,-2.24 -1.12,-4.29m-0.07,-0.35c-1.3,-0.37 -2.83,-0.72 -4,-1.11m3.95,1.69c-0.9,-0.61 -1.53,-0.75 -3.99,-1.97m-0.35,0.2c3.63,-0.57 7.43,-1.52 8.23,-3m-7.66,2.82c3.13,-0.69 6.26,-1.78 8.46,-1.99" style="fill:none;fill-rule:nonzero;stroke:#000;stroke-width:2px;"/><path d="M8.5,138.5l124.85,-13.14" style="fill:none;fill-rule:nonzero;"/><path d="M139.32,124.73l-7.54,4.82l1.57,-4.19l-2.41,-3.77l8.38,3.14Z" style="fill:none;fill-rule:nonzero;"/><path d="M9.16,140.09c37.95,-7 77.21,-9.6 123.64,-14.48m-124.62,12.19c48.28,-5.21 97.24,-10.56 125.85,-11.87" style="fill:none;fill-rule:nonzero;stroke:#000;stroke-width:2px;"/><path d="M130.88,121.66m0,0m3.3,9.22c0.86,-2.46 3.06,-5.37 4.98,-7.02m-5.79,7.15c1.17,-1.32 2.85,-3 5.46,-6.18" style="fill:none;fill-rule:nonzero;stroke:#000;stroke-width:1px;"/><path d="M140.13,125.42c-3.97,0.39 -5.99,2.6 -8.73,4.03m8.12,-5.15c-2.68,2.41 -5.99,4.2 -7.5,5.08m-0.54,-0.09c0.99,-0.43 0.61,-1.51 1.72,-3.92m-1.56,4.02c0.48,-0.89 0.81,-1.72 1.73,-3.96m-0.16,-0.26c-0.74,-0.69 -1.54,-2.08 -2.1,-3.63m2.37,3.71c-1.06,-1.37 -1.88,-2.84 -2.68,-3.64m0.54,-0.5c2.43,1.36 4.54,1.73 8.34,3.16m-8.94,-2.24c2.93,0.18 4.78,0.85 8.66,2.67" style="fill:none;fill-rule:nonzero;stroke:#000;stroke-width:2px;"/><path d="M408.5,198.5l221.79,-19.29" style="fill:none;fill-rule:nonzero;"/><path d="M636.27,178.69l-7.62,4.68l1.64,-4.16l-2.33,-3.81l8.31,3.29Z" style="fill:none;fill-rule:nonzero;"/><path d="M407.07,199.15c53.01,-5.28 100.49,-10.04 223.11,-18.39m-222.44,16.98c74.9,-3.9 148.14,-10.07 223.28,-19.3" style="fill:none;fill-rule:nonzero;stroke:#000;stroke-width:2px;"/><path d="M628.25,175.07m0,0m2.46,10.07c2.47,-3.04 3.43,-5.6 4.92,-6.67m-5.03,5.98c1.55,-0.98 2.41,-3.51 4.71,-5.72" style="fill:none;fill-rule:nonzero;stroke:#000;stroke-width:1px;"/><path d="M636.65,178.39c-3.45,1.95 -5.71,4.25 -8.6,5.56m7.93,-5.12c-1.63,0.84 -4.23,2.18 -7.59,4.25m0.68,0.13c-0.14,-1.3 0.78,-2.18 0.91,-4.16m-1.42,4.24c0.61,-1.07 1.17,-2.06 1.79,-4.29m-0.14,-0.22c-0.76,-1.09 -0.82,-1.53 -2.42,-3.2m2.67,3.46c-0.54,-0.61 -1.05,-1.24 -2.34,-3.72m-0.05,0.36c3.34,1.09 4.92,1.17 8.95,3.13m-8.68,-3.02c2.65,0.79 5.48,1.72 8.1,2.98" style="fill:none;fill-rule:nonzero;stroke:#000;stroke-width:2px;"/><path d="M284.28,50.61l76.85,-38.43" style="fill:none;fill-rule:nonzero;"/><path d="M366.5,9.5l-5.37,7.16l0,-4.48l-3.57,-2.68l8.94,0Z" style="fill:none;fill-rule:nonzero;"/><path d="M284.3,50.53c25.69,-13.14 52.91,-24.79 77.13,-39.01m-76.59,40.02c20.57,-12.15 40.86,-21.92 75.32,-39.72" style="fill:none;fill-rule:nonzero;stroke:#000;stroke-width:2px;"/><path d="M357.32,9.78m0,0" style="fill:none;fill-rule:nonzero;stroke:#000;stroke-width:1px;"/><path d="M366.94,8.73c-2.5,2.47 -3.96,5.32 -5.31,7.49m4.87,-7.11c-1.36,1.79 -1.85,2.84 -5.17,7.23m-0.23,0.58c0.1,-1.84 0.36,-4.18 -0.38,-5m0.47,4.64c-0.05,-1.53 -0.27,-3.22 0,-4.59m0.2,0.16c-0.94,-0.14 -2.03,-1.44 -3.41,-2.96m3.11,3.01c-1.23,-0.81 -2.06,-1.5 -3.42,-2.74m-0.17,0.51c1.52,-1.12 4.2,-0.11 9.79,0.38m-9.31,-0.42c1.8,-0.47 3.23,-0.85 8.55,-0.77" style="fill:none;fill-rule:nonzero;stroke:#000;stroke-width:2px;"/><path d="M108.5,242.5l63.48,-48.97" style="fill:none;fill-rule:nonzero;"/><path d="M176.73,189.87l-3.89,8.05l-0.86,-4.39l-4.03,-1.94l8.78,-1.72Z" style="fill:none;fill-rule:nonzero;"/><path d="M110.2,241.58c16,-12.81 33.29,-26.09 62.51,-47.17m-64.21,48.83c14.83,-10.27 27.19,-21.63 62.68,-49.53" style="fill:none;fill-rule:nonzero;stroke:#000;stroke-width:2px;"/><path d="M168.25,191.25m0,0" style="fill:none;fill-rule:nonzero;stroke:#000;stroke-width:1px;"/><path d="M176.77,190.55c-1.46,0.83 -2.34,3.68 -4.6,8.1m4.22,-9.11c-0.82,1.83 -1.55,4.41 -3.28,8.62m-0.51,-0.47c-0.02,-1.92 -0.21,-3.26 -0.24,-4.08m0.3,4.5c-0.11,-1.63 -0.56,-2.89 -0.87,-4.4m0.28,-0.13c-1.82,-0.7 -2.26,-1.44 -3.86,-1.6m3.78,1.62c-1.38,-0.69 -2.77,-1.24 -3.89,-1.91m-0.11,-0.13c2.52,-1.01 5.92,-0.89 8.86,-2.18m-9.3,2.48c1.9,-0.64 3.87,-1.14 8.92,-1.66" style="fill:none;fill-rule:nonzero;stroke:#000;stroke-width:2px;"/></g></svg>