<?xml version="1.0" encoding="UTF-8" standalone="no"?><!DOCTYPE svg PUBLIC "-//W3C//DTD SVG 1.1//EN" "http://www.w3.org/Graphics/SVG/1.1/DTD/svg11.dtd"><svg width="100%" height="100%" viewBox="0 0 441 353" version="1.1" xmlns="http://www.w3.org/2000/svg" xmlns:xlink="http://www.w3.org/1999/xlink" xml:space="preserve" xmlns:serif="http://www.serif.com/" style="fill-rule:evenodd;clip-rule:evenodd;stroke-linejoin:round;stroke-miterlimit:2;"><g><path d="M200.5,10.5c0,-5.519 -4.481,-10 -10,-10l-180,0c-5.519,0 -10,4.481 -10,10l0,280c0,5.519 4.481,10 10,10l180,0c5.519,0 10,-4.481 10,-10l0,-280Z" style="fill:#de0000;"/><rect x="45.5" y="310.5" width="110" height="40" style="fill:none;"/><g><path d="M58.777,345.24c-0.078,0.193 -0.218,0.3 -0.421,0.319c-0.203,0.019 -0.469,-0.097 -0.798,-0.348c-0.232,-0.232 -0.381,-0.411 -0.449,-0.537c-0.068,-0.125 -0.034,-0.338 0.101,-0.638c0.136,-0.299 0.368,-0.826 0.696,-1.58c0.078,-0.464 0.213,-0.933 0.407,-1.407c0.193,-0.473 0.338,-0.807 0.434,-1c0.078,-0.271 0.237,-0.72 0.479,-1.349c0.242,-0.628 0.522,-1.329 0.841,-2.102c0.319,-0.773 0.623,-1.503 0.913,-2.19c0.291,-0.686 0.503,-1.203 0.639,-1.551c0.328,-0.773 0.666,-1.585 1.014,-2.436c0.348,-0.851 0.822,-1.924 1.421,-3.219c0.078,-0.193 0.121,-0.396 0.131,-0.609c0.01,-0.213 -0.15,-0.319 -0.479,-0.319c-0.193,-0.213 -0.299,-0.43 -0.319,-0.653c-0.019,-0.222 0.078,-0.381 0.29,-0.478l1.508,-0.609c0.909,-0.213 1.842,-0.276 2.799,-0.189c0.957,0.087 1.861,0.353 2.711,0.798c0.928,0.541 1.586,1.087 1.972,1.638c0.387,0.551 0.585,1.107 0.595,1.668c0.01,0.561 -0.092,1.112 -0.305,1.653c-0.154,0.406 -0.449,0.851 -0.884,1.334c-0.435,0.483 -0.938,0.967 -1.508,1.45c-0.57,0.483 -1.16,0.923 -1.769,1.319c-0.609,0.397 -1.174,0.701 -1.697,0.914c-0.483,0.232 -0.985,0.435 -1.507,0.609c-0.522,0.174 -1.064,0.348 -1.624,0.522c-0.31,0.077 -0.677,0.116 -1.102,0.116c-0.426,-0 -0.745,-0.039 -0.957,-0.116l-0.493,1.363c-0.194,0.696 -0.527,1.73 -1.001,3.103c-0.474,1.373 -1.02,2.881 -1.638,4.524Zm11.513,0.319c-0.155,0.058 -0.334,0.077 -0.537,0.058c-0.203,-0.019 -0.527,-0.174 -0.971,-0.464c-0.851,-0.503 -1.702,-1.112 -2.552,-1.827c-0.851,-0.715 -1.808,-1.682 -2.871,-2.9c-0.406,-0.483 -0.75,-0.928 -1.03,-1.334c-0.28,-0.406 -0.575,-0.976 -0.884,-1.711l-0.406,-1.566l0.783,-0.435l1.044,1.044c0.309,0.677 0.71,1.324 1.203,1.943c0.493,0.619 0.952,1.17 1.378,1.653c0.348,0.406 0.821,0.894 1.421,1.464c0.599,0.571 1.237,1.117 1.914,1.639c0.676,0.522 1.285,0.918 1.827,1.189c0.116,0.097 0.154,0.242 0.116,0.435c-0.039,0.193 -0.102,0.372 -0.189,0.536c-0.087,0.165 -0.169,0.257 -0.246,0.276Zm-7.482,-10.788c0.444,-0.039 0.966,-0.15 1.566,-0.334c0.599,-0.183 1.198,-0.401 1.797,-0.652c0.561,-0.271 1.156,-0.595 1.784,-0.972c0.628,-0.377 1.213,-0.797 1.754,-1.261c0.542,-0.464 0.982,-0.947 1.32,-1.45c0.338,-0.503 0.488,-1.005 0.45,-1.508c-0.001,-0.251 -0.097,-0.512 -0.291,-0.783c-0.193,-0.271 -0.425,-0.512 -0.696,-0.725c-0.27,-0.213 -0.531,-0.358 -0.783,-0.435c-0.773,-0.193 -1.411,-0.319 -1.913,-0.377c-0.503,-0.058 -0.89,-0.024 -1.161,0.101c-0.27,0.126 -0.454,0.382 -0.551,0.769c0,0.058 -0.077,0.251 -0.232,0.58c-0.154,0.329 -0.343,0.735 -0.565,1.218c-0.222,0.483 -0.44,0.996 -0.653,1.537c-0.56,1.141 -0.986,2.006 -1.276,2.595c-0.29,0.59 -0.473,1.001 -0.55,1.233c-0.078,0.232 -0.078,0.387 -0.001,0.464Z" style="fill-rule:nonzero;"/><path d="M78.004,342.485c-0.407,0.348 -0.875,0.551 -1.407,0.609c-0.532,0.058 -1.049,-0.024 -1.552,-0.246c-0.502,-0.223 -0.918,-0.566 -1.246,-1.03c-0.329,-0.425 -0.542,-0.914 -0.639,-1.465c-0.096,-0.551 -0.106,-1.271 -0.029,-2.16c0.058,-0.754 0.3,-1.513 0.725,-2.277c0.426,-0.763 0.943,-1.445 1.552,-2.044c0.609,-0.599 1.213,-1.015 1.812,-1.247c0.29,-0.193 0.537,-0.285 0.74,-0.276c0.203,0.01 0.517,0.034 0.942,0.073c0.445,0.058 0.779,0.145 1.001,0.261c0.222,0.116 0.401,0.271 0.536,0.464c0.29,0.29 0.484,0.575 0.58,0.855c0.097,0.281 0.145,0.556 0.145,0.827c-0.077,0.425 -0.362,0.942 -0.855,1.551c-0.493,0.609 -1.136,1.107 -1.928,1.494c-0.426,0.135 -0.89,0.193 -1.392,0.174c-0.503,-0.019 -0.919,-0.145 -1.248,-0.377c-0.367,-0.155 -0.609,-0.131 -0.725,0.072c-0.116,0.203 -0.222,0.692 -0.319,1.465c-0.077,0.735 -0.019,1.271 0.174,1.609c0.194,0.339 0.455,0.537 0.783,0.595c0.387,0.077 0.692,0.13 0.914,0.159c0.222,0.029 0.498,-0.053 0.826,-0.246c0.31,-0.193 0.503,-0.305 0.58,-0.334c0.078,-0.029 0.141,-0.067 0.189,-0.116c0.048,-0.048 0.169,-0.169 0.362,-0.362c0.136,-0.135 0.242,-0.237 0.32,-0.305c0.077,-0.067 0.164,-0.101 0.261,-0.101c0.096,0 0.183,0.043 0.261,0.13c0.077,0.087 0.154,0.15 0.232,0.189c0.193,-0 0.236,0.116 0.13,0.348c-0.106,0.232 -0.314,0.507 -0.623,0.826c-0.31,0.319 -0.677,0.614 -1.102,0.885Zm-0.029,-6.148c0.212,-0.097 0.435,-0.237 0.667,-0.421c0.232,-0.183 0.43,-0.386 0.594,-0.609c0.164,-0.222 0.247,-0.41 0.247,-0.565c-0,-0.271 -0.126,-0.498 -0.377,-0.682c-0.252,-0.183 -0.629,-0.207 -1.131,-0.072c-0.213,0.058 -0.455,0.198 -0.725,0.42c-0.271,0.223 -0.527,0.469 -0.769,0.74c-0.242,0.271 -0.435,0.512 -0.58,0.725c-0.145,0.213 -0.198,0.338 -0.159,0.377c0.058,0.097 0.222,0.169 0.493,0.217c0.27,0.049 0.575,0.063 0.913,0.044c0.338,-0.019 0.614,-0.077 0.827,-0.174Z" style="fill-rule:nonzero;"/><path d="M89.923,344.051c-0.252,0.058 -0.46,0.024 -0.624,-0.102c-0.164,-0.125 -0.285,-0.304 -0.363,-0.536c-0.154,-0.445 -0.265,-0.933 -0.333,-1.464c-0.068,-0.532 -0.082,-1.001 -0.044,-1.407l0.058,-0.609l-1.131,0.899c-0.657,0.58 -1.29,0.996 -1.899,1.247c-0.609,0.251 -1.146,0.377 -1.61,0.377c-0.212,-0.039 -0.425,-0.116 -0.638,-0.232c-0.212,-0.116 -0.401,-0.261 -0.565,-0.435c-0.164,-0.174 -0.295,-0.358 -0.392,-0.551c-0.116,-0.271 -0.149,-0.638 -0.101,-1.102c0.048,-0.464 0.164,-0.972 0.348,-1.523c0.184,-0.551 0.416,-1.092 0.696,-1.624c0.28,-0.531 0.604,-1 0.971,-1.406c0.638,-0.967 1.325,-1.556 2.059,-1.769c0.735,-0.213 1.46,-0.106 2.175,0.319c0.503,0.213 0.817,0.309 0.943,0.29c0.126,-0.019 0.237,-0.242 0.333,-0.667c0.078,-0.309 0.155,-0.624 0.232,-0.943c0.078,-0.319 0.203,-0.749 0.377,-1.29c0.484,-1.469 0.904,-2.62 1.262,-3.451c0.358,-0.831 0.681,-1.556 0.971,-2.175c0.213,-0.445 0.392,-0.72 0.537,-0.827c0.145,-0.106 0.295,-0.149 0.449,-0.13c0.213,-0 0.406,0.077 0.58,0.232c0.174,0.155 0.31,0.367 0.406,0.638c0.078,0.174 0.112,0.324 0.102,0.449c-0.01,0.126 -0.073,0.295 -0.189,0.508c-0.251,0.464 -0.546,1.078 -0.884,1.841c-0.338,0.764 -0.677,1.6 -1.015,2.509c-0.338,0.909 -0.653,1.808 -0.943,2.697c-0.29,0.889 -0.531,1.672 -0.725,2.349c-0.116,0.425 -0.217,0.967 -0.304,1.624c-0.087,0.657 -0.16,1.329 -0.218,2.015c-0.058,0.687 -0.091,1.296 -0.101,1.827c-0.01,0.532 0.005,0.875 0.043,1.03c0.116,0.387 0.17,0.677 0.16,0.87c-0.01,0.193 -0.063,0.324 -0.16,0.391c-0.096,0.068 -0.251,0.112 -0.464,0.131Zm-4.901,-3.219c0.271,-0.058 0.537,-0.164 0.798,-0.319c0.261,-0.155 0.536,-0.338 0.826,-0.551c0.58,-0.445 1.083,-0.851 1.508,-1.218c0.426,-0.367 0.706,-0.928 0.841,-1.682c0.039,-0.367 0.005,-0.662 -0.101,-0.885c-0.106,-0.222 -0.276,-0.43 -0.508,-0.623c-0.232,-0.155 -0.546,-0.218 -0.942,-0.189c-0.396,0.029 -0.807,0.237 -1.233,0.624c-0.464,0.425 -0.913,0.996 -1.348,1.711c-0.435,0.715 -0.759,1.595 -0.972,2.639c-0.038,0.193 0.02,0.348 0.174,0.464c0.155,0.116 0.474,0.126 0.957,0.029Z" style="fill-rule:nonzero;"/><path d="M107.236,344.544c-0.31,0.019 -0.735,0.019 -1.276,-0c-0.542,-0.019 -1.107,-0.111 -1.697,-0.276c-0.59,-0.164 -1.117,-0.454 -1.581,-0.869c-0.463,-0.416 -0.773,-1.011 -0.927,-1.784c-0.232,-1.083 -0.281,-2.262 -0.145,-3.538c0.135,-1.276 0.367,-2.533 0.695,-3.77c0.097,-0.348 0.281,-0.797 0.552,-1.348c0.27,-0.551 0.594,-1.146 0.971,-1.784c0.377,-0.638 0.769,-1.261 1.174,-1.87c0.406,-0.609 0.783,-1.136 1.131,-1.581c0.252,-0.29 0.551,-0.609 0.899,-0.957c0.348,-0.348 0.706,-0.681 1.073,-1c0.368,-0.319 0.706,-0.595 1.016,-0.827c0.309,-0.232 0.541,-0.377 0.695,-0.435c0.271,-0.155 0.513,-0.237 0.725,-0.246c0.213,-0.01 0.523,0.033 0.928,0.13c0.271,0.019 0.552,0.111 0.842,0.276c0.29,0.164 0.546,0.343 0.768,0.536c0.222,0.193 0.343,0.377 0.363,0.551c0.019,0.116 0.232,0.106 0.638,-0.029c0.135,-0.155 0.265,-0.251 0.391,-0.29c0.126,-0.039 0.237,-0.039 0.334,0c0.096,0.039 0.154,0.126 0.173,0.261c-0.116,0.174 -0.096,0.329 0.058,0.464c0.058,-0.019 0.068,0.073 0.029,0.276c-0.038,0.203 -0.106,0.439 -0.203,0.71c-0.096,0.271 -0.212,0.512 -0.348,0.725l-0.087,0.29c0.039,0.097 0.02,0.193 -0.058,0.29c-0.077,0.097 -0.144,0.184 -0.203,0.261c-0.057,0.097 -0.13,0.266 -0.217,0.507c-0.087,0.242 -0.169,0.513 -0.246,0.812c-0.078,0.3 -0.141,0.571 -0.189,0.812c-0.048,0.242 -0.073,0.411 -0.073,0.508c0.039,0.135 -0.019,0.208 -0.174,0.217c-0.154,0.01 -0.396,-0.043 -0.725,-0.159c-0.425,-0.155 -0.691,-0.358 -0.797,-0.609c-0.106,-0.251 -0.053,-0.744 0.159,-1.479c0.271,-0.889 0.426,-1.547 0.464,-1.972c0.039,-0.425 -0.077,-0.744 -0.348,-0.957c-0.096,-0.174 -0.309,-0.285 -0.638,-0.334c-0.328,-0.048 -0.599,-0.004 -0.812,0.131c-0.29,0.116 -0.686,0.43 -1.189,0.942c-0.502,0.513 -1.024,1.098 -1.566,1.755c-0.541,0.657 -1.024,1.286 -1.45,1.885c-0.889,1.237 -1.58,2.523 -2.073,3.857c-0.493,1.334 -0.778,2.62 -0.856,3.857c-0.077,1.237 0.049,2.359 0.377,3.364c0.039,0.077 0.155,0.242 0.348,0.493c0.194,0.251 0.348,0.416 0.464,0.493c0.619,0.135 1.489,0.145 2.61,0.029c0.832,-0.155 1.446,-0.387 1.842,-0.696c0.396,-0.309 0.778,-0.735 1.145,-1.276c0.213,-0.309 0.431,-0.512 0.653,-0.609c0.222,-0.097 0.416,-0.087 0.58,0.029c0.164,0.116 0.266,0.348 0.304,0.696c0,0.097 -0.082,0.295 -0.246,0.594c-0.164,0.3 -0.348,0.585 -0.551,0.856c-0.203,0.271 -0.363,0.425 -0.479,0.464c-0.077,0.019 -0.12,0.039 -0.13,0.058c-0.01,0.019 -0.005,0.077 0.014,0.174c0,0.077 -0.125,0.193 -0.377,0.348c-0.251,0.155 -0.555,0.314 -0.913,0.478c-0.358,0.165 -0.706,0.3 -1.044,0.406c-0.338,0.107 -0.604,0.16 -0.798,0.16Z" style="fill-rule:nonzero;"/><path d="M117.182,342.659c-0.154,0.039 -0.357,0.053 -0.609,0.043c-0.251,-0.009 -0.468,-0.038 -0.652,-0.087c-0.184,-0.048 -0.276,-0.101 -0.276,-0.159c0,-0.097 -0.048,-0.145 -0.145,-0.145c0,-0 -0.043,-0.039 -0.13,-0.116c-0.087,-0.077 -0.218,-0.155 -0.392,-0.232c-0.174,-0.271 -0.261,-0.566 -0.261,-0.885c0,-0.319 0.087,-0.826 0.261,-1.522c0.058,-0.483 0.247,-1.049 0.566,-1.697c0.319,-0.647 0.71,-1.309 1.174,-1.986c0.464,-0.677 0.953,-1.286 1.465,-1.827c0.512,-0.541 0.981,-0.938 1.406,-1.189c0.271,-0.271 0.6,-0.416 0.986,-0.435c0.387,-0.019 0.754,0.068 1.102,0.261c0.194,0.097 0.387,0.251 0.58,0.464c0.194,0.213 0.377,0.445 0.551,0.696c0.174,0.251 0.319,0.503 0.435,0.754c0.058,0.213 0.092,0.401 0.102,0.565c0.01,0.165 0.01,0.363 -0,0.595c-0.01,0.232 -0.044,0.58 -0.102,1.044c-0.096,0.348 -0.178,0.773 -0.246,1.276c-0.068,0.503 -0.102,0.938 -0.102,1.305c-0.038,0.367 0.005,0.628 0.131,0.783c0.126,0.155 0.314,0.164 0.565,0.029c0.232,-0.116 0.455,-0.169 0.667,-0.16c0.213,0.01 0.382,0.073 0.508,0.189c0.126,0.116 0.188,0.29 0.188,0.522c0,0.232 -0.111,0.469 -0.333,0.71c-0.222,0.242 -0.493,0.445 -0.812,0.609c-0.319,0.165 -0.624,0.247 -0.914,0.247c-0.212,-0 -0.415,-0.131 -0.609,-0.392c-0.193,-0.261 -0.362,-0.58 -0.507,-0.957c-0.145,-0.377 -0.276,-0.739 -0.392,-1.087l-0.174,-0.667l-1.247,1.189c-0.251,0.271 -0.497,0.517 -0.739,0.739c-0.242,0.223 -0.392,0.382 -0.45,0.479c-0.096,0.174 -0.275,0.348 -0.536,0.522c-0.261,0.174 -0.614,0.348 -1.059,0.522Zm0.087,-1.711c0.329,-0.193 0.706,-0.479 1.131,-0.856c0.426,-0.377 0.841,-0.792 1.247,-1.247c0.406,-0.454 0.745,-0.874 1.015,-1.261c0.329,-0.445 0.58,-0.86 0.754,-1.247c0.174,-0.387 0.3,-0.754 0.377,-1.102c-0.077,-0.213 -0.203,-0.44 -0.377,-0.682c-0.174,-0.241 -0.328,-0.372 -0.464,-0.391c-0.425,-0 -0.874,0.266 -1.348,0.797c-0.474,0.532 -0.933,1.107 -1.378,1.726c-0.077,0.097 -0.183,0.251 -0.319,0.464c-0.135,0.213 -0.265,0.411 -0.391,0.594c-0.126,0.184 -0.208,0.305 -0.247,0.363c-0.058,0.077 -0.169,0.295 -0.333,0.652c-0.164,0.358 -0.324,0.716 -0.479,1.073c-0.154,0.358 -0.232,0.595 -0.232,0.711c0,0.116 0.015,0.242 0.044,0.377c0.029,0.135 0.121,0.222 0.275,0.261c0.155,0.039 0.397,-0.039 0.725,-0.232Z" style="fill-rule:nonzero;"/><path d="M128.116,342.601c-0.059,0.019 -0.155,0.01 -0.291,-0.029c-0.135,-0.039 -0.27,-0.087 -0.406,-0.145c-0.135,-0.058 -0.222,-0.106 -0.261,-0.145c-0.077,-0.077 -0.149,-0.193 -0.217,-0.348c-0.068,-0.155 -0.073,-0.382 -0.015,-0.682c0.058,-0.299 0.252,-0.691 0.58,-1.174c0.097,-0.193 0.213,-0.483 0.348,-0.87c0.136,-0.387 0.276,-0.798 0.421,-1.233c0.145,-0.435 0.28,-0.826 0.406,-1.174c0.126,-0.348 0.218,-0.59 0.275,-0.725c0.039,-0.329 0.025,-0.566 -0.043,-0.711c-0.068,-0.144 -0.237,-0.227 -0.508,-0.246c-0.193,0 -0.343,-0.019 -0.449,-0.058c-0.106,-0.039 -0.16,-0.232 -0.16,-0.58c0.039,-0.271 0.112,-0.459 0.218,-0.566c0.106,-0.106 0.256,-0.227 0.45,-0.362c0.193,-0.097 0.391,-0.164 0.594,-0.203c0.203,-0.039 0.401,-0.048 0.595,-0.029c0.193,0.019 0.347,0.087 0.464,0.203c0.135,0.077 0.222,0.246 0.261,0.507c0.038,0.261 0.062,0.527 0.072,0.798c0.01,0.271 0.024,0.474 0.044,0.609c0.193,-0.155 0.459,-0.372 0.797,-0.653c0.338,-0.28 0.633,-0.546 0.885,-0.797c0.309,-0.213 0.676,-0.43 1.102,-0.652c0.425,-0.223 0.734,-0.334 0.928,-0.334c0.212,0 0.425,0.053 0.638,0.159c0.212,0.107 0.357,0.237 0.435,0.392c0.193,0.329 0.285,0.619 0.275,0.87c-0.01,0.251 -0.121,0.512 -0.333,0.783c-0.194,0.251 -0.431,0.425 -0.711,0.522c-0.28,0.097 -0.459,0.145 -0.536,0.145c-0.117,0 -0.261,-0.087 -0.435,-0.261c-0.174,-0.174 -0.271,-0.319 -0.29,-0.435c-0,-0.058 -0.121,-0.005 -0.363,0.16c-0.242,0.164 -0.507,0.367 -0.797,0.608c-0.291,0.242 -0.532,0.46 -0.726,0.653c-0.328,0.406 -0.676,0.957 -1.043,1.653c-0.368,0.696 -0.803,1.537 -1.305,2.523c-0.232,0.483 -0.397,0.894 -0.493,1.232c-0.097,0.339 -0.232,0.537 -0.406,0.595Z" style="fill-rule:nonzero;"/><path d="M143.254,343.413c-0.213,0.077 -0.363,0.101 -0.45,0.072c-0.087,-0.029 -0.295,-0.169 -0.623,-0.42c-0.136,-0.232 -0.218,-0.44 -0.247,-0.623c-0.029,-0.184 -0.043,-0.518 -0.043,-1.001c0.038,-0.29 0.12,-0.706 0.246,-1.247c0.126,-0.541 0.276,-1.112 0.45,-1.711c0.174,-0.599 0.333,-1.141 0.478,-1.624c0.145,-0.483 0.256,-0.812 0.334,-0.986c0.135,-0.464 0.164,-0.749 0.087,-0.856c-0.078,-0.106 -0.31,-0.178 -0.696,-0.217c-0.774,-0.097 -1.47,0.155 -2.088,0.754c-0.619,0.599 -1.238,1.382 -1.856,2.349c-0.464,0.715 -0.74,1.329 -0.827,1.841c-0.087,0.513 -0.101,0.866 -0.043,1.059c0.058,0.155 0.193,0.237 0.406,0.246c0.212,0.01 0.449,-0.033 0.71,-0.13c0.261,-0.097 0.488,-0.193 0.681,-0.29c0.136,-0.077 0.305,-0.16 0.508,-0.247c0.203,-0.087 0.401,-0.169 0.594,-0.246c0.116,0 0.199,0.034 0.247,0.101c0.048,0.068 0.072,0.199 0.072,0.392c0,0.077 0.029,0.145 0.087,0.203c0.058,0.058 0.126,0.106 0.203,0.145c0.078,0.077 -0.033,0.251 -0.333,0.522c-0.3,0.271 -0.759,0.58 -1.378,0.928c-0.58,0.135 -1.048,0.203 -1.406,0.203c-0.358,0 -0.701,-0.126 -1.03,-0.377c-0.541,-0.329 -0.845,-0.865 -0.913,-1.609c-0.068,-0.745 0.082,-1.658 0.45,-2.741c0.367,-0.87 0.773,-1.58 1.218,-2.131c0.444,-0.551 0.918,-1.088 1.421,-1.61c0.077,-0.077 0.256,-0.198 0.536,-0.362c0.28,-0.165 0.633,-0.315 1.059,-0.45c0.483,-0.155 0.937,-0.251 1.363,-0.29c0.425,-0.039 0.792,0.048 1.102,0.261c0.348,0.077 0.57,0.063 0.667,-0.043c0.096,-0.107 0.261,-0.45 0.493,-1.03c0.386,-0.967 0.763,-1.948 1.131,-2.943c0.367,-0.996 0.763,-2.006 1.189,-3.031c0.193,-0.367 0.314,-0.652 0.362,-0.855c0.048,-0.203 0.111,-0.344 0.189,-0.421l0.551,0c0.077,0 0.212,0.068 0.406,0.203c0.193,0.135 0.328,0.319 0.406,0.551c-0,0.174 -0.078,0.556 -0.232,1.146c-0.155,0.589 -0.406,1.29 -0.754,2.102c-0.31,0.715 -0.614,1.436 -0.914,2.161c-0.3,0.725 -0.585,1.493 -0.855,2.305c-0.213,0.599 -0.406,1.083 -0.58,1.45c-0.174,0.367 -0.29,0.686 -0.348,0.957c-0.116,0.503 -0.257,0.952 -0.421,1.349c-0.164,0.396 -0.275,0.671 -0.333,0.826c-0.252,0.735 -0.455,1.329 -0.609,1.784c-0.155,0.454 -0.271,0.831 -0.348,1.131c-0.078,0.299 -0.121,0.599 -0.131,0.899c-0.01,0.299 0.015,0.652 0.073,1.058c-0,0.077 -0.01,0.155 -0.029,0.232c-0.02,0.077 -0.097,0.164 -0.232,0.261Z" style="fill-rule:nonzero;"/></g><path d="M440.5,10.5c0,-5.519 -4.481,-10 -10,-10l-180,0c-5.519,0 -10,4.481 -10,10l0,280c0,5.519 4.481,10 10,10l180,0c5.519,0 10,-4.481 10,-10l0,-280Z" style="fill:#e3c800;"/><rect x="270.5" y="310.5" width="130" height="40" style="fill:none;"/><g><path d="M288.542,335.757l-1.015,-1.276c-0.387,-0.58 -0.696,-1.121 -0.928,-1.624c-0.232,-0.503 -0.396,-1.121 -0.493,-1.856c-0.135,-0.464 -0.222,-0.899 -0.261,-1.305c-0.039,-0.406 -0.053,-0.875 -0.044,-1.406c0.01,-0.532 0.025,-1.194 0.044,-1.987c0.019,-0.735 0.101,-1.266 0.246,-1.595c0.145,-0.329 0.257,-0.57 0.334,-0.725c0.193,-0.232 0.372,-0.261 0.536,-0.087c0.165,0.174 0.3,0.469 0.406,0.885c0.107,0.415 0.15,0.903 0.131,1.464c0.058,2.069 0.208,3.712 0.45,4.93c0.241,1.218 0.575,1.962 1,2.233c0.232,0.058 0.44,0.044 0.623,-0.043c0.184,-0.087 0.455,-0.319 0.813,-0.696c0.357,-0.377 0.894,-0.953 1.609,-1.726c0.522,-0.561 1.059,-1.16 1.61,-1.798c0.551,-0.638 1.073,-1.247 1.566,-1.827c0.493,-0.58 0.937,-1.078 1.334,-1.493c0.396,-0.416 0.71,-0.692 0.942,-0.827c0.077,-0.116 0.16,-0.203 0.247,-0.261c0.087,-0.058 0.169,-0.092 0.246,-0.101c0.077,-0.01 0.116,-0.015 0.116,-0.015c0.155,0.039 0.242,0.16 0.261,0.363c0.019,0.203 0.097,0.401 0.232,0.594c0.039,0.077 0.068,0.16 0.087,0.247c0.019,0.087 0.019,0.178 0,0.275c0,0.058 -0.039,0.131 -0.116,0.218c-0.077,0.087 -0.159,0.174 -0.246,0.261c-0.088,0.087 -0.179,0.178 -0.276,0.275c-0.251,0.213 -0.643,0.585 -1.175,1.117c-0.531,0.531 -1.077,1.102 -1.638,1.711c-0.561,0.609 -1.034,1.155 -1.421,1.638c-0.851,0.986 -1.61,1.837 -2.276,2.552c-0.668,0.715 -1.078,1.141 -1.233,1.276c-0.019,0.039 -0.155,0.174 -0.406,0.406c-0.251,0.232 -0.425,0.425 -0.522,0.58l-0.783,-0.377Zm-2.059,9.715c-0.077,-0.019 -0.193,-0.082 -0.348,-0.189c-0.155,-0.106 -0.329,-0.227 -0.522,-0.362c-0.135,-0.155 -0.217,-0.3 -0.246,-0.435c-0.029,-0.135 -0.005,-0.329 0.072,-0.58c0.077,-0.251 0.184,-0.638 0.319,-1.16c0.019,-0.445 0.111,-0.986 0.276,-1.624c0.164,-0.638 0.362,-1.17 0.594,-1.595c0,-0.213 0.048,-0.503 0.145,-0.87c0.097,-0.367 0.218,-0.749 0.363,-1.145c0.144,-0.397 0.275,-0.74 0.391,-1.03l0.522,-1.508l1.16,-0.986l0.812,0.899c-0.077,0.116 -0.145,0.251 -0.203,0.406c-0.058,0.155 -0.135,0.416 -0.232,0.783c-0.097,0.367 -0.242,0.938 -0.435,1.711l-1.015,3.364c-0.155,0.522 -0.29,0.947 -0.406,1.276c-0.232,0.87 -0.406,1.537 -0.522,2.001c-0.116,0.464 -0.218,0.768 -0.305,0.913c-0.087,0.145 -0.227,0.189 -0.42,0.131Z" style="fill-rule:nonzero;"/><path d="M299.852,342.485c-0.406,0.348 -0.875,0.551 -1.406,0.609c-0.532,0.058 -1.049,-0.024 -1.552,-0.246c-0.503,-0.223 -0.918,-0.566 -1.247,-1.03c-0.329,-0.425 -0.541,-0.914 -0.638,-1.465c-0.097,-0.551 -0.106,-1.271 -0.029,-2.16c0.058,-0.754 0.3,-1.513 0.725,-2.277c0.425,-0.763 0.942,-1.445 1.551,-2.044c0.609,-0.599 1.214,-1.015 1.813,-1.247c0.29,-0.193 0.536,-0.285 0.74,-0.276c0.202,0.01 0.517,0.034 0.942,0.073c0.445,0.058 0.778,0.145 1,0.261c0.223,0.116 0.402,0.271 0.537,0.464c0.29,0.29 0.483,0.575 0.58,0.855c0.097,0.281 0.145,0.556 0.145,0.827c-0.077,0.425 -0.362,0.942 -0.855,1.551c-0.493,0.609 -1.136,1.107 -1.929,1.494c-0.425,0.135 -0.889,0.193 -1.392,0.174c-0.503,-0.019 -0.918,-0.145 -1.247,-0.377c-0.367,-0.155 -0.609,-0.131 -0.725,0.072c-0.116,0.203 -0.222,0.692 -0.319,1.465c-0.077,0.735 -0.019,1.271 0.174,1.609c0.193,0.339 0.454,0.537 0.783,0.595c0.387,0.077 0.691,0.13 0.914,0.159c0.222,0.029 0.497,-0.053 0.826,-0.246c0.309,-0.193 0.503,-0.305 0.58,-0.334c0.077,-0.029 0.14,-0.067 0.189,-0.116c0.048,-0.048 0.169,-0.169 0.362,-0.362c0.135,-0.135 0.242,-0.237 0.319,-0.305c0.077,-0.067 0.164,-0.101 0.261,-0.101c0.097,0 0.184,0.043 0.261,0.13c0.077,0.087 0.155,0.15 0.232,0.189c0.193,-0 0.237,0.116 0.13,0.348c-0.106,0.232 -0.314,0.507 -0.623,0.826c-0.309,0.319 -0.677,0.614 -1.102,0.885Zm-0.029,-6.148c0.213,-0.097 0.435,-0.237 0.667,-0.421c0.232,-0.183 0.43,-0.386 0.594,-0.609c0.165,-0.222 0.247,-0.41 0.247,-0.565c-0,-0.271 -0.126,-0.498 -0.377,-0.682c-0.251,-0.183 -0.628,-0.207 -1.131,-0.072c-0.213,0.058 -0.454,0.198 -0.725,0.42c-0.271,0.223 -0.527,0.469 -0.769,0.74c-0.241,0.271 -0.435,0.512 -0.58,0.725c-0.145,0.213 -0.198,0.338 -0.159,0.377c0.058,0.097 0.222,0.169 0.493,0.217c0.271,0.049 0.575,0.063 0.913,0.044c0.339,-0.019 0.614,-0.077 0.827,-0.174Z" style="fill-rule:nonzero;"/><path d="M305.333,343.5c-0.367,0.097 -0.662,0.019 -0.885,-0.232c-0.222,-0.251 -0.352,-0.638 -0.391,-1.16c-0.039,-0.522 0.019,-1.141 0.174,-1.856c0.097,-0.232 0.174,-0.459 0.232,-0.681c0.058,-0.223 0.087,-0.402 0.087,-0.537c0.039,-0.193 0.116,-0.478 0.232,-0.856c0.116,-0.377 0.242,-0.768 0.377,-1.174c0.135,-0.406 0.266,-0.769 0.391,-1.088c0.126,-0.318 0.208,-0.517 0.247,-0.594c0.077,0 0.145,-0.068 0.203,-0.203c0.058,-0.135 0.087,-0.271 0.087,-0.406c-0,-0.155 0.034,-0.329 0.101,-0.522c0.068,-0.193 0.141,-0.329 0.218,-0.406c-0,-0.097 0.024,-0.208 0.072,-0.334c0.049,-0.125 0.073,-0.227 0.073,-0.304c-0,-0.077 0.024,-0.155 0.072,-0.232c0.049,-0.077 0.073,-0.155 0.073,-0.232c0.135,-0.251 0.314,-0.652 0.536,-1.204c0.223,-0.55 0.464,-1.164 0.725,-1.841c0.261,-0.677 0.508,-1.344 0.74,-2.001c0.232,-0.657 0.42,-1.213 0.565,-1.668c0.145,-0.454 0.218,-0.729 0.218,-0.826c-0,-0.155 0.039,-0.271 0.116,-0.348c0.077,-0.077 0.193,-0.116 0.348,-0.116c0.058,-0.058 0.13,-0.097 0.217,-0.116c0.087,-0.019 0.17,-0.029 0.247,-0.029l0.464,0.464c0.155,0.135 0.246,0.29 0.275,0.464c0.029,0.174 0.044,0.377 0.044,0.609c-0,0.251 -0.029,0.474 -0.087,0.667c-0.058,0.193 -0.174,0.474 -0.348,0.841c-0.174,0.367 -0.445,0.938 -0.812,1.711c-0.155,0.387 -0.319,0.749 -0.493,1.088c-0.174,0.338 -0.261,0.546 -0.261,0.623c0,0.077 -0.034,0.193 -0.101,0.348c-0.068,0.155 -0.141,0.348 -0.218,0.58c-0.077,0.155 -0.184,0.382 -0.319,0.682c-0.135,0.299 -0.275,0.618 -0.421,0.957c-0.144,0.338 -0.265,0.628 -0.362,0.87c-0.097,0.241 -0.145,0.381 -0.145,0.42c0,0.077 -0.005,0.155 -0.014,0.232c-0.01,0.077 -0.054,0.155 -0.131,0.232c-0.077,-0 -0.121,0.053 -0.13,0.159c-0.01,0.107 -0.015,0.16 -0.015,0.16c0,0.193 -0.155,0.706 -0.464,1.537c-0.309,1.063 -0.595,2.04 -0.856,2.929c-0.261,0.889 -0.391,1.605 -0.391,2.146c0,0.464 -0.01,0.768 -0.029,0.913c-0.019,0.145 -0.106,0.257 -0.261,0.334Z" style="fill-rule:nonzero;"/><path d="M309.828,342.137c-0.193,-0.116 -0.338,-0.232 -0.435,-0.348c-0.097,-0.116 -0.145,-0.28 -0.145,-0.493c-0,-0.29 0.039,-0.594 0.116,-0.913c0.077,-0.32 0.155,-0.634 0.232,-0.943c0.039,-0.348 0.092,-0.701 0.159,-1.058c0.068,-0.358 0.199,-0.692 0.392,-1.001c0.213,-0.735 0.435,-1.465 0.667,-2.19c0.232,-0.725 0.435,-1.474 0.609,-2.247c0.251,-0.715 0.478,-1.349 0.681,-1.9c0.204,-0.551 0.46,-1.251 0.769,-2.102c0.174,-0.483 0.324,-1.001 0.45,-1.552c0.125,-0.551 0.323,-1.048 0.594,-1.493c0.116,-0.174 0.208,-0.324 0.276,-0.45c0.067,-0.125 0.14,-0.246 0.217,-0.362c0.019,-0.077 0.082,-0.126 0.189,-0.145c0.106,-0.019 0.227,-0.01 0.362,0.029c0.135,0.039 0.242,0.106 0.319,0.203c0.058,-0.019 0.13,0.034 0.217,0.159c0.087,0.126 0.17,0.266 0.247,0.421c0.077,0.155 0.106,0.29 0.087,0.406c0,0.077 -0.014,0.184 -0.043,0.319c-0.029,0.135 -0.083,0.261 -0.16,0.377c-0.077,0.077 -0.15,0.188 -0.217,0.333c-0.068,0.145 -0.17,0.344 -0.305,0.595c-0.077,0.251 -0.145,0.507 -0.203,0.768c-0.058,0.261 -0.135,0.498 -0.232,0.711c-0.077,0.232 -0.169,0.454 -0.275,0.667c-0.107,0.213 -0.179,0.387 -0.218,0.522c-0.135,0.445 -0.295,0.88 -0.478,1.305c-0.184,0.425 -0.344,0.88 -0.479,1.363c-0.135,0.464 -0.271,0.942 -0.406,1.435c-0.135,0.493 -0.329,0.962 -0.58,1.407c-0.135,0.213 -0.232,0.483 -0.29,0.812c-0.058,0.329 -0.116,0.657 -0.174,0.986c-0.116,0.348 -0.218,0.672 -0.305,0.971c-0.087,0.3 -0.13,0.489 -0.13,0.566c-0.116,0.425 -0.198,0.846 -0.247,1.262c-0.048,0.415 -0.149,0.778 -0.304,1.087c-0.019,0.193 -0.058,0.348 -0.116,0.464c-0.058,0.116 -0.155,0.179 -0.29,0.188c-0.135,0.01 -0.319,-0.043 -0.551,-0.159Z" style="fill-rule:nonzero;"/><path d="M317.31,342.398c-0.406,0.077 -0.662,0.101 -0.769,0.072c-0.106,-0.029 -0.265,-0.14 -0.478,-0.333c-0.309,-0.155 -0.565,-0.348 -0.768,-0.58c-0.204,-0.232 -0.349,-0.478 -0.435,-0.74c-0.087,-0.26 -0.121,-0.478 -0.102,-0.652c0.058,-0.677 0.222,-1.402 0.493,-2.175c0.271,-0.773 0.599,-1.518 0.986,-2.233c0.387,-0.715 0.807,-1.329 1.262,-1.841c0.454,-0.513 0.894,-0.846 1.319,-1.001c0.387,-0.155 0.754,-0.213 1.102,-0.174c0.348,0.039 0.599,0.222 0.754,0.551c0.29,0.561 0.222,0.918 -0.203,1.073c-0.058,0 -0.126,0.024 -0.203,0.072c-0.077,0.049 -0.116,0.112 -0.116,0.189c0.077,0.039 0.29,0.043 0.638,0.014c0.348,-0.029 0.701,-0.087 1.058,-0.174c0.358,-0.087 0.595,-0.178 0.711,-0.275c0.116,-0.058 0.203,-0.087 0.261,-0.087c0.058,-0 0.203,0.019 0.435,0.058c0.329,0.097 0.493,0.213 0.493,0.348c-0,0.077 0.029,0.15 0.087,0.217c0.058,0.068 0.126,0.102 0.203,0.102c0.135,0.019 0.121,0.106 -0.044,0.261c-0.164,0.155 -0.439,0.367 -0.826,0.638c-0.367,0.232 -0.595,0.382 -0.682,0.449c-0.087,0.068 -0.101,0.208 -0.043,0.421c0.155,0.367 0.164,0.793 0.029,1.276c-0.135,0.483 -0.377,0.976 -0.725,1.479c-0.348,0.503 -0.769,0.971 -1.262,1.406c-0.493,0.435 -1.014,0.803 -1.565,1.102c-0.552,0.3 -1.088,0.479 -1.61,0.537Zm-0.493,-1.276c0.077,0 0.213,-0.043 0.406,-0.131c0.193,-0.087 0.348,-0.159 0.464,-0.217c0.077,-0.077 0.179,-0.169 0.305,-0.276c0.125,-0.106 0.227,-0.169 0.304,-0.188c0.077,-0 0.174,-0.034 0.29,-0.102c0.116,-0.067 0.28,-0.212 0.493,-0.435c0.213,-0.222 0.493,-0.555 0.841,-1c0.387,-0.425 0.686,-0.817 0.899,-1.175c0.213,-0.357 0.271,-0.691 0.174,-1c-0.019,-0.077 -0.072,-0.126 -0.159,-0.145c-0.087,-0.019 -0.199,-0.068 -0.334,-0.145c-0.193,-0 -0.372,-0.053 -0.536,-0.16c-0.165,-0.106 -0.353,-0.246 -0.566,-0.42l-0.464,-0.58l-0.493,0.493c-0.309,0.309 -0.633,0.768 -0.972,1.377c-0.338,0.609 -0.623,1.228 -0.855,1.856c-0.232,0.629 -0.367,1.127 -0.406,1.494c-0.019,0.29 0.029,0.483 0.145,0.58c0.116,0.097 0.271,0.155 0.464,0.174Z" style="fill-rule:nonzero;"/><path d="M332.912,342.659c-0.155,0.019 -0.358,-0.068 -0.609,-0.261c-0.251,-0.193 -0.493,-0.416 -0.725,-0.667c-0.174,-0.271 -0.314,-0.715 -0.421,-1.334c-0.106,-0.619 -0.178,-1.257 -0.217,-1.914c-0.561,0.851 -1.063,1.547 -1.508,2.088c-0.445,0.541 -0.846,0.962 -1.204,1.261c-0.357,0.3 -0.691,0.498 -1,0.595c-0.174,0.058 -0.319,0.053 -0.435,-0.015c-0.116,-0.067 -0.213,-0.169 -0.29,-0.304c-0.077,-0.135 -0.16,-0.353 -0.247,-0.653c-0.087,-0.299 -0.12,-0.613 -0.101,-0.942c-0.039,-0.406 -0.073,-0.87 -0.102,-1.392c-0.029,-0.522 -0.048,-1.039 -0.058,-1.552c-0.009,-0.512 -0.004,-0.971 0.015,-1.377c0.019,-0.406 0.058,-0.677 0.116,-0.812c-0.019,-0.077 -0.029,-0.155 -0.029,-0.232l-0,-0.116c-0.058,-0.097 -0.082,-0.314 -0.073,-0.653c0.01,-0.338 0.044,-0.671 0.102,-1c0.058,-0.329 0.106,-0.532 0.145,-0.609c0.039,-0.077 0.092,-0.135 0.159,-0.174c0.068,-0.039 0.15,-0.068 0.247,-0.087c0.29,0.058 0.445,0.174 0.464,0.348c0.058,0.039 0.116,0.092 0.174,0.159c0.058,0.068 0.126,0.092 0.203,0.073c0.058,0.039 0.101,0.213 0.13,0.522c0.029,0.309 0.044,0.667 0.044,1.073c-0.019,0.193 -0.019,0.377 0,0.551c0.019,0.174 0.01,0.329 -0.029,0.464c0,0.097 0.01,0.304 0.029,0.623c0.019,0.32 0.039,0.643 0.058,0.972c0,0.251 -0.01,0.585 -0.029,1.001c-0.019,0.415 -0.029,0.758 -0.029,1.029c0.058,0.387 0.111,0.633 0.16,0.74c0.048,0.106 0.13,0.12 0.246,0.043c0.116,-0.039 0.324,-0.29 0.624,-0.754c0.299,-0.464 0.652,-1.044 1.058,-1.74c0.309,-0.464 0.575,-0.865 0.798,-1.203c0.222,-0.339 0.41,-0.605 0.565,-0.798c0.058,-0.464 0.121,-0.88 0.188,-1.247c0.068,-0.367 0.112,-0.628 0.131,-0.783c0.271,-0.271 0.512,-0.43 0.725,-0.478c0.213,-0.049 0.387,0.062 0.522,0.333c0.193,0.077 0.314,0.198 0.363,0.363c0.048,0.164 0.053,0.352 0.014,0.565l-0.435,1.566c-0.077,0.271 -0.13,0.706 -0.159,1.305c-0.029,0.599 -0.034,1.194 -0.015,1.784c0.019,0.589 0.068,1.029 0.145,1.319c0.019,0.174 0.121,0.256 0.305,0.247c0.183,-0.01 0.42,-0.141 0.71,-0.392c0.29,-0.309 0.614,-0.701 0.972,-1.174c0.357,-0.474 0.667,-0.914 0.928,-1.32c0.261,-0.406 0.391,-0.657 0.391,-0.754c0,-0.155 0.039,-0.324 0.116,-0.507c0.077,-0.184 0.174,-0.324 0.29,-0.421c0.097,-0.116 0.155,-0.237 0.174,-0.362c0.019,-0.126 0.058,-0.257 0.116,-0.392c0.019,-0.039 0.048,-0.097 0.087,-0.174c0.039,-0.077 0.068,-0.155 0.087,-0.232c-0.058,-0.135 -0.014,-0.256 0.131,-0.362c0.145,-0.107 0.236,-0.218 0.275,-0.334c0.039,-0.251 0.15,-0.401 0.334,-0.449c0.183,-0.049 0.367,-0.01 0.551,0.116c0.183,0.125 0.285,0.314 0.304,0.565c0,0.232 -0.072,0.57 -0.217,1.015c-0.145,0.445 -0.339,0.918 -0.58,1.421c-0.242,0.503 -0.508,0.957 -0.798,1.363c-0.077,0.155 -0.15,0.309 -0.217,0.464c-0.068,0.155 -0.179,0.358 -0.334,0.609c-0.155,0.251 -0.425,0.619 -0.812,1.102c-0.116,0.155 -0.246,0.314 -0.391,0.479c-0.145,0.164 -0.295,0.314 -0.45,0.449c-0.329,0.425 -0.623,0.754 -0.884,0.986c-0.261,0.232 -0.527,0.358 -0.798,0.377Z" style="fill-rule:nonzero;"/><path d="M349.819,345.124c-0.29,-0.116 -0.585,-0.242 -0.885,-0.377c-0.299,-0.135 -0.58,-0.334 -0.841,-0.595c-0.261,-0.261 -0.488,-0.623 -0.681,-1.087c-0.193,-0.561 -0.324,-1.112 -0.392,-1.653c-0.067,-0.541 -0.091,-1.17 -0.072,-1.885c-0,-1.005 0.072,-1.88 0.217,-2.625c0.145,-0.744 0.373,-1.503 0.682,-2.276c0.039,-0.058 0.111,-0.227 0.217,-0.507c0.107,-0.281 0.232,-0.585 0.377,-0.914c0.145,-0.329 0.257,-0.58 0.334,-0.754c0.155,-0.329 0.391,-0.768 0.71,-1.319c0.32,-0.551 0.663,-1.088 1.03,-1.61c0.561,-0.831 1.025,-1.489 1.392,-1.972c0.367,-0.483 0.715,-0.889 1.044,-1.218c0.329,-0.329 0.701,-0.643 1.117,-0.942c0.415,-0.3 0.952,-0.672 1.609,-1.117c0.425,-0.309 0.894,-0.474 1.407,-0.493c0.512,-0.019 0.99,0.092 1.435,0.334c0.445,0.241 0.773,0.594 0.986,1.058c0.213,0.406 0.319,0.894 0.319,1.465c0,0.57 -0.087,1.169 -0.261,1.798c-0.174,0.628 -0.416,1.222 -0.725,1.783c-0.309,0.561 -0.667,1.025 -1.073,1.392c-0.251,0.232 -0.478,0.319 -0.681,0.261c-0.203,-0.058 -0.44,-0.213 -0.711,-0.464c-0.174,-0.329 -0.266,-0.522 -0.275,-0.58c-0.01,-0.058 0.024,-0.097 0.101,-0.116c0.116,-0.135 0.271,-0.367 0.464,-0.696c0.193,-0.329 0.387,-0.681 0.58,-1.058c0.193,-0.377 0.329,-0.682 0.406,-0.914c0.155,-0.812 0.261,-1.387 0.319,-1.725c0.058,-0.339 0,-0.595 -0.174,-0.769c-0.077,-0.077 -0.188,-0.106 -0.333,-0.087c-0.145,0.019 -0.382,0.116 -0.711,0.29c-0.445,0.193 -1.025,0.624 -1.74,1.291c-0.715,0.667 -1.373,1.406 -1.972,2.218c-0.773,1.025 -1.421,1.933 -1.943,2.726c-0.522,0.793 -0.918,1.605 -1.189,2.436c-0.039,0.077 -0.101,0.222 -0.188,0.435c-0.087,0.213 -0.131,0.319 -0.131,0.319c0.019,0.077 -0.01,0.266 -0.087,0.566c-0.077,0.299 -0.164,0.555 -0.261,0.768c-0.213,0.889 -0.338,1.813 -0.377,2.77c-0.039,0.957 0.015,1.802 0.16,2.537c0.144,0.735 0.362,1.247 0.652,1.537c0.251,0.174 0.595,0.232 1.03,0.174c0.435,-0.058 0.932,-0.193 1.493,-0.406c0.561,-0.213 1.131,-0.445 1.711,-0.696c0.464,-0.193 0.889,-0.406 1.276,-0.638c0.387,-0.232 0.677,-0.435 0.87,-0.609c0.155,-0.116 0.353,-0.237 0.595,-0.362c0.241,-0.126 0.449,-0.189 0.623,-0.189c0.271,-0.097 0.425,-0.135 0.464,-0.116c0.039,0.019 0.058,0.106 0.058,0.261c0,0.271 -0.15,0.57 -0.45,0.899c-0.299,0.329 -0.681,0.628 -1.145,0.899c-0.155,0.155 -0.358,0.319 -0.609,0.493c-0.251,0.174 -0.512,0.309 -0.783,0.406c-0.406,0.309 -0.909,0.609 -1.508,0.899c-0.599,0.29 -1.204,0.512 -1.813,0.667c-0.609,0.155 -1.164,0.184 -1.667,0.087Z" style="fill-rule:nonzero;"/><path d="M361.999,342.543c-0.232,0.039 -0.483,0 -0.754,-0.116c-0.271,-0.116 -0.507,-0.28 -0.711,-0.493c-0.202,-0.213 -0.333,-0.435 -0.391,-0.667c-0.077,-0.406 -0.024,-0.914 0.16,-1.523c0.183,-0.609 0.454,-1.256 0.811,-1.943c0.358,-0.686 0.764,-1.348 1.219,-1.986c0.454,-0.638 0.928,-1.194 1.421,-1.668c0.493,-0.473 0.952,-0.797 1.377,-0.971c0.213,-0.135 0.382,-0.227 0.507,-0.276c0.126,-0.048 0.262,-0.053 0.406,-0.014c0.146,0.039 0.363,0.135 0.653,0.29c0.271,0.077 0.474,0.164 0.609,0.261c0.135,0.097 0.309,0.29 0.522,0.58c0.155,0.29 0.271,0.58 0.348,0.87c0.077,0.29 0.145,0.619 0.203,0.986c0.155,0.483 0.213,0.797 0.174,0.942c-0.039,0.145 -0.097,0.257 -0.174,0.334c-0.155,0.193 -0.193,0.29 -0.116,0.29c0,-0 -0.005,0.034 -0.014,0.101c-0.01,0.068 -0.054,0.17 -0.131,0.305c-0.135,0.425 -0.237,0.865 -0.305,1.319c-0.067,0.455 -0.062,0.827 0.015,1.117c0.155,0.425 0.435,0.677 0.841,0.754c0.406,0.077 0.822,-0.097 1.247,-0.522c0.213,-0.155 0.416,-0.295 0.609,-0.421c0.193,-0.125 0.29,-0.111 0.29,0.044c0,-0 0.029,0.024 0.087,0.072c0.058,0.049 0.126,0.073 0.203,0.073c0.097,-0 0.16,0.039 0.189,0.116c0.029,0.077 0.029,0.179 -0,0.304c-0.029,0.126 -0.092,0.266 -0.189,0.421c-0.29,0.29 -0.435,0.483 -0.435,0.58c0,-0 -0.034,0.034 -0.101,0.101c-0.068,0.068 -0.179,0.17 -0.334,0.305c-0.348,0.213 -0.788,0.319 -1.319,0.319c-0.532,-0 -0.943,-0.106 -1.233,-0.319c-0.29,-0.213 -0.556,-0.503 -0.797,-0.87c-0.242,-0.367 -0.402,-0.686 -0.479,-0.957l-0.145,-0.29l-0.841,0.551c-0.213,0.213 -0.44,0.416 -0.681,0.609c-0.242,0.193 -0.402,0.329 -0.479,0.406c-0.058,0.077 -0.121,0.145 -0.188,0.203c-0.068,0.058 -0.141,0.087 -0.218,0.087l-0.29,0c0,0.077 -0.092,0.174 -0.275,0.29c-0.184,0.116 -0.397,0.213 -0.638,0.29c-0.242,0.077 -0.46,0.116 -0.653,0.116Zm-0.29,-1.566c0.116,-0 0.324,-0.092 0.624,-0.276c0.299,-0.183 0.638,-0.401 1.014,-0.652c0.377,-0.251 0.716,-0.503 1.016,-0.754c0.299,-0.251 0.507,-0.445 0.623,-0.58l0.841,-0.87c0.445,-0.503 0.754,-1.059 0.928,-1.668c0.174,-0.609 0.155,-1.087 -0.058,-1.435c-0.077,-0.213 -0.174,-0.329 -0.29,-0.348c-0.116,-0.019 -0.358,0.048 -0.725,0.203c-0.232,0.135 -0.517,0.392 -0.855,0.769c-0.339,0.377 -0.696,0.812 -1.073,1.305c-0.377,0.493 -0.73,1 -1.059,1.522c-0.329,0.522 -0.599,1.005 -0.812,1.45c-0.213,0.445 -0.319,0.793 -0.319,1.044c0,0.077 0.024,0.145 0.073,0.203c0.048,0.058 0.072,0.087 0.072,0.087Z" style="fill-rule:nonzero;"/><path d="M372.642,342.485c-0.174,-0.135 -0.295,-0.271 -0.363,-0.406c-0.067,-0.135 -0.072,-0.396 -0.014,-0.783c0.058,-0.541 0.135,-1.02 0.232,-1.435c0.097,-0.416 0.213,-0.895 0.348,-1.436c0.039,-0.232 0.15,-0.628 0.333,-1.189c0.184,-0.561 0.411,-1.17 0.682,-1.827c0.271,-0.657 0.541,-1.281 0.812,-1.87c0.271,-0.59 0.503,-1.03 0.696,-1.32c0.155,-0.116 0.343,-0.164 0.565,-0.145c0.223,0.019 0.411,0.106 0.566,0.261c0.213,0.174 0.246,0.478 0.101,0.913c-0.145,0.435 -0.439,1.117 -0.884,2.045c-0.232,0.522 -0.406,0.913 -0.522,1.174c-0.116,0.261 -0.164,0.416 -0.145,0.464c0.019,0.049 0.106,0.025 0.261,-0.072c0.116,-0.213 0.329,-0.459 0.638,-0.74c0.309,-0.28 0.638,-0.555 0.986,-0.826c0.348,-0.271 0.677,-0.512 0.986,-0.725c0.309,-0.213 0.522,-0.348 0.638,-0.406c0.155,-0.097 0.333,-0.179 0.536,-0.246c0.203,-0.068 0.344,-0.121 0.421,-0.16c0.445,-0.213 0.899,-0.29 1.363,-0.232c0.464,0.058 0.754,0.232 0.87,0.522c0.019,0.155 0.082,0.271 0.188,0.348c0.107,0.077 0.16,0.116 0.16,0.116c0.077,0 0.121,0.029 0.13,0.087c0.01,0.058 0.015,0.087 0.015,0.087c-0,0.135 -0.102,0.218 -0.305,0.247c-0.203,0.029 -0.459,0.053 -0.768,0.072c-0.251,0.019 -0.474,0.068 -0.667,0.145c-0.193,0.077 -0.425,0.174 -0.696,0.29c-0.735,0.425 -1.436,0.841 -2.103,1.247c-0.667,0.406 -1.309,0.947 -1.928,1.624c-0.135,0.155 -0.271,0.338 -0.406,0.551c-0.135,0.213 -0.28,0.445 -0.435,0.696c-0.097,0.097 -0.193,0.309 -0.29,0.638c-0.097,0.329 -0.179,0.643 -0.247,0.943c-0.067,0.299 -0.101,0.478 -0.101,0.536c-0,0 -0.029,0.092 -0.087,0.276c-0.058,0.183 -0.155,0.362 -0.29,0.536c-0.232,0.309 -0.425,0.464 -0.58,0.464c-0.155,0 -0.387,-0.155 -0.696,-0.464Z" style="fill-rule:nonzero;"/><path d="M389.955,343.21c-0.077,0 -0.189,-0.014 -0.334,-0.043c-0.144,-0.029 -0.265,-0.112 -0.362,-0.247c-0.29,-0.348 -0.474,-0.638 -0.551,-0.87c-0.077,-0.232 -0.087,-0.57 -0.029,-1.015c0.039,-0.29 0.063,-0.546 0.072,-0.768c0.01,-0.223 0.025,-0.411 0.044,-0.566c-0.077,-0.077 -0.217,-0.024 -0.421,0.159c-0.202,0.184 -0.478,0.411 -0.826,0.682c-0.657,0.754 -1.242,1.329 -1.754,1.725c-0.513,0.397 -0.972,0.658 -1.378,0.783c-0.406,0.126 -0.793,0.17 -1.16,0.131c-0.329,-0.039 -0.59,-0.179 -0.783,-0.421c-0.193,-0.241 -0.314,-0.555 -0.362,-0.942c-0.049,-0.387 -0.054,-0.802 -0.015,-1.247c0.077,-0.638 0.218,-1.247 0.421,-1.827c0.203,-0.58 0.536,-1.228 1,-1.943c0.213,-0.387 0.498,-0.769 0.856,-1.146c0.357,-0.377 0.754,-0.715 1.189,-1.015c0.435,-0.299 0.855,-0.517 1.261,-0.652c0.445,-0.174 0.899,-0.276 1.363,-0.305c0.464,-0.029 0.88,0.015 1.247,0.131c0.232,0.116 0.421,0.174 0.566,0.174c0.145,0 0.256,-0.097 0.333,-0.29c0.097,-0.155 0.193,-0.391 0.29,-0.71c0.097,-0.32 0.213,-0.595 0.348,-0.827l0.638,-1.885c0.213,-0.522 0.445,-1.073 0.696,-1.653c0.251,-0.58 0.551,-1.286 0.899,-2.117c0.329,-0.619 0.599,-0.981 0.812,-1.087c0.213,-0.107 0.454,-0.025 0.725,0.246c0.213,0.251 0.29,0.537 0.232,0.856c-0.058,0.319 -0.232,0.826 -0.522,1.522c-0.135,0.213 -0.251,0.411 -0.348,0.595c-0.097,0.183 -0.232,0.468 -0.406,0.855c-0.251,0.599 -0.483,1.136 -0.696,1.61c-0.213,0.473 -0.435,1.01 -0.667,1.609c-0.077,0.309 -0.179,0.667 -0.305,1.073c-0.125,0.406 -0.227,0.773 -0.304,1.102c-0.058,0.309 -0.121,0.595 -0.189,0.856c-0.067,0.261 -0.14,0.391 -0.217,0.391c-0.155,0.174 -0.3,0.479 -0.435,0.914c-0.135,0.435 -0.247,0.884 -0.334,1.348c-0.087,0.464 -0.159,0.851 -0.217,1.16c-0.039,0.232 -0.068,0.532 -0.087,0.899c-0.019,0.367 -0.029,0.72 -0.029,1.059l-0,0.71c-0,0.425 -0.01,0.696 -0.029,0.812c-0.019,0.116 -0.097,0.174 -0.232,0.174Zm-6.177,-1.827c0.406,0 0.836,-0.174 1.29,-0.522c0.455,-0.348 0.914,-0.735 1.378,-1.16c0.29,-0.271 0.604,-0.628 0.942,-1.073c0.339,-0.445 0.667,-0.889 0.986,-1.334c0.319,-0.445 0.576,-0.836 0.769,-1.174c0.193,-0.339 0.29,-0.547 0.29,-0.624c-0,-0.097 -0.087,-0.164 -0.261,-0.203c-0.174,-0.039 -0.372,-0.063 -0.595,-0.072c-0.222,-0.01 -0.401,0.004 -0.536,0.043c-0.425,0.097 -0.846,0.29 -1.262,0.58c-0.415,0.29 -0.865,0.725 -1.348,1.305c-0.503,0.619 -0.913,1.257 -1.233,1.914c-0.319,0.657 -0.517,1.208 -0.594,1.653c-0.077,0.445 -0.019,0.667 0.174,0.667Z" style="fill-rule:nonzero;"/></g></g></svg>