<?xml version="1.0" standalone="no"?>
<!DOCTYPE svg PUBLIC "-//W3C//DTD SVG 20010904//EN"
 "http://www.w3.org/TR/2001/REC-SVG-20010904/DTD/svg10.dtd">
<svg version="1.0" xmlns="http://www.w3.org/2000/svg"
 width="1080.000000pt" height="1080.000000pt" viewBox="0 0 1080.000000 1080.000000"
 preserveAspectRatio="xMidYMid meet">
<metadata>
Created by potrace 1.11, written by Peter Selinger 2001-2013
</metadata>
<g transform="translate(0.000000,1080.000000) scale(0.100000,-0.100000)"
fill="#000000" stroke="none">
<path d="M0 5400 l0 -5400 2038 1 c1120 1 2027 4 2014 8 l-24 6 25 22 c14 12
28 19 31 16 3 -4 6 1 6 10 0 10 7 17 16 17 11 0 15 6 11 20 -4 17 -2 18 15 9
15 -8 19 -8 14 0 -4 6 -1 11 7 11 7 0 19 11 25 24 9 19 8 27 -4 37 -12 10 -12
14 -2 20 7 5 20 6 29 4 21 -7 45 20 28 31 -8 4 -9 3 -5 -4 9 -14 -3 -15 -24
-2 -17 10 -12 18 16 23 10 2 30 9 43 16 l24 13 -32 15 c-17 9 -31 22 -31 30 0
8 5 11 11 7 8 -4 9 3 5 22 -7 32 7 64 18 45 9 -14 43 -14 52 1 5 7 2 9 -7 4
-8 -4 -5 0 5 8 15 12 22 13 27 4 4 -7 5 -16 3 -20 -9 -14 20 -8 41 8 19 14 19
15 -5 12 -31 -4 -35 25 -5 31 27 5 36 22 22 40 -10 12 -9 12 10 1 12 -8 19
-18 17 -22 -3 -4 -2 -13 2 -20 5 -8 10 -6 14 8 4 10 3 25 -2 32 -7 8 1 7 26
-3 36 -15 36 -15 32 8 -3 19 0 23 17 23 12 -1 25 -5 29 -11 4 -5 8 3 8 19 0
20 4 27 14 23 10 -4 12 0 9 14 -3 11 0 19 6 19 7 0 10 -4 6 -9 -9 -15 16 -24
28 -11 9 10 9 11 0 6 -9 -5 -11 -2 -7 9 4 11 10 13 16 7 7 -7 17 -3 29 9 24
24 24 30 2 23 -16 -5 -15 -3 1 10 18 14 21 14 40 -2 10 -9 16 -11 12 -4 -4 6
-2 12 3 12 6 0 11 9 11 19 0 11 5 23 11 27 8 5 7 9 -1 14 -8 5 -3 7 13 7 32
-2 35 -12 8 -20 -14 -3 -18 -11 -14 -26 3 -11 9 -18 14 -15 5 3 7 9 4 14 -3 5
0 12 7 17 7 4 21 18 31 30 19 21 19 22 -5 17 -12 -2 -5 3 17 11 22 9 43 22 48
30 4 9 12 13 17 10 5 -3 11 -1 15 5 4 6 10 8 15 5 5 -3 15 3 21 13 7 12 19 17
31 14 13 -3 18 1 18 15 0 21 54 73 76 73 8 0 14 9 14 19 0 16 23 35 34 28 1
-1 11 5 21 13 19 16 52 15 72 -1 7 -6 13 -6 17 -1 3 5 17 7 30 5 17 -4 23 -10
19 -21 -5 -10 -2 -14 8 -11 15 5 61 -36 51 -45 -3 -3 0 -6 5 -6 6 0 14 6 17
13 3 6 4 0 1 -15 -3 -16 -1 -28 5 -28 5 0 10 4 10 9 0 6 12 6 30 0 16 -6 28
-16 27 -22 -1 -7 6 -11 16 -9 12 2 20 -4 24 -17 5 -22 65 -55 100 -55 12 0 19
-4 17 -8 -6 -10 21 -39 29 -31 10 9 32 -20 35 -46 2 -17 -6 -32 -24 -47 -14
-13 -23 -28 -19 -33 4 -8 -2 -8 -21 -1 -18 7 -30 7 -39 0 -7 -6 -20 -8 -29 -4
-9 3 -23 1 -30 -5 -11 -9 -15 -9 -19 1 -4 10 -7 10 -15 -1 -6 -8 -12 -9 -16
-3 -7 11 -56 9 -75 -3 -14 -8 -33 13 -27 30 2 6 -7 10 -20 10 -13 0 -24 -3
-24 -7 0 -4 -11 -2 -25 4 -14 6 -25 15 -25 19 0 5 -7 6 -15 3 -11 -5 -13 -2
-8 12 5 13 3 16 -10 11 -10 -4 -17 -2 -17 5 0 7 -5 6 -15 -2 -18 -15 -20 1 -2
19 10 10 7 10 -14 1 -17 -8 -29 -23 -33 -41 -6 -32 -26 -38 -46 -14 -7 8 -18
15 -24 15 -6 0 -4 -5 4 -10 12 -8 11 -10 -7 -10 -12 0 -24 6 -26 13 -3 7 -6 4
-6 -6 -1 -17 -2 -17 -17 -3 -8 9 -20 16 -25 16 -6 0 -7 5 -4 10 5 8 12 7 23
-2 14 -11 15 -10 9 6 -5 12 -3 22 5 27 7 4 9 11 5 16 -5 4 -20 -8 -34 -26 -25
-31 -27 -32 -40 -15 -10 14 -13 14 -14 3 -3 -31 -5 -36 -21 -53 -10 -10 -18
-22 -18 -28 0 -6 9 1 21 16 11 14 29 31 39 36 15 8 19 7 17 -9 0 -10 -8 -18
-17 -17 -8 1 -14 -4 -13 -10 1 -6 -9 -17 -22 -24 -26 -14 -44 -55 -20 -46 9 3
12 0 8 -10 -3 -7 -10 -14 -15 -14 -6 0 -8 -8 -5 -19 3 -14 0 -17 -13 -14 -10
3 -21 -1 -25 -8 -5 -8 -4 -10 3 -5 14 9 15 -4 2 -24 -6 -10 -10 -11 -10 -2 0
6 -10 12 -22 12 -19 0 -20 -2 -8 -10 15 -9 12 -11 -20 -14 -8 -1 -14 -8 -12
-15 4 -19 -46 -58 -70 -53 -4 1 -5 -7 -3 -18 4 -18 -6 -25 -29 -21 -5 1 -6 -7
-3 -18 3 -13 1 -18 -8 -15 -7 3 -16 -4 -20 -15 -3 -12 -10 -19 -15 -16 -4 2
-13 -9 -20 -25 -7 -17 -20 -35 -29 -40 -13 -8 -14 -9 -1 -10 10 0 8 -5 -7 -13
-12 -7 -22 -16 -21 -21 0 -5 -6 -12 -13 -17 -9 -5 -4 -17 18 -42 17 -20 33
-33 36 -30 3 2 14 0 25 -6 11 -6 23 -7 27 -3 7 7 45 13 80 11 45 -2 55 -4 55
-10 0 -4 14 -4 30 1 17 5 30 5 30 0 0 -4 26 -5 58 -2 31 3 100 6 152 6 52 1
98 5 102 10 4 6 27 10 52 10 25 1 46 5 46 9 0 5 7 6 16 3 8 -3 24 -2 34 4 10
5 32 11 49 12 17 1 31 6 31 11 0 5 11 7 25 5 13 -3 22 -2 20 2 -3 5 12 8 33 8
56 0 189 11 265 22 38 6 73 7 79 4 7 -4 8 -2 4 5 -6 8 -1 10 17 6 15 -4 38 0
57 10 18 9 29 12 25 5 -5 -9 -2 -10 11 -3 11 5 49 8 86 8 37 -1 65 2 62 6 -2
4 3 10 12 13 10 4 13 2 8 -6 -5 -8 -2 -9 12 -3 10 4 27 8 37 9 9 0 17 4 17 9
0 5 7 4 15 -3 8 -7 22 -10 30 -6 19 7 19 2 -1 -35 -9 -18 -21 -29 -29 -25 -13
5 -29 -20 -21 -33 3 -4 -4 -14 -16 -22 -11 -8 -33 -23 -47 -35 -14 -12 -33
-24 -41 -27 -8 -3 607 -6 1368 -6 1359 -1 1383 -1 1372 18 -5 11 -13 21 -17
23 -5 1 -27 28 -50 58 -23 30 -56 70 -72 89 -17 18 -31 37 -31 41 0 4 -9 10
-20 13 -11 3 -20 12 -20 21 0 8 -28 44 -62 79 -35 35 -79 83 -98 106 -19 24
-39 47 -45 52 -5 5 -22 20 -37 34 -16 13 -28 29 -28 35 0 6 -4 9 -8 6 -11 -6
-53 40 -45 48 4 3 1 6 -6 6 -11 0 -63 45 -157 138 -18 17 -37 32 -42 32 -5 0
-24 16 -43 35 -19 19 -38 35 -44 35 -5 0 -39 28 -75 61 -36 33 -85 73 -110 90
-68 44 -76 50 -161 112 -43 32 -79 55 -79 51 0 -3 -18 8 -39 25 -21 17 -44 31
-50 31 -7 0 -23 10 -36 23 -34 31 -48 42 -65 50 -8 4 -28 16 -45 27 -16 11
-46 28 -66 39 -19 11 -41 27 -48 35 -8 9 -18 16 -23 16 -5 0 -17 8 -28 18 -10
9 -36 26 -57 37 -21 11 -48 28 -60 39 -11 10 -25 18 -30 18 -4 0 -15 5 -23 12
-8 7 -36 25 -62 39 -26 15 -54 35 -64 45 -10 9 -21 18 -26 18 -4 1 -12 2 -18
3 -5 0 -6 8 -3 18 4 11 3 14 -5 9 -7 -4 -12 -2 -12 4 0 6 -4 8 -10 5 -5 -3
-10 -1 -10 5 0 6 -5 8 -10 5 -6 -3 -13 1 -16 9 -3 9 -12 16 -19 16 -7 0 -18 7
-25 15 -7 8 -16 13 -20 10 -4 -3 -22 8 -39 24 -17 16 -31 27 -31 25 0 -1 -12
8 -26 21 -15 14 -30 22 -35 20 -4 -3 -14 3 -21 13 -16 22 -102 82 -118 82 -6
0 -9 4 -6 9 3 5 -9 9 -28 9 -38 0 -56 8 -56 23 0 6 5 7 11 3 8 -5 10 1 6 18
-5 18 -1 28 15 39 41 28 51 41 37 50 -7 4 -16 6 -20 3 -4 -2 -11 1 -15 7 -5 8
4 10 30 7 26 -3 35 -1 32 8 -5 13 62 30 101 26 12 -1 24 2 28 8 5 8 11 7 21
-1 11 -9 14 -8 14 5 0 20 9 20 35 -1 15 -12 16 -14 3 -10 -12 4 -15 2 -12 -8
8 -21 37 -28 46 -11 11 19 74 40 96 31 15 -5 14 -9 -8 -25 -29 -23 -46 -25
-54 -7 -3 6 -3 2 -1 -10 3 -12 1 -24 -4 -27 -12 -8 -3 -36 10 -36 10 0 25 -11
64 -47 13 -12 35 -25 49 -29 14 -3 26 -10 26 -14 0 -4 16 -15 35 -24 19 -9 35
-20 35 -24 0 -4 15 -16 33 -27 17 -10 34 -21 37 -24 5 -6 24 -17 75 -45 11 -6
22 -13 25 -16 14 -14 130 -90 138 -90 5 0 28 -18 52 -40 23 -22 52 -42 64 -46
12 -3 33 -18 49 -32 15 -14 27 -22 27 -18 0 10 63 -34 73 -51 4 -7 17 -13 27
-13 11 0 20 -4 20 -10 0 -5 5 -10 11 -10 7 0 34 -16 60 -35 27 -19 54 -35 59
-35 6 0 10 -4 10 -10 0 -5 6 -10 13 -10 6 0 23 -12 36 -25 13 -14 29 -25 37
-25 8 0 14 -4 14 -10 0 -5 5 -10 11 -10 6 0 26 -12 45 -26 19 -15 34 -24 34
-21 0 3 18 -11 41 -31 22 -20 55 -44 72 -52 17 -8 37 -26 44 -40 7 -14 13 -20
13 -13 0 6 9 9 21 6 15 -4 17 -8 8 -13 -8 -6 3 -19 34 -41 26 -18 47 -37 47
-42 0 -4 4 -6 8 -3 5 3 30 -18 56 -45 37 -39 54 -50 71 -47 13 3 34 -1 46 -8
13 -7 19 -13 12 -14 -13 0 14 -80 28 -80 4 0 21 -11 38 -26 16 -14 34 -25 38
-25 4 0 7 -8 7 -18 -1 -13 4 -17 12 -14 8 3 14 -1 14 -11 0 -25 29 -19 80 18
26 18 57 37 71 41 28 9 129 110 129 130 0 7 5 15 11 17 12 4 20 78 8 78 -5 0
-9 -4 -9 -9 0 -5 -8 -12 -17 -14 -17 -4 -17 -5 0 -6 10 0 16 -5 13 -10 -6 -8
-21 -6 -78 15 -10 4 -18 10 -18 15 0 5 -9 9 -19 9 -24 0 -61 -45 -61 -74 0
-11 -12 -32 -25 -45 -29 -27 -47 -21 -22 7 10 10 17 26 17 34 0 21 24 76 50
113 11 17 20 43 20 59 0 22 4 27 16 22 13 -5 15 -2 11 15 -3 11 -3 18 0 15 3
-3 19 6 35 19 30 25 72 33 83 16 3 -5 -8 -19 -25 -31 -16 -12 -30 -27 -30 -35
0 -7 -7 -21 -16 -29 -8 -9 -12 -16 -9 -16 12 0 65 34 65 42 0 4 8 8 18 8 10 0
23 8 31 18 10 14 24 18 56 16 54 -3 87 5 82 20 -2 6 13 24 33 41 35 30 40 36
40 55 0 5 14 25 31 45 25 28 28 35 14 35 -14 0 -15 3 -5 15 9 10 9 15 1 15 -6
0 -11 -5 -11 -11 0 -6 -7 -8 -15 -5 -8 3 -22 9 -30 12 -11 4 -15 -1 -16 -17 0
-15 -3 -19 -6 -9 -4 8 -16 22 -27 32 l-21 17 21 -5 c27 -7 43 25 19 38 -8 5
-15 14 -15 21 0 9 2 9 8 -1 9 -13 52 -25 52 -14 0 4 -5 14 -10 22 -7 11 -10
11 -10 2 0 -10 -3 -10 -14 0 -12 11 -12 14 1 22 10 5 18 4 22 -3 4 -7 16 -9
27 -6 18 6 18 6 1 -5 -9 -6 -15 -16 -11 -22 4 -6 9 -5 15 3 6 10 8 7 6 -8 0
-12 -5 -19 -11 -16 -5 4 -7 -1 -2 -12 5 -15 4 -16 -9 -5 -18 15 -34 5 -18 -11
12 -12 69 -3 78 12 4 5 -2 6 -11 2 -12 -4 -15 -2 -12 8 3 8 12 14 19 13 8 -1
15 7 15 17 0 17 -2 17 -18 2 -17 -15 -18 -14 -18 10 0 20 4 25 16 20 12 -4 15
-2 12 8 -3 8 -11 13 -17 11 -6 -1 -11 3 -11 9 0 6 -7 8 -15 5 -8 -3 -23 -9
-32 -13 -12 -5 -10 1 7 18 22 23 26 24 37 10 6 -9 15 -13 19 -9 4 4 1 14 -6
23 -7 9 -10 18 -6 22 3 3 6 1 6 -6 0 -7 4 -10 9 -7 5 4 11 0 14 -6 4 -10 7
-10 17 -1 11 10 9 14 -10 21 -40 15 -4 25 104 29 149 6 137 0 234 112 83 95
344 371 417 441 132 125 131 124 204 125 58 0 149 -7 246 -19 47 -6 152 -15
245 -21 141 -10 183 -14 220 -25 19 -5 50 -10 67 -10 l33 0 0 4275 0 4275
-5400 0 -5400 0 0 -5400z m8625 2748 c14 -6 25 -17 25 -24 0 -16 44 -64 59
-64 6 0 11 -8 11 -17 1 -10 14 -29 30 -43 17 -13 30 -31 30 -40 0 -13 1 -13
10 0 7 11 8 6 5 -15 -2 -17 -4 -35 -4 -42 -1 -14 -30 -31 -58 -36 -10 -1 -24
-6 -30 -10 -7 -5 -17 -5 -23 -2 -5 3 -10 2 -10 -4 0 -6 -7 -8 -15 -5 -9 4 -15
0 -15 -10 0 -9 -4 -16 -10 -16 -5 0 -9 6 -7 13 1 6 -7 12 -18 12 -11 0 -26 4
-34 9 -10 6 -12 6 -7 -2 4 -7 2 -12 -3 -12 -6 0 -11 5 -11 10 0 6 -4 10 -9 10
-6 0 -8 -10 -6 -22 4 -21 3 -21 -9 -6 -7 10 -16 15 -19 11 -4 -3 -7 1 -7 10 0
10 -7 17 -15 17 -8 0 -15 -5 -15 -11 0 -5 5 -7 11 -3 7 4 10 2 8 -5 -8 -24
-24 -15 -27 15 -2 18 3 38 12 47 8 8 12 17 9 21 -4 3 4 6 16 6 12 0 19 4 16
10 -3 6 -1 10 5 10 18 0 40 27 55 67 7 21 14 31 15 23 1 -8 7 1 13 20 11 30
10 37 -3 47 -12 10 -11 11 10 7 l25 -6 -25 21 c-28 23 -23 27 15 9z m-3015
-318 c0 -5 -7 -10 -15 -10 -8 0 -15 5 -15 10 0 6 7 10 15 10 8 0 15 -4 15 -10z
m-794 -121 c-26 -17 -50 -28 -52 -26 -8 7 26 37 42 37 8 0 14 5 14 10 0 6 10
10 23 10 17 0 12 -7 -27 -31z m1039 -108 c-14 -14 -17 -14 -25 -1 -12 20 -4
29 21 23 19 -5 19 -7 4 -22z m-2811 -76 c-4 -8 -11 -15 -16 -15 -6 0 -5 6 2
15 7 8 14 15 16 15 2 0 1 -7 -2 -15z m1180 -100 c-4 -9 -17 -15 -33 -14 -17 1
-20 3 -8 6 9 2 15 9 12 14 -4 5 3 9 14 9 14 0 19 -5 15 -15z m1221 -85 c3 -5
16 -10 28 -10 17 0 19 -2 8 -9 -12 -8 -12 -13 -3 -24 10 -12 9 -16 -3 -21 -10
-4 -14 -2 -9 5 4 7 1 10 -7 7 -8 -3 -13 -11 -11 -17 1 -6 -8 -11 -21 -11 -12
0 -49 -20 -82 -45 -33 -25 -63 -45 -67 -45 -5 0 -8 -6 -8 -12 0 -7 -14 -21
-30 -30 -17 -9 -30 -23 -30 -30 0 -7 -11 -22 -25 -32 -24 -18 -32 -66 -11 -66
18 0 -18 -28 -56 -43 l-36 -15 4 26 c6 29 39 111 66 160 10 18 18 41 18 51 0
9 7 38 15 63 17 49 53 73 125 83 19 3 51 9 70 14 48 12 58 13 65 1z m160 -85
c-14 -25 -30 -45 -35 -45 -19 0 -20 20 0 40 11 11 20 23 20 26 0 3 8 16 18 29
29 39 27 0 -3 -50z m-54 -69 c-7 -8 -21 -12 -32 -9 -16 5 -18 8 -7 14 7 5 21
9 32 9 15 0 16 -3 7 -14z m-118 -216 c-18 -17 -57 -45 -87 -63 -31 -19 -54
-36 -51 -38 2 -3 -21 -13 -53 -23 -31 -10 -81 -29 -110 -42 -63 -29 -73 -30
-66 -6 4 12 3 13 -3 4 -5 -7 -18 -14 -29 -17 -10 -2 -29 -7 -41 -11 -26 -7
-33 13 -8 22 8 4 13 10 10 14 -8 13 16 26 84 44 36 9 112 39 169 66 57 28 120
54 140 60 21 5 44 14 52 19 28 19 24 0 -7 -29z m3797 -106 c0 -8 -5 -12 -10
-9 -6 4 -8 11 -5 16 9 14 15 11 15 -7z m-30 -8 c0 -3 -4 -8 -10 -11 -5 -3 -10
-1 -10 4 0 6 5 11 10 11 6 0 10 -2 10 -4z m-4460 -64 c3 -2 -6 -1 -20 3 -14 4
-34 16 -45 28 -18 18 -16 18 20 -3 22 -13 42 -26 45 -28z m4457 18 c-2 -11 -7
-23 -12 -27 -4 -5 -5 -3 -1 4 3 6 1 15 -5 19 -8 4 -7 9 2 15 19 12 19 12 16
-11z m-2897 -15 c36 -4 87 -16 113 -26 27 -11 53 -16 59 -13 7 5 8 2 3 -6 -6
-10 -3 -12 13 -8 12 4 22 3 22 -1 0 -8 44 -12 142 -13 26 -1 46 -4 44 -7 -2
-3 10 -6 27 -5 17 0 47 -3 67 -7 19 -4 62 -10 95 -12 77 -7 113 -15 149 -33
16 -8 34 -14 40 -14 13 0 126 -107 126 -119 0 -11 70 -54 87 -54 7 0 10 -4 7
-9 -3 -4 8 -11 25 -14 16 -3 42 -19 57 -35 15 -15 31 -26 36 -23 4 3 8 0 8 -5
0 -6 5 -11 10 -11 18 0 59 -44 57 -60 -4 -25 -35 -63 -46 -56 -7 4 -8 1 -5 -8
4 -11 0 -16 -10 -16 -9 0 -21 -11 -26 -25 -6 -15 -15 -23 -24 -19 -8 3 -17 1
-21 -5 -3 -6 2 -11 12 -11 14 -1 13 -3 -6 -14 -14 -8 -31 -12 -38 -9 -9 4 -11
0 -6 -13 5 -14 3 -16 -13 -10 -15 6 -17 5 -6 -5 6 -7 12 -20 12 -28 -1 -13 -2
-13 -11 2 -5 9 -15 17 -20 17 -6 0 -7 -6 -2 -12 12 -21 12 -36 -2 -42 -9 -3
-11 2 -8 15 4 14 0 19 -16 19 -11 0 -21 -5 -21 -12 0 -6 -9 -3 -20 7 -20 18
-21 18 -38 0 -12 -13 -13 -15 -2 -9 13 7 13 5 1 -9 -11 -13 -17 -14 -35 -5
-18 10 -19 9 -9 -3 10 -12 8 -15 -6 -15 -12 0 -17 6 -14 17 3 9 -3 19 -11 22
-9 4 -16 2 -16 -3 0 -6 5 -10 12 -10 9 0 9 -3 0 -12 -9 -9 -16 -7 -32 7 -18
17 -20 17 -20 1 0 -9 -4 -15 -9 -11 -5 3 -13 0 -16 -6 -4 -5 -13 -8 -21 -5
-13 5 -19 -6 -15 -27 1 -5 -3 -6 -9 -2 -5 3 -10 1 -10 -5 0 -6 -5 -8 -10 -5
-6 4 -10 3 -9 -2 4 -22 -3 -33 -18 -33 -15 0 -16 -2 -4 -9 12 -8 9 -11 -12
-16 -15 -4 -24 -11 -21 -16 3 -5 -1 -9 -8 -10 -10 0 -10 -2 0 -6 6 -2 10 -9 7
-13 -3 -5 -12 -7 -20 -4 -8 3 -19 -4 -25 -18 -10 -19 -10 -21 1 -10 7 6 18 12
23 12 6 0 0 -8 -14 -17 -28 -20 -70 -26 -70 -11 0 7 -4 7 -12 0 -7 -5 -23 -8
-35 -6 -13 2 -23 -1 -23 -7 0 -5 5 -7 10 -4 6 3 10 2 10 -3 0 -5 -21 -9 -47
-8 -46 1 -48 0 -48 -27 1 -18 -3 -26 -12 -23 -7 3 -13 -1 -13 -8 0 -18 -36
-49 -49 -42 -5 4 -12 -3 -16 -14 -7 -21 -20 -26 -29 -11 -4 5 0 11 6 14 7 2 0
4 -15 4 -20 0 -25 -3 -18 -10 14 -14 14 -30 1 -22 -5 3 -10 -1 -10 -9 0 -9 -4
-16 -10 -16 -5 0 -10 -5 -10 -11 0 -5 4 -8 8 -5 4 2 8 -4 8 -14 0 -10 -4 -16
-8 -14 -4 3 -8 0 -8 -5 0 -6 6 -11 13 -12 10 0 10 -2 0 -6 -18 -7 -16 -32 2
-39 13 -5 12 -10 -5 -34 -11 -15 -17 -29 -15 -32 3 -2 -16 -17 -40 -33 -47
-29 -58 -42 -27 -31 14 5 14 3 -2 -9 -33 -25 -5 -38 106 -47 171 -14 169 -13
208 -60 54 -66 99 -108 191 -175 167 -123 304 -265 403 -418 52 -81 176 -305
176 -320 0 -6 4 -15 9 -21 12 -11 111 -205 111 -216 0 -4 14 -38 31 -75 29
-63 72 -157 104 -228 7 -16 25 -55 39 -86 14 -31 26 -60 26 -66 0 -5 9 -27 19
-50 11 -22 30 -69 42 -104 12 -35 26 -69 31 -76 15 -18 76 -188 74 -204 -1 -3
6 -21 15 -40 22 -45 101 -279 102 -301 1 -10 4 -18 8 -18 3 0 14 -28 24 -62
10 -35 24 -83 32 -107 8 -24 11 -51 9 -58 -3 -8 -2 -11 4 -8 8 5 17 -27 23
-85 1 -14 7 -31 14 -37 12 -13 7 -49 -9 -70 -10 -12 -56 -12 -76 1 -17 10 -55
-33 -49 -55 3 -12 -2 -25 -16 -34 -11 -8 -22 -13 -24 -11 -4 3 39 89 55 110
14 18 12 57 -3 63 -12 4 -12 9 0 33 8 16 15 39 15 52 -1 21 -2 22 -14 6 -18
-24 -24 -23 -23 5 0 12 -4 31 -8 42 -9 19 -8 19 9 2 22 -21 35 -15 16 8 -11
13 -10 15 6 9 18 -5 18 -5 0 10 -15 12 -16 16 -5 16 9 1 5 9 -12 24 -20 17
-24 27 -17 40 5 9 8 27 6 39 -1 12 2 28 6 36 7 10 5 12 -3 7 -8 -5 -12 -3 -10
5 1 8 1 23 0 34 -1 18 -4 16 -25 -10 -13 -16 -22 -34 -20 -40 7 -16 -50 -78
-73 -80 -18 -1 -20 1 -10 22 11 25 33 32 23 7 -3 -8 -2 -12 3 -9 5 3 8 23 6
45 -3 28 0 38 7 34 7 -5 9 -1 5 9 -3 9 -1 18 6 21 7 2 4 5 -7 5 -12 1 -16 6
-12 16 4 13 2 13 -14 5 -32 -17 -46 -11 -20 10 14 11 20 20 13 20 -12 0 -12
37 1 58 4 7 2 12 -6 12 -24 0 -38 21 -27 42 12 22 6 23 -15 2 -9 -8 -16 -12
-16 -7 0 14 14 28 40 41 25 12 25 12 1 6 -19 -5 -23 -3 -18 10 4 10 -1 20 -13
26 -11 6 -20 16 -20 22 0 7 5 6 15 -2 8 -7 15 -8 15 -4 0 5 -8 14 -18 21 -15
9 -21 8 -29 -6 -5 -9 -9 -24 -7 -33 1 -13 -5 -18 -21 -18 -27 0 -36 17 -22 44
7 14 6 22 -5 30 -15 11 -21 49 -7 40 4 -2 10 0 14 6 3 5 3 10 -2 10 -4 0 -9
16 -10 35 -2 21 2 35 9 35 6 0 4 8 -6 19 -13 15 -14 20 -4 24 7 2 9 8 5 13 -5
5 -15 0 -24 -11 -15 -20 -15 -20 -8 3 4 13 2 22 -4 22 -6 0 -11 -3 -12 -7 0
-5 -2 -18 -3 -30 -2 -14 3 -23 11 -23 18 0 17 -19 -2 -26 -18 -7 -20 -31 -3
-36 8 -3 5 -14 -9 -34 -16 -23 -41 -88 -47 -124 -3 -14 -18 -30 -26 -25 -5 3
-11 1 -14 -4 -4 -5 -2 -12 4 -16 6 -4 8 -11 5 -16 -4 -5 -1 -9 4 -9 6 0 11 4
11 9 0 12 29 41 41 41 5 0 -5 -16 -22 -35 -26 -28 -35 -32 -50 -24 -11 5 -19
14 -19 20 0 6 5 7 10 4 7 -4 9 2 5 18 -4 14 -2 28 4 31 7 5 7 15 0 33 -7 18
-6 30 1 37 7 7 10 6 10 -4 0 -7 3 -10 6 -7 4 4 1 13 -5 21 -9 11 -10 20 -2 35
6 11 7 22 3 25 -13 8 -7 46 8 56 10 6 8 11 -8 19 -18 10 -20 15 -11 37 6 19 6
31 -2 40 -6 8 -9 20 -6 28 3 7 0 19 -6 25 -8 8 -7 11 6 11 14 0 15 4 7 26 -6
14 -7 30 -4 35 3 6 -2 19 -12 30 -9 10 -14 19 -10 19 4 0 0 10 -8 21 -12 17
-12 25 -3 41 10 15 9 21 -3 28 -13 8 -12 10 3 10 14 0 17 5 12 20 -4 12 -2 20
5 20 8 0 9 15 4 48 -4 26 -7 55 -6 65 0 9 -5 17 -11 17 -7 0 -6 4 3 10 12 8
10 10 -10 11 l-25 0 23 11 c12 6 22 15 22 20 0 12 -14 10 -29 -4 -11 -11 -13
-10 -7 5 4 13 2 17 -6 15 -7 -3 -14 -14 -16 -26 -2 -12 -7 -22 -12 -22 -5 0
-7 7 -4 15 4 10 0 15 -11 15 -15 0 -14 -5 6 -37 16 -26 19 -35 8 -31 -11 4
-15 -2 -14 -26 0 -24 -4 -31 -20 -31 -11 0 -25 -3 -31 -7 -7 -5 -14 -2 -17 5
-3 8 7 21 23 31 18 10 27 22 23 31 -3 8 0 15 7 15 9 0 8 6 -3 18 -10 10 -14
22 -11 25 10 10 -17 38 -29 30 -6 -3 -7 -1 -3 6 4 6 12 9 17 6 15 -10 10 7 -8
28 -10 11 -12 17 -5 13 7 -4 12 -1 12 9 0 9 4 14 9 10 5 -3 3 8 -5 25 -9 16
-13 33 -11 37 6 10 -19 34 -26 26 -3 -3 -10 -2 -16 2 -7 4 -7 10 2 19 6 8 16
11 21 8 5 -3 6 0 2 7 -5 7 -15 10 -23 7 -11 -4 -13 -2 -10 9 4 8 2 17 -3 20
-6 4 -10 11 -10 16 0 6 4 8 9 5 5 -3 11 3 14 15 3 12 0 22 -9 26 -9 3 -11 10
-6 17 15 19 22 46 12 46 -5 0 -19 -14 -31 -31 -22 -31 -22 -32 -4 -45 18 -13
18 -14 -2 -14 -11 0 -36 -3 -54 -7 -31 -6 -33 -5 -20 11 9 10 22 14 35 11 15
-5 17 -4 7 3 -7 5 -10 15 -7 21 4 6 1 11 -7 11 -8 0 -17 -7 -21 -15 -3 -8 -11
-12 -19 -9 -10 3 -14 -4 -14 -28 0 -18 4 -36 10 -39 5 -4 6 -13 1 -20 -14 -24
-11 -51 8 -62 10 -7 18 -18 18 -25 0 -8 -5 -10 -12 -6 -7 5 -9 2 -6 -7 3 -8 9
-25 13 -39 8 -24 7 -24 -18 -7 -15 9 -33 17 -42 17 -19 0 -19 14 0 30 10 9 15
9 15 1 0 -6 5 -11 11 -11 7 0 5 10 -5 25 -9 14 -14 30 -11 35 14 23 12 47 -6
58 -13 8 -19 9 -19 1 0 -5 -5 -7 -10 -4 -6 4 -8 16 -4 28 6 21 6 21 -13 4 -11
-9 -28 -17 -37 -17 -13 0 -16 -5 -12 -17 4 -9 1 -20 -5 -24 -6 -4 -8 -12 -4
-19 6 -9 9 -9 16 1 7 11 9 10 9 -3 0 -9 3 -24 7 -34 5 -13 3 -15 -7 -9 -10 6
-12 3 -8 -13 7 -25 -8 -40 -24 -24 -12 12 -20 55 -19 100 1 30 -1 33 -21 27
-19 -6 -21 -5 -10 6 15 17 16 53 0 43 -7 -4 -8 -3 -4 4 4 7 18 9 32 6 16 -4
24 -2 25 7 0 8 4 5 9 -6 7 -19 9 -18 19 8 6 15 13 27 17 27 3 0 4 -7 0 -15 -3
-9 0 -15 8 -15 8 0 21 -3 30 -6 9 -3 16 -1 16 5 0 6 -6 11 -14 11 -24 0 -30
21 -8 27 13 3 18 11 15 19 -7 19 -23 18 -23 -1 0 -8 -6 -15 -14 -15 -8 0 -16
7 -20 15 -3 8 -13 15 -23 15 -14 0 -12 3 7 13 14 7 25 19 25 27 1 8 7 25 13
38 12 20 10 23 -10 31 -17 6 -25 4 -31 -8 -4 -9 -5 -1 -2 19 3 19 2 30 -3 24
-4 -6 -15 -13 -25 -17 -17 -6 -17 -8 -3 -23 17 -16 22 -49 7 -39 -5 3 -12 1
-16 -5 -3 -5 3 -10 14 -10 28 0 26 -14 -4 -34 -15 -10 -22 -22 -19 -31 4 -8 1
-15 -6 -15 -6 0 -8 -5 -4 -11 3 -6 -6 -3 -21 7 -26 17 -26 18 -9 31 16 12 17
15 5 23 -8 4 -16 14 -17 22 -2 7 -5 24 -8 38 -3 14 0 27 7 32 8 6 6 10 -9 14
-27 7 -55 55 -36 61 20 7 14 23 -13 35 -28 13 -33 28 -10 28 10 0 15 7 13 18
-2 12 3 16 20 15 12 -2 22 2 22 7 0 6 -4 10 -10 10 -5 0 -6 8 -3 18 6 15 4 15
-9 4 -13 -10 -22 -11 -38 -2 -12 6 -19 14 -16 17 11 12 -27 43 -52 43 -20 0
-23 4 -19 21 5 18 2 21 -23 17 -16 -3 -31 0 -33 5 -1 5 -18 1 -37 -9 -35 -18
-35 -18 -10 -24 l25 -6 -30 -11 c-16 -5 -43 -9 -60 -8 -34 2 -155 -51 -155
-69 0 -6 5 -4 11 4 8 12 12 12 16 2 4 -10 8 -10 20 -1 10 9 16 10 21 2 5 -8
12 -8 24 1 10 7 15 16 12 19 -6 6 19 37 29 37 3 0 8 -7 11 -16 3 -8 2 -12 -4
-9 -6 3 -13 -2 -17 -12 -4 -10 -14 -24 -22 -31 -14 -11 -13 -12 9 -10 18 2 24
8 22 22 -3 13 1 17 11 13 8 -3 19 -1 24 4 5 5 23 12 39 14 24 4 26 3 11 -6 -9
-5 -14 -15 -11 -21 5 -8 1 -9 -10 -5 -18 7 -50 -15 -39 -27 4 -3 -3 -6 -15 -6
-12 0 -22 -4 -22 -9 0 -5 -11 -12 -25 -15 -14 -4 -25 -11 -25 -16 0 -6 -7 -10
-15 -10 -21 0 -19 -17 5 -30 14 -8 20 -8 20 0 0 6 10 2 22 -10 26 -24 50 -25
82 -4 15 9 27 11 30 5 4 -5 -3 -12 -14 -16 -11 -3 -25 -16 -31 -27 -11 -21
-12 -21 -25 -3 -8 10 -16 17 -18 14 -2 -2 7 -17 21 -33 19 -23 27 -26 33 -15
5 7 12 10 16 6 4 -4 13 -2 20 4 15 12 34 4 34 -15 0 -17 32 -16 45 1 7 9 19
10 40 5 l30 -9 -42 -22 c-24 -12 -43 -26 -43 -31 0 -14 18 -22 25 -11 4 7 15
7 31 1 14 -6 29 -8 33 -6 4 3 13 1 21 -5 10 -6 11 -9 3 -9 -7 0 -13 -7 -13
-15 0 -15 -10 -19 -42 -16 -10 1 -18 -3 -18 -9 0 -7 6 -10 14 -7 8 3 17 -1 20
-9 8 -21 -21 -29 -42 -13 -15 13 -16 12 -3 -3 15 -20 46 -24 56 -8 3 6 15 10
26 10 10 0 19 -4 19 -10 0 -5 -11 -10 -24 -10 -14 0 -28 -4 -31 -10 -3 -5 -15
-10 -26 -10 -10 0 -19 -4 -19 -10 0 -5 -8 -10 -17 -10 -13 -1 -9 -6 11 -17 27
-14 30 -14 41 1 15 20 29 21 22 2 -3 -8 1 -13 10 -12 9 0 18 -5 20 -11 3 -8
-3 -13 -14 -13 -15 0 -16 -2 -3 -11 11 -8 12 -12 3 -16 -16 -6 -17 -30 -1 -35
6 -2 8 -10 4 -16 -9 -15 -36 -16 -36 -2 0 6 4 10 10 10 5 0 7 7 4 15 -8 19
-21 19 -41 -1 -14 -13 -14 -17 -2 -25 12 -7 11 -9 -2 -9 -8 0 -24 7 -35 15
-26 20 -34 19 -34 -5 0 -14 5 -18 18 -14 16 5 16 5 0 -6 -10 -6 -18 -18 -18
-25 0 -22 -18 -18 -25 5 -3 11 -12 20 -18 20 -16 -1 -48 -26 -41 -32 2 -3 -6
-3 -19 -1 -17 3 -26 -2 -37 -21 -7 -14 -17 -26 -22 -26 -5 0 -6 -5 -3 -10 3
-6 -4 -10 -18 -10 -14 0 -30 -7 -37 -15 -7 -8 -16 -12 -21 -9 -12 7 -49 -14
-49 -28 0 -6 8 -17 18 -24 15 -12 15 -15 2 -24 -8 -5 -22 -7 -31 -4 -12 3 -19
-3 -23 -22 -4 -14 -5 -29 -1 -32 3 -3 5 0 5 6 0 7 5 12 11 12 5 0 8 -4 5 -9
-6 -9 22 -26 37 -23 20 5 3 -11 -25 -23 -28 -11 -30 -15 -15 -20 11 -5 25 -1
37 10 11 10 20 14 20 9 0 -5 -11 -17 -24 -26 -21 -16 -28 -16 -51 -4 -17 9
-22 16 -13 19 9 4 8 6 -3 6 -9 1 -19 -6 -23 -14 -3 -9 0 -15 10 -15 9 0 14 -6
11 -12 -2 -7 -11 -12 -20 -12 -9 1 -14 -2 -11 -7 8 -13 -10 -11 -25 4 -8 6
-11 8 -8 2 3 -6 -10 -11 -30 -13 -21 -1 -32 2 -28 8 4 6 10 8 15 5 5 -3 15 2
24 11 9 8 20 13 26 9 5 -3 7 0 4 8 -3 8 -14 17 -23 20 -14 3 -17 0 -14 -14 4
-14 0 -19 -16 -19 -24 0 -36 -21 -27 -47 6 -14 9 -15 15 -4 6 10 10 10 16 2 5
-9 10 -9 20 -1 9 8 14 7 18 -4 4 -10 1 -13 -9 -9 -7 3 -14 1 -14 -5 0 -21 13
-42 26 -42 7 0 11 -6 8 -14 -3 -8 5 -22 18 -31 l23 -17 -25 7 c-14 4 -29 12
-35 19 -9 11 -17 12 -52 8 -7 -1 -13 -6 -13 -11 0 -4 12 -6 28 -3 15 2 24 1
20 -3 -4 -4 -22 -9 -40 -10 -18 -2 -32 -8 -31 -14 4 -16 -13 -13 -31 5 -18 18
-21 34 -6 34 6 0 10 5 10 10 0 20 -20 9 -25 -13 -4 -13 -13 -24 -20 -24 -8 0
-12 4 -9 8 2 4 0 10 -6 14 -5 3 -10 3 -11 -2 0 -4 -2 -16 -4 -25 -2 -10 2 -18
8 -19 7 -1 1 -5 -13 -9 -23 -7 -24 -8 -3 -9 12 -1 26 6 30 13 7 13 13 13 41
-1 25 -12 36 -13 45 -4 15 15 20 14 45 -8 30 -26 27 -31 -10 -20 -20 5 -36 5
-41 0 -6 -6 -18 -4 -32 5 -18 12 -31 13 -57 5 -32 -9 -32 -9 -5 -10 18 -1 27
-6 27 -17 0 -11 -5 -14 -16 -10 -14 5 -15 4 -4 -9 8 -9 17 -12 24 -6 6 5 23 7
39 5 15 -1 27 1 27 5 0 5 24 9 53 9 l52 0 -70 -22 -70 -22 0 -37 c0 -20 -3
-37 -7 -37 -31 -1 -51 2 -40 7 29 11 9 20 -25 11 -67 -18 -70 -20 -43 -28 24
-6 24 -7 -8 -12 -26 -4 -32 -2 -27 10 4 10 0 12 -11 8 -8 -3 -20 -6 -26 -6 -6
0 1 -9 15 -20 31 -24 49 -25 111 -4 26 9 50 13 53 10 10 -10 -1 -15 -38 -20
-19 -3 -47 -9 -63 -15 -17 -7 -33 -8 -40 -3 -6 5 -23 12 -38 16 -19 4 -26 11
-22 21 4 10 0 15 -15 15 -23 0 -28 -15 -8 -24 6 -3 0 -4 -15 -1 -16 3 -28 1
-28 -4 0 -5 14 -8 31 -7 56 4 40 -12 -33 -34 -40 -12 -84 -26 -98 -31 -14 -5
-38 -12 -54 -15 -16 -3 -39 -10 -50 -17 -12 -6 -31 -12 -44 -14 -19 -2 -21 1
-12 12 6 8 9 19 5 25 -6 9 10 14 43 13 6 -1 12 3 12 8 0 4 -23 8 -52 7 -28 0
-45 -3 -39 -8 10 -5 9 -9 -3 -13 -9 -4 -16 -3 -16 2 0 5 -14 8 -30 6 -32 -2
-55 -15 -27 -15 19 0 24 -20 5 -20 -7 0 -34 -11 -61 -24 -44 -22 -67 -20 -52
4 8 13 -1 13 -26 0 -13 -7 -25 -8 -37 -1 -9 6 -12 11 -5 11 7 0 10 7 7 15 -5
12 1 14 32 10 24 -3 34 -1 25 4 -7 5 -10 14 -7 20 4 6 0 11 -11 12 -14 0 -13
2 5 10 13 5 29 6 34 2 7 -3 8 -1 4 5 -4 7 -2 13 3 13 20 3 57 16 83 30 10 5
25 9 35 9 12 0 14 3 7 10 -7 7 -22 5 -48 -5 -21 -9 -46 -13 -56 -10 -10 3 -21
1 -25 -5 -4 -6 -13 -9 -20 -6 -8 3 -16 0 -18 -7 -2 -7 -7 -9 -11 -6 -10 9 24
40 35 33 6 -3 19 2 29 11 10 9 24 14 30 10 6 -4 19 0 28 8 9 9 37 18 61 21 24
3 46 8 50 12 3 4 -6 4 -21 0 -17 -4 -28 -2 -28 4 0 5 -13 8 -30 6 -19 -2 -30
1 -30 9 0 7 9 10 23 8 13 -3 40 5 61 16 20 12 41 19 46 16 4 -3 11 2 14 11 7
18 -16 44 -39 44 -12 0 -14 4 -6 19 7 12 19 17 35 16 18 -2 23 1 19 11 -3 8 0
14 7 14 10 0 10 3 0 15 -10 12 -7 16 16 25 65 24 84 33 95 46 10 12 8 13 -7 8
-10 -4 -24 -11 -30 -16 -7 -5 -16 -3 -23 6 -8 10 -9 16 -1 21 5 3 10 12 10 18
0 8 -3 7 -9 -2 -5 -8 -14 -10 -22 -6 -9 6 -11 3 -6 -9 4 -9 3 -14 -2 -11 -5 3
-12 1 -16 -5 -3 -5 -1 -10 4 -10 6 0 11 -4 11 -10 0 -5 -7 -7 -15 -4 -11 4
-13 2 -9 -9 3 -10 -2 -20 -15 -27 -25 -13 -28 -32 -3 -23 13 5 14 3 5 -7 -6
-7 -23 -12 -37 -12 -15 0 -23 -5 -19 -11 4 -6 1 -7 -7 -2 -10 6 -10 10 3 20
10 7 13 16 7 25 -7 12 -13 12 -35 0 -23 -12 -28 -12 -35 0 -5 8 -7 17 -4 19 3
3 9 0 13 -8 7 -11 12 -11 30 0 11 8 21 16 21 19 0 4 7 15 15 26 14 18 14 18 8
-3 -4 -18 -1 -22 16 -20 22 1 29 21 11 32 -5 3 -10 11 -10 16 0 6 5 7 12 3 6
-4 17 1 23 10 8 10 28 18 53 19 22 0 39 4 36 8 -2 4 6 5 18 1 14 -3 19 -2 14
6 -4 7 -1 12 8 12 9 0 16 -7 16 -15 0 -8 5 -15 10 -15 7 0 7 6 2 18 -5 9 -7
24 -5 32 3 11 2 12 -5 2 -5 -7 -27 -15 -50 -18 -32 -4 -44 -1 -48 11 -4 10
-10 12 -18 6 -6 -4 -22 -12 -36 -15 -24 -7 -24 -6 -6 8 11 9 14 16 7 16 -7 0
-10 4 -7 9 8 13 75 19 79 6 2 -6 10 -5 20 4 21 17 22 35 2 27 -8 -3 -15 -1
-15 4 0 6 14 10 31 10 29 0 31 2 24 28 -3 15 -11 29 -16 30 -13 5 -11 22 2 22
6 0 17 7 26 15 8 9 28 19 44 22 16 3 31 14 35 25 5 15 12 18 32 14 20 -5 23
-4 12 4 -8 5 -23 10 -32 10 -10 0 -18 5 -18 10 0 6 -5 10 -11 10 -6 0 -8 -7
-5 -16 4 -11 -1 -18 -14 -21 -11 -3 -20 -9 -20 -14 0 -5 -6 -6 -14 -3 -8 3
-17 0 -22 -7 -5 -8 -3 -10 7 -4 12 7 12 6 0 -9 -8 -10 -23 -15 -33 -13 -10 3
-16 1 -12 -4 3 -5 1 -9 -5 -9 -5 0 -18 -3 -28 -7 -17 -6 -17 -5 -1 13 11 12
15 28 11 42 -4 18 -10 21 -32 16 -20 -5 -24 -4 -14 6 6 7 9 18 7 25 -3 7 -1
16 5 20 21 12 11 27 -14 23 -14 -3 -28 -1 -31 3 -3 5 16 9 43 10 48 0 104 16
73 19 -8 1 -25 1 -37 0 -25 -2 -31 14 -11 26 31 19 78 4 78 -24 0 -6 7 -12 15
-16 8 -3 15 -1 15 4 0 6 3 9 8 9 19 -3 33 2 27 11 -4 6 8 10 29 10 19 0 37 4
40 9 8 13 -45 12 -72 -2 -19 -9 -25 -8 -32 3 -5 8 -12 11 -16 7 -4 -4 -13 -2
-21 4 -7 6 -22 9 -33 6 -17 -4 -20 0 -20 25 0 24 -3 28 -19 23 -13 -4 -20 0
-24 16 -4 15 -2 19 8 15 9 -3 12 0 8 10 -6 16 12 19 22 4 5 -8 11 -7 21 1 8 6
23 9 35 6 17 -5 18 -3 8 9 -8 10 -21 13 -36 9 -13 -3 -23 -1 -23 4 0 4 14 11
30 15 49 9 34 23 -27 24 -32 0 -60 1 -63 2 -3 1 -17 3 -32 4 -25 1 -26 0 -12
-16 15 -15 13 -18 -25 -29 -23 -7 -41 -18 -41 -26 0 -17 29 -17 36 1 3 8 13
12 24 9 18 -5 18 -7 4 -41 -11 -28 -12 -37 -2 -43 7 -4 16 -5 22 -2 5 4 1 9
-9 13 -14 5 -16 8 -6 15 8 4 16 3 21 -4 4 -7 11 -11 16 -10 5 1 20 1 34 0 19
-1 22 -3 10 -11 -9 -5 -19 -5 -26 0 -13 11 -24 3 -20 -13 2 -7 1 -9 -1 -5 -2
3 -17 2 -34 -2 -16 -5 -29 -7 -29 -4 0 2 0 7 1 11 1 13 -42 23 -54 13 -7 -6
-23 -18 -37 -29 -20 -16 -22 -21 -12 -34 8 -10 9 -17 3 -21 -13 -8 -3 -37 17
-53 9 -7 11 -13 6 -13 -6 0 -20 9 -32 20 -17 16 -22 17 -22 6 0 -8 -5 -18 -12
-22 -8 -5 -9 -2 -5 10 4 10 3 15 -3 11 -6 -3 -10 -15 -10 -25 0 -10 -6 -21
-12 -24 -7 -3 -3 -3 10 0 12 3 22 1 22 -4 0 -13 -82 -23 -96 -11 -7 5 -23 8
-36 6 -12 -2 -17 -2 -10 0 14 5 16 23 3 23 -6 0 -12 -4 -16 -10 -3 -5 -13 -6
-23 -3 -13 4 -13 2 3 -10 14 -12 16 -16 6 -17 -8 0 -12 -2 -10 -5 3 -2 19 -1
36 4 25 7 33 6 37 -6 4 -9 13 -13 23 -9 15 6 14 4 -2 -14 -10 -11 -24 -20 -32
-20 -7 0 -13 -6 -13 -14 0 -11 8 -12 38 -5 46 11 52 11 52 1 0 -4 -21 -14 -47
-22 -27 -7 -54 -22 -61 -32 -7 -10 -23 -18 -34 -18 -19 0 -19 -2 8 -25 l29
-25 -27 0 c-15 0 -30 5 -34 11 -4 8 -9 8 -18 -1 -8 -8 -8 -13 0 -18 9 -5 8
-11 -2 -20 -8 -7 -14 -8 -14 -2 0 5 -8 10 -17 10 -13 0 -10 7 14 29 23 21 29
31 20 40 -16 16 -42 14 -57 -4 -15 -17 1 -20 17 -4 9 9 12 7 10 -10 -1 -11 -7
-21 -13 -21 -7 0 -14 -6 -17 -12 -2 -8 -21 -13 -44 -13 -23 0 -39 3 -36 8 2 4
-3 7 -11 7 -10 0 -13 -6 -9 -17 6 -16 5 -16 -10 -5 -14 12 -17 10 -23 -12 -3
-14 -11 -23 -16 -20 -6 4 -8 -2 -4 -14 6 -17 -1 -27 -35 -51 -23 -17 -46 -28
-51 -25 -11 7 -118 -36 -118 -48 0 -4 -12 -8 -27 -8 l-27 0 23 16 24 17 -24
13 c-13 7 -18 13 -11 14 7 0 21 -6 32 -12 17 -11 22 -10 30 1 4 8 16 16 25 17
9 1 23 11 32 21 8 10 12 12 8 6 -3 -7 -1 -13 4 -13 6 0 11 12 11 26 0 14 4 23
10 19 6 -3 10 -1 10 4 0 6 7 11 15 11 8 0 15 5 15 10 0 14 -13 13 -28 -2 -6
-6 -15 -8 -19 -3 -5 4 -2 10 5 12 22 8 13 25 -10 18 -16 -5 -6 9 33 49 31 30
53 59 50 62 -3 4 2 4 12 1 15 -6 17 -3 12 16 -3 12 -3 18 2 12 11 -14 43 -18
43 -5 0 5 -6 10 -14 10 -28 0 -27 20 1 32 35 15 88 55 58 43 -51 -19 -58 -15
-21 11 21 16 41 29 45 29 9 0 61 42 61 49 0 4 -18 -3 -40 -14 -50 -25 -65 -26
-24 -1 38 23 51 41 30 41 -9 0 -16 5 -16 10 0 6 7 10 15 10 8 0 15 7 15 16 0
8 4 13 9 10 5 -3 11 3 14 14 3 11 12 20 21 20 16 0 21 12 9 23 -3 4 -12 2 -20
-4 -9 -8 -13 -8 -13 -1 0 6 9 14 21 17 19 6 19 8 3 19 -15 12 -15 13 0 19 9 4
16 13 16 22 0 8 5 15 11 15 6 0 22 9 35 19 l25 19 -23 16 c-12 9 -17 16 -10
16 6 0 12 5 12 10 0 6 -9 10 -19 10 -28 0 -37 20 -12 27 11 3 18 9 15 14 -3 5
5 8 17 6 12 -1 24 4 26 11 3 7 1 12 -4 11 -4 -1 -17 -1 -27 0 -18 1 -18 2 -3
19 10 10 14 22 10 25 -3 4 6 6 20 5 29 -3 38 -18 10 -18 -9 0 -14 -3 -10 -6
11 -12 48 8 45 24 -3 13 -19 17 -92 19 -71 2 -87 0 -83 -11 3 -7 -1 -26 -9
-41 -8 -15 -11 -31 -8 -36 3 -5 0 -9 -7 -9 -8 0 -8 -5 2 -16 16 -19 21 -44 9
-44 -5 0 -17 -3 -27 -6 -15 -5 -15 -3 4 13 l21 20 -29 0 c-22 0 -28 -4 -24
-15 3 -10 0 -12 -10 -8 -8 3 -22 9 -32 13 -10 4 -14 2 -10 -4 15 -24 -19 -19
-37 5 -11 14 -14 22 -7 18 17 -11 42 1 35 17 -3 9 -15 12 -36 9 -22 -3 -29 -1
-23 7 4 7 13 10 21 7 8 -3 14 -1 14 4 0 6 -7 10 -16 10 -10 0 -14 6 -10 15 3
10 -1 15 -12 15 -14 0 -15 2 -2 10 13 8 12 11 -5 24 -22 16 -81 14 -114 -4
-13 -7 -21 -7 -21 -1 0 16 37 32 83 37 22 2 45 9 51 15 8 8 5 9 -11 4 -21 -6
-33 8 -15 18 4 2 1 2 -6 1 -7 -2 -15 3 -18 11 -4 8 -11 15 -16 15 -6 0 -5 -7
3 -16 11 -13 11 -15 -2 -13 -24 5 -69 -11 -66 -24 1 -6 -7 -12 -18 -12 -11 0
-19 6 -17 13 1 6 -4 12 -12 12 -8 0 -17 6 -20 13 -3 6 -4 5 -3 -5 1 -9 -2 -17
-8 -17 -5 -1 -11 15 -12 34 -1 30 2 35 20 35 l22 1 -21 18 c-20 16 -20 19 -5
30 14 10 14 11 -5 8 -12 -3 -21 1 -21 9 0 7 5 11 11 8 6 -3 3 1 -6 9 -14 11
-15 16 -5 26 9 10 8 15 -7 27 -15 11 -16 14 -5 14 12 0 14 8 10 33 -3 19 -6
25 -9 14 -2 -9 -8 -15 -13 -12 -5 4 -14 3 -20 -1 -8 -4 -7 -9 2 -15 11 -6 11
-11 2 -20 -9 -9 -13 -3 -18 25 -4 20 -14 40 -23 45 -13 7 -12 10 5 20 16 8 24
7 34 -5 10 -12 14 -12 20 -2 13 20 11 28 -6 22 -9 -4 -15 0 -15 9 0 8 -7 20
-15 27 -9 8 -15 8 -15 2 0 -6 6 -12 13 -15 17 -6 5 -16 -24 -19 -13 -2 -29 -9
-34 -16 -6 -7 -15 -13 -20 -12 -22 5 -36 -1 -30 -11 4 -6 14 -8 22 -5 9 4 11
2 7 -6 -5 -8 0 -9 15 -5 18 4 20 3 10 -9 -16 -20 -29 -18 -64 10 -30 24 -30
24 -11 45 11 12 29 21 40 21 27 1 89 57 82 75 -3 8 -14 13 -25 12 -15 -1 -17
-4 -10 -14 14 -16 5 -30 -33 -49 -35 -18 -58 -12 -58 16 0 14 7 20 21 20 11 0
18 4 14 9 -3 5 4 13 16 16 12 4 18 12 15 21 -4 9 3 18 17 24 l22 9 -22 0 c-32
1 -37 17 -13 41 19 19 19 22 5 50 -9 17 -21 30 -28 30 -8 0 -7 3 2 9 13 8 13
12 0 27 -13 16 -12 16 8 5 20 -10 22 -9 16 6 -3 10 -12 23 -21 30 -8 7 -12 19
-8 29 3 9 1 23 -5 30 -9 11 -8 14 4 14 22 0 14 33 -9 40 -15 4 -19 14 -19 42
0 21 -3 38 -6 38 -5 0 -16 48 -20 87 0 5 -5 14 -11 21 -7 8 -7 12 1 12 6 0 11
5 11 10 0 6 -7 10 -16 10 -13 0 -14 3 -5 14 10 11 9 15 -4 18 -22 4 -69 122
-61 153 7 27 38 24 34 -3 -4 -21 55 -35 267 -67 94 -14 220 -34 280 -45 61
-11 124 -20 141 -20 34 0 49 19 39 51 -4 11 -2 19 5 19 7 0 9 7 6 16 -5 12 -2
15 10 10 14 -5 15 -4 4 9 -11 14 -7 19 12 16 4 0 5 6 2 13 -5 13 30 33 49 28
4 -1 3 6 -2 17 -6 11 -19 18 -28 17 -10 -2 -12 -1 -5 1 18 7 15 23 -5 24 -15
0 -15 2 2 9 11 5 15 9 9 9 -13 1 -17 78 -5 86 5 2 5 26 0 52 -7 35 -6 49 3 55
10 6 10 8 1 8 -7 0 -13 5 -13 11 0 5 6 7 13 3 9 -5 9 -4 1 5 -6 7 -8 31 -4 62
4 27 3 52 -2 55 -4 3 -8 10 -8 16 0 7 6 6 15 -2 13 -11 15 -8 15 19 0 17 -5
31 -10 31 -7 0 -7 7 0 20 6 11 10 26 9 33 -4 26 14 77 35 99 11 12 20 26 19
30 -2 4 5 4 14 1 12 -5 15 -2 10 10 -3 9 -2 17 3 17 6 0 10 9 10 20 0 11 5 20
11 20 6 0 8 9 4 20 -4 11 -2 20 4 20 6 0 11 9 11 20 0 11 7 23 15 26 8 4 15
14 15 23 0 14 2 14 10 1 8 -13 10 -12 10 3 0 9 3 16 8 16 21 -4 40 3 60 21 12
12 22 17 22 13 1 -4 8 1 18 12 25 29 147 122 138 104 -4 -7 3 -2 17 13 49 53
235 77 427 53z m2925 -195 c3 -5 1 -10 -4 -10 -6 0 -11 5 -11 10 0 6 2 10 4
10 3 0 8 -4 11 -10z m7 -36 c-12 -8 -28 -12 -34 -8 -9 6 -5 10 12 15 41 11 46
10 22 -7z m-31 -29 c17 11 31 -6 18 -21 -10 -12 -15 -10 -35 11 -13 15 -24 31
-24 38 0 6 7 1 16 -11 8 -12 20 -20 25 -17z m-1846 -395 c-3 -5 -12 -10 -18
-10 -7 0 -6 4 3 10 19 12 23 12 15 0z m-143 -59 c13 -15 14 -22 5 -29 -25 -19
-37 -23 -37 -13 0 6 7 11 15 11 8 0 15 5 15 10 0 6 -4 10 -9 10 -5 0 -11 7
-15 15 -8 21 6 19 26 -4z m-157 -31 c-3 -5 -14 -10 -23 -9 -14 0 -13 2 3 9 27
11 27 11 20 0z m-2265 -80 c0 -5 -2 -10 -4 -10 -3 0 -8 5 -11 10 -3 6 -1 10 4
10 6 0 11 -4 11 -10z m-6 -31 c-9 -15 -34 -10 -28 5 3 8 12 12 20 9 8 -3 11
-9 8 -14z m1991 -98 c3 -5 1 -12 -5 -16 -5 -3 -10 1 -10 9 0 18 6 21 15 7z
m-100 -30 c10 -17 -12 -21 -25 -6 -10 12 -10 15 3 15 9 0 18 -4 22 -9z m-1235
-75 c0 -2 -7 -7 -16 -10 -8 -3 -12 -2 -9 4 6 10 25 14 25 6z m1060 -217 c0 -6
-4 -7 -10 -4 -5 3 -10 11 -10 16 0 6 5 7 10 4 6 -3 10 -11 10 -16z m-1760
-529 c0 -5 -10 -10 -22 -10 -19 0 -20 2 -8 10 19 13 30 13 30 0z m-10 -47 c0
-5 -4 -14 -9 -21 -7 -11 -9 -11 -14 1 -3 8 -3 18 0 21 9 8 23 7 23 -1z m4413
-23 c9 0 17 -7 17 -15 0 -8 5 -15 10 -15 6 0 8 -11 4 -25 -3 -14 -2 -25 2 -26
5 -1 22 -2 39 -3 37 -1 46 -30 14 -46 -14 -8 -19 -8 -15 -1 4 6 0 11 -9 11 -9
0 -13 -4 -10 -10 4 -6 -6 -10 -24 -10 -16 0 -32 -4 -36 -10 -9 -14 -34 0 -28
16 3 8 0 14 -6 14 -6 0 -11 -5 -11 -11 0 -5 -5 -7 -10 -4 -6 4 -7 11 -4 17 5
7 1 9 -9 5 -9 -3 -19 -1 -23 5 -4 7 -9 6 -15 -3 -6 -9 -7 3 -3 31 7 53 45 95
78 86 12 -3 29 -6 39 -6z m-4464 -206 c-11 -19 -18 -41 -15 -49 3 -9 0 -15 -8
-15 -8 0 -16 -7 -20 -15 -3 -8 -10 -15 -16 -15 -6 0 -3 11 6 25 9 14 13 25 8
25 -4 0 3 10 16 22 15 14 19 23 11 26 -9 3 -7 9 5 23 27 30 37 11 13 -27z
m126 36 c-3 -5 -20 -13 -38 -19 -18 -5 -41 -12 -52 -17 -11 -4 -17 -4 -14 0 5
5 78 36 107 45 2 1 1 -3 -3 -9z m-21 -51 c3 -3 -4 -5 -14 -6 -11 -1 -22 2 -24
6 -5 8 30 8 38 0z m4451 -20 c-8 -12 -43 -6 -38 7 2 6 13 10 24 7 10 -3 16 -9
14 -14z m-2365 -30 c0 -6 -7 -12 -16 -16 -15 -6 -15 -8 2 -20 14 -10 14 -13 3
-13 -8 0 -20 5 -27 12 -9 9 -12 9 -12 0 0 -7 -4 -12 -9 -12 -5 0 -2 15 7 34
11 24 20 32 33 29 11 -3 19 -9 19 -14z m2286 -13 c5 -14 67 -16 80 -3 4 3 13
-1 21 -9 8 -8 19 -12 24 -9 5 4 9 0 9 -7 0 -10 10 -13 35 -10 24 3 35 0 35 -9
0 -7 3 -9 7 -6 3 4 12 -1 19 -11 9 -13 9 -19 1 -25 -7 -5 -2 -6 11 -2 13 4 22
2 22 -4 0 -6 -4 -11 -10 -11 -5 0 -10 -4 -10 -10 0 -5 7 -7 15 -4 19 8 23 -23
10 -76 -4 -16 -3 -20 2 -12 7 9 15 6 33 -13 20 -21 21 -25 6 -19 -15 6 -17 3
-11 -15 6 -20 4 -21 -30 -18 -19 2 -41 10 -48 17 -10 10 -9 12 3 8 51 -18 57
-18 57 -4 0 9 -4 13 -9 10 -16 -10 -59 6 -51 19 4 8 1 7 -10 -2 -13 -10 -17
-10 -17 -1 0 7 -7 10 -15 6 -8 -3 -15 -1 -15 5 0 6 -4 8 -10 4 -5 -3 -17 2
-27 12 -10 10 -24 18 -30 19 -39 3 -44 5 -38 15 4 6 14 8 22 5 8 -4 11 -1 8 5
-4 6 -13 8 -20 5 -7 -2 -15 4 -18 15 -3 11 -14 19 -26 19 -12 0 -21 6 -21 13
0 9 -2 9 -8 0 -4 -6 -16 -13 -27 -15 -18 -3 -20 2 -18 45 1 29 -2 45 -9 41 -5
-3 -4 3 4 15 7 12 14 17 16 11 2 -5 11 -10 19 -10 13 0 13 3 3 15 -9 11 -9 15
-1 15 6 0 14 -6 17 -14z m-4533 -56 c-3 -11 -12 -20 -19 -20 -12 0 -12 4 -2
20 7 11 16 20 19 20 4 0 5 -9 2 -20z m4117 10 c3 -1 20 -2 39 -2 24 0 35 -6
38 -19 3 -10 9 -17 13 -14 16 10 21 -46 6 -67 -12 -17 -13 -25 -3 -36 10 -13
9 -14 -10 -4 -33 18 -38 14 -12 -9 17 -15 19 -19 7 -15 -22 7 -22 0 -3 -39
l15 -30 -19 23 c-24 27 -31 28 -24 2 4 -14 0 -20 -11 -20 -11 0 -14 -5 -10
-12 4 -7 3 -8 -4 -4 -7 4 -12 16 -12 27 0 10 -7 19 -15 19 -13 0 -14 4 -5 20
8 14 8 32 1 57 -6 20 -8 40 -4 46 3 5 -3 4 -14 -1 -18 -10 -20 -8 -18 18 1 19
-2 27 -11 23 -15 -5 -28 13 -21 31 5 12 55 15 77 6z m-1946 -15 c-4 -8 -10
-15 -15 -15 -5 0 -9 7 -9 15 0 8 7 15 15 15 9 0 12 -6 9 -15z m31 -4 c-3 -6
-11 -11 -17 -11 -6 0 -6 6 2 15 14 17 26 13 15 -4z m72 4 c-6 -7 -16 -11 -20
-8 -5 3 -7 -3 -5 -13 2 -13 -6 -20 -29 -25 -33 -6 -43 -3 -43 14 0 6 3 7 6 4
7 -7 64 23 64 33 0 3 9 6 20 7 16 1 17 -1 7 -12z m2183 -29 c-14 -38 -13 -43
14 -53 l23 -8 -20 -20 c-11 -11 -17 -15 -14 -10 3 6 2 17 -3 25 -7 11 -8 6 -7
-15 2 -22 8 -30 21 -28 13 1 15 -2 8 -9 -8 -8 -6 -15 3 -25 8 -7 12 -20 9 -27
-3 -8 -1 -17 5 -21 6 -3 11 -13 11 -21 0 -8 -4 -13 -9 -10 -5 3 -11 0 -14 -7
-3 -7 3 -14 14 -15 11 -1 28 -3 39 -4 11 -1 16 -6 11 -11 -5 -5 -18 -4 -30 2
-17 10 -20 9 -15 -4 4 -8 12 -16 20 -16 8 -1 20 -2 27 -3 6 0 12 -8 12 -16 0
-8 6 -19 13 -23 6 -4 12 -13 12 -19 0 -6 -11 -3 -25 6 -23 15 -25 15 -25 0 0
-10 7 -26 17 -36 9 -10 12 -18 7 -18 -9 0 -54 64 -54 75 0 4 6 3 13 -1 6 -3
-4 8 -23 25 -19 17 -41 31 -47 31 -7 0 -14 5 -14 10 -1 6 -2 14 -3 19 -3 21
-16 23 -16 3 0 -22 -14 -30 -24 -13 -4 5 0 12 6 14 10 4 10 8 -2 16 -8 5 -18
7 -24 4 -5 -3 -6 -1 -2 6 4 6 2 19 -5 27 -10 12 -9 13 4 8 13 -5 15 -1 7 28
-4 18 -7 44 -6 57 3 25 33 54 47 45 5 -3 9 2 9 11 0 9 5 13 10 10 9 -6 14 11
13 44 -1 8 2 10 8 4 6 -6 6 -20 -1 -37z m-4465 -16 c-28 -12 -37 -12 -30 0 3
6 16 10 28 9 21 0 21 -1 2 -9z m2168 -4 c25 -19 22 -22 -30 -40 -56 -19 -53
-19 -53 -1 0 8 7 15 16 15 8 0 13 4 9 9 -3 6 3 14 12 20 23 13 24 13 46 -3z
m2411 -32 c5 -14 4 -15 -9 -4 -17 14 -19 20 -6 20 5 0 12 -7 15 -16z m-4604
-29 c0 -8 -4 -15 -10 -15 -5 0 -7 7 -4 15 4 8 8 15 10 15 2 0 4 -7 4 -15z
m350 3 c0 -5 -6 -8 -14 -8 -8 0 -17 -6 -19 -12 -4 -10 -8 -9 -16 2 -16 22 -14
25 19 25 17 0 30 -3 30 -7z m415 -28 c3 -5 1 -10 -4 -10 -6 0 -11 5 -11 10 0
6 2 10 4 10 3 0 8 -4 11 -10z m-291 -76 c5 -14 4 -15 -9 -4 -17 14 -19 20 -6
20 5 0 12 -7 15 -16z m2113 -6 c-3 -8 -6 -5 -6 6 -1 11 2 17 5 13 3 -3 4 -12
1 -19z m-2210 -5 c-4 -3 -2 -12 4 -19 8 -10 6 -13 -9 -11 -16 1 -19 5 -11 19
5 10 13 18 16 18 3 0 3 -3 0 -7z m36 -10 c-3 -7 -9 -10 -14 -7 -14 8 -11 21 5
21 8 0 12 -6 9 -14z m4434 -12 c0 -11 -5 -17 -9 -15 -11 7 -10 34 1 34 6 0 9
-9 8 -19z m30 -3 c-3 -8 -6 -5 -6 6 -1 11 2 17 5 13 3 -3 4 -12 1 -19z m-4117
-9 c0 8 2 12 5 9 3 -3 3 -13 -1 -22 -7 -19 -24 -11 -24 12 0 15 2 15 10 2 8
-12 10 -12 10 -1z m1663 -4 c-3 -9 -8 -14 -10 -11 -3 3 -2 9 2 15 9 16 15 13
8 -4z m-2003 -4 c0 -5 -9 -11 -20 -14 -11 -3 -20 -1 -20 3 0 5 8 11 18 13 9 3
18 5 20 6 1 0 2 -3 2 -8z m-100 -5 c0 -2 -7 -7 -16 -10 -8 -3 -12 -2 -9 4 6
10 25 14 25 6z m50 -2 c0 -8 -19 -13 -24 -6 -3 5 1 9 9 9 8 0 15 -2 15 -3z
m2035 -44 c4 -6 -6 -10 -22 -9 -25 0 -26 1 -8 9 11 5 21 9 22 9 1 1 5 -3 8 -9z
m2100 0 c-3 -5 -11 -10 -16 -10 -6 0 -7 5 -4 10 3 6 11 10 16 10 6 0 7 -4 4
-10z m-3235 -19 c0 -14 -18 -23 -30 -16 -6 4 -8 11 -5 16 8 12 35 12 35 0z
m1148 -59 c-2 -8 -9 -17 -17 -20 -10 -3 -11 2 -6 19 5 18 4 20 -4 9 -9 -13
-12 -13 -23 -1 -8 9 -9 11 -1 7 6 -3 14 -2 18 3 9 15 36 1 33 -17z m37 18 c3
-5 -1 -10 -10 -10 -9 0 -13 5 -10 10 3 6 8 10 10 10 2 0 7 -4 10 -10z m315
-14 c0 -3 -4 -8 -10 -11 -5 -3 -10 -1 -10 4 0 6 5 11 10 11 6 0 10 -2 10 -4z
m30 -6 c0 -5 -5 -10 -11 -10 -5 0 -7 5 -4 10 3 6 8 10 11 10 2 0 4 -4 4 -10z
m-40 -35 c0 -8 -4 -15 -10 -15 -5 0 -7 7 -4 15 4 8 8 15 10 15 2 0 4 -7 4 -15z
m-124 -17 c0 -12 -6 -23 -12 -25 -14 -5 -13 29 1 39 6 4 11 8 11 8 1 0 1 -10
0 -22z m1949 12 c3 -6 -1 -7 -9 -4 -18 7 -21 14 -7 14 6 0 13 -4 16 -10z
m-1798 -32 c-3 -8 -6 -5 -6 6 -1 11 2 17 5 13 3 -3 4 -12 1 -19z m-307 -17 c0
-12 -30 -22 -43 -14 -7 4 -3 9 9 14 26 10 34 10 34 0z m384 -34 c6 -5 1 -5
-11 -2 -18 5 -23 2 -23 -14 0 -11 -5 -23 -10 -26 -6 -4 -7 -11 -4 -17 5 -8 1
-9 -10 -5 -14 6 -16 3 -11 -13 4 -11 2 -20 -3 -20 -17 0 -21 50 -4 59 8 5 12
15 9 24 -4 10 1 17 14 20 10 3 19 13 19 24 1 17 1 16 12 -2 6 -11 16 -24 22
-28z m-1774 13 c0 -4 -9 -6 -21 -3 -15 4 -17 8 -8 14 14 8 29 3 29 -11z m89
-30 c-7 -5 -17 -6 -21 -4 -4 3 -8 0 -8 -5 0 -6 -21 -11 -47 -11 -62 0 -45 18
25 27 29 3 52 11 53 17 0 6 3 5 6 -3 3 -7 -1 -17 -8 -21z m61 20 c0 -5 -7 -10
-16 -10 -8 0 -12 5 -9 10 3 6 10 10 16 10 5 0 9 -4 9 -10z m130 0 c0 -5 -4
-10 -10 -10 -5 0 -10 5 -10 10 0 6 5 10 10 10 6 0 10 -4 10 -10z m950 -57 c0
-10 -5 -25 -10 -33 -8 -13 -10 -12 -10 3 0 11 -8 17 -22 17 -22 1 -23 1 -4 15
27 20 46 19 46 -2z m262 3 c7 4 8 2 4 -4 -4 -7 -19 -12 -34 -12 -25 0 -25 1
-6 14 10 8 21 10 22 5 2 -5 9 -6 14 -3z m-1462 -20 c0 -3 -4 -8 -10 -11 -5 -3
-10 -1 -10 4 0 6 5 11 10 11 6 0 10 -2 10 -4z m80 -12 c0 -2 -11 -4 -25 -4
-14 0 -25 4 -25 9 0 4 11 6 25 3 14 -2 25 -6 25 -8z m1395 -3 c-4 -13 1 -24
17 -35 12 -9 17 -16 11 -16 -16 0 -11 -63 7 -77 12 -10 18 -9 28 4 16 22 15
12 -3 -23 -8 -16 -12 -39 -9 -51 6 -22 4 -23 -20 -13 -23 8 -26 7 -26 -11 0
-15 5 -19 15 -15 13 5 19 -5 16 -26 0 -4 6 -5 14 -2 12 5 15 -2 15 -29 0 -19
6 -37 13 -40 9 -3 9 -7 -1 -19 -10 -12 -9 -18 3 -28 8 -7 14 -22 14 -34 -1
-20 1 -29 17 -85 6 -20 4 -23 -10 -18 -9 4 -15 3 -11 -2 3 -5 -1 -11 -7 -14
-8 -3 -2 -9 13 -15 15 -6 28 -20 31 -34 4 -20 1 -23 -26 -22 -27 2 -45 6 -81
21 -5 3 -1 -3 9 -11 17 -14 18 -16 3 -16 -9 0 -17 -4 -17 -9 0 -5 -10 -9 -22
-9 -53 0 -84 -20 -60 -38 14 -10 13 -13 -6 -23 -12 -6 -21 -16 -19 -21 1 -5
-7 -15 -18 -23 -17 -13 -22 -13 -42 0 -13 9 -23 11 -23 5 0 -6 7 -12 15 -14
22 -5 4 -25 -29 -34 -21 -5 -27 -4 -22 5 4 6 17 12 29 12 17 1 15 3 -8 8 -30
7 -55 -3 -55 -21 0 -5 4 -7 9 -4 5 3 12 -1 15 -10 3 -9 12 -14 20 -11 7 3 18
1 23 -4 7 -7 16 -5 26 5 13 14 16 14 21 0 4 -10 2 -13 -6 -8 -7 5 -9 2 -6 -7
6 -16 -28 -24 -37 -9 -3 5 -18 7 -34 4 -23 -5 -29 -2 -34 17 -8 32 -16 21 -10
-13 3 -17 12 -28 22 -28 9 -1 3 -7 -14 -15 -16 -7 -25 -14 -18 -14 7 -1 10 -7
7 -15 -7 -17 8 -27 25 -17 11 7 18 27 20 59 1 6 6 12 11 12 7 0 8 -6 2 -17 -7
-12 -4 -22 9 -37 20 -21 28 -49 8 -29 -12 12 -79 -4 -79 -18 0 -4 16 -1 35 7
30 12 35 12 35 0 0 -20 -54 -30 -78 -15 -16 10 -18 16 -9 30 13 22 2 38 -15
21 -7 -7 -24 -12 -40 -12 -15 0 -31 -7 -36 -16 -11 -19 -32 -11 -32 12 0 8 -4
13 -10 9 -5 -3 -7 -12 -4 -19 3 -7 -2 -19 -10 -26 -13 -10 -20 -10 -38 2 -13
8 -31 14 -40 12 -26 -3 -22 5 7 16 14 5 25 14 25 20 0 6 -4 9 -9 6 -5 -3 -11
5 -13 18 -4 17 -1 23 9 19 16 -6 17 9 1 25 -8 8 -8 12 -1 12 6 0 13 -7 17 -15
3 -8 15 -15 26 -15 28 0 23 32 -5 40 -11 3 -21 10 -22 17 -2 8 4 10 14 6 10
-4 14 -2 10 5 -5 7 4 10 25 10 18 -1 42 2 53 6 40 14 85 39 85 47 0 5 7 6 16
2 14 -5 14 -3 3 15 -14 22 -41 22 -64 1 -16 -16 -25 -10 -25 19 -1 23 -2 25
-11 9 -5 -9 -8 -21 -5 -26 8 -12 -20 -22 -41 -14 -16 6 -16 4 -5 -9 11 -14 10
-18 -8 -28 -26 -14 -38 -6 -21 14 10 12 9 14 -7 9 -11 -2 -23 0 -26 6 -4 7 1
11 13 11 12 0 21 4 21 9 0 4 -18 5 -40 1 -33 -6 -38 -5 -29 6 9 11 8 14 -2 14
-8 1 -3 7 11 15 22 12 26 12 37 -1 13 -17 29 -1 17 17 -5 8 0 10 18 6 21 -6
24 -3 24 21 0 30 -23 53 -45 44 -10 -4 -12 -1 -6 9 7 12 6 12 -7 1 -9 -7 -24
-9 -34 -5 -17 6 -17 5 -5 -10 14 -18 12 -20 -13 -11 -25 10 -19 34 8 34 14 0
31 7 40 15 18 18 27 19 24 3 -2 -7 3 -12 10 -10 6 1 12 -2 12 -8 0 -5 7 -10
16 -10 12 0 15 -7 11 -25 -3 -16 0 -24 7 -22 6 2 11 14 10 26 0 15 3 18 9 12
7 -7 15 -7 24 0 20 17 16 27 -19 49 -18 11 -30 21 -25 21 35 6 67 20 67 30 0
5 -6 9 -14 9 -8 0 -17 7 -20 16 -5 12 1 11 28 -5 36 -22 51 -27 42 -12 -3 5 2
8 11 7 9 0 18 5 21 13 3 10 -2 11 -19 6 l-24 -7 23 20 c13 11 30 18 38 15 8
-3 14 0 14 6 0 6 7 11 15 11 8 0 15 4 15 9 0 6 -12 6 -31 1 -16 -5 -37 -6 -46
-3 -11 4 -14 2 -9 -5 5 -8 -3 -12 -26 -12 l-33 0 43 20 c23 10 42 25 42 32 0
11 2 11 9 0 6 -11 13 -11 37 0 39 16 39 15 24 33 -7 9 -10 18 -7 22 4 3 9 -2
13 -11 9 -22 46 -20 78 5 15 11 34 22 43 23 9 2 19 9 21 16 3 7 0 10 -6 6 -6
-3 -24 -8 -41 -10 -16 -2 -37 -11 -46 -20 -20 -20 -42 -11 -24 10 9 11 8 14
-2 15 -8 0 -3 4 9 10 13 5 28 6 33 3 5 -3 12 2 15 10 3 9 14 16 24 16 10 0 31
7 46 15 28 14 28 16 2 19 -7 0 -14 10 -16 21 -2 16 -1 17 7 6 14 -21 37 1 36
36 0 23 -5 29 -27 31 -34 4 -35 9 -6 32 l22 17 -22 7 c-18 6 -20 11 -11 27 5
11 14 17 19 14 5 -3 11 -1 15 5 10 17 17 11 10 -9z m-433 -36 c67 19 64 19 49
1 -12 -15 -8 -20 12 -17 13 2 7 -17 -8 -23 -8 -3 -15 -11 -15 -18 0 -15 -39
-42 -48 -34 -3 3 0 6 8 6 10 0 10 3 0 15 -12 14 -15 14 -30 0 -9 -8 -23 -15
-30 -15 -9 0 -7 -5 6 -16 19 -15 19 -15 -1 -10 -11 2 -35 8 -53 11 l-33 7 32
16 c33 17 51 42 30 42 -6 0 -11 -6 -11 -14 0 -20 -23 -26 -43 -11 -15 11 -16
14 -2 25 12 10 15 9 15 -5 0 -14 3 -15 15 -5 8 7 12 17 8 23 -4 7 5 8 25 4 24
-5 32 -3 32 8 0 9 -6 12 -15 9 -8 -4 -15 -2 -15 4 0 17 24 21 37 5 7 -10 20
-12 35 -8z m95 19 c-3 -3 -12 -4 -19 -1 -8 3 -5 6 6 6 11 1 17 -2 13 -5z m25
-16 c-7 -7 -12 -8 -12 -2 0 14 12 26 19 19 2 -3 -1 -11 -7 -17z m418 -8 c0
-13 -5 -18 -15 -14 -12 5 -13 10 -4 20 15 19 19 18 19 -6z m-1500 -5 c0 -9 -6
-12 -15 -9 -8 4 -15 1 -15 -5 0 -6 -4 -11 -9 -11 -5 0 -7 9 -4 20 6 23 43 28
43 5z m1257 9 c-3 -3 -12 -4 -19 -1 -8 3 -5 6 6 6 11 1 17 -2 13 -5z m-1205
-26 c-11 -11 -32 -3 -32 12 0 4 9 6 21 3 13 -4 17 -9 11 -15z m1618 -4 c0 -8
-4 -12 -10 -9 -5 3 -10 10 -10 16 0 5 5 9 10 9 6 0 10 -7 10 -16z m-1864 -7
c4 -4 0 -7 -9 -7 -9 0 -18 4 -21 9 -7 10 20 9 30 -2z m1742 -7 c-7 -11 -16
-20 -20 -20 -13 0 -9 28 5 33 23 10 27 7 15 -13z m-233 -9 c-3 -6 -11 -11 -16
-11 -5 0 -4 6 3 14 14 16 24 13 13 -3z m-94 -24 c-7 -7 -14 -8 -21 -1 -6 6 -2
10 12 11 16 2 18 -1 9 -10z m449 -18 c0 -6 -4 -7 -10 -4 -5 3 -10 11 -10 16 0
6 5 7 10 4 6 -3 10 -11 10 -16z m-1564 0 c8 -14 -6 -28 -31 -32 -11 -1 -25 -6
-32 -10 -6 -4 -14 -3 -17 2 -4 5 8 13 26 16 44 10 53 16 37 26 -10 6 -10 9 -2
9 6 0 15 -5 19 -11z m1234 -11 c0 -10 -4 -18 -10 -18 -5 0 -14 8 -19 18 -7 14
-6 18 10 18 12 0 19 -7 19 -18z m216 -21 c-1 -27 -4 -33 -19 -29 -14 3 -15 7
-6 18 9 11 9 14 0 14 -8 0 -8 4 1 15 20 22 25 18 24 -18z m-736 -3 c0 -8 -4
-14 -9 -14 -6 0 -9 9 -8 19 1 22 17 18 17 -5z m-830 6 c0 -5 -8 -10 -17 -10
-15 0 -16 2 -3 10 19 12 20 12 20 0z m997 4 c-3 -3 -12 -4 -19 -1 -8 3 -5 6 6
6 11 1 17 -2 13 -5z m-1077 -8 c0 -3 -4 -8 -10 -11 -5 -3 -10 -1 -10 4 0 6 5
11 10 11 6 0 10 -2 10 -4z m867 -21 c-4 -8 -11 -15 -17 -15 -6 0 -6 7 2 20 14
22 24 19 15 -5z m219 -3 c-18 -16 -18 -16 -6 6 6 13 14 21 18 18 3 -4 -2 -14
-12 -24z m96 -1 c4 -4 3 -13 -2 -21 -7 -10 -10 -11 -10 -2 0 6 -9 12 -21 12
-11 0 -17 5 -14 10 3 6 1 10 -4 10 -6 0 -11 4 -11 10 0 9 44 -5 62 -19z m-177
-1 c-3 -5 -18 -10 -33 -9 l-27 1 25 8 c35 11 42 11 35 0z m-81 -21 c-27 -11
-44 -11 -44 0 0 11 40 20 54 12 5 -2 1 -8 -10 -12z m631 -29 c-3 -5 -12 -10
-18 -10 -7 0 -6 4 3 10 19 12 23 12 15 0z m245 -31 c0 -5 -4 -9 -10 -9 -5 0
-10 7 -10 16 0 8 5 12 10 9 6 -3 10 -10 10 -16z m-1665 -8 c-3 -6 -11 -8 -17
-5 -6 4 -5 9 3 15 16 10 23 4 14 -10z m-490 -7 c10 -11 23 -14 38 -9 33 10
113 18 105 10 -3 -4 -17 -8 -30 -10 -12 -1 -41 -7 -63 -12 -45 -10 -86 -6 -65
7 8 5 9 10 1 14 -5 4 -22 -7 -37 -24 -15 -16 -32 -30 -38 -30 -6 0 -4 5 4 10
11 7 12 12 4 20 -9 9 -17 8 -33 -1 -16 -11 -23 -11 -33 -1 -9 9 -6 12 18 12
23 0 26 2 14 11 -12 8 -11 9 5 5 11 -3 34 -2 50 3 42 13 42 13 60 -5z m401 -9
c-3 -9 -11 -13 -16 -10 -8 5 -7 11 1 21 14 18 24 11 15 -11z m-37 -28 c1 -4
-5 -2 -13 5 -7 7 -11 19 -8 27 4 11 7 10 13 -5 4 -10 8 -23 8 -27z m1016 23
c-27 -12 -43 -12 -25 0 8 5 22 9 30 9 10 0 8 -3 -5 -9z m-1685 -20 c-10 -18
-40 -40 -55 -40 -9 0 48 59 58 60 4 0 3 -9 -3 -20z m1520 5 c-14 -17 -40 -20
-40 -6 0 8 18 16 44 20 5 0 3 -6 -4 -14z m-50 -16 c0 -5 -15 -9 -32 -9 l-33 0
25 14 c26 13 40 12 40 -5z m90 11 c0 -5 -2 -10 -4 -10 -3 0 -8 5 -11 10 -3 6
-1 10 4 10 6 0 11 -4 11 -10z m60 6 c0 -9 -30 -14 -35 -6 -4 6 3 10 14 10 12
0 21 -2 21 -4z m-1415 -36 c3 -6 -4 -10 -17 -10 -18 0 -20 2 -8 10 19 12 18
12 25 0z m459 -8 c3 -5 -1 -9 -9 -9 -8 0 -12 4 -9 9 3 4 7 8 9 8 2 0 6 -4 9
-8z m876 -14 c0 -6 -7 -7 -16 -4 -15 6 -15 3 1 -20 17 -26 17 -28 -6 -45 -24
-18 -39 -17 -39 4 0 8 3 9 8 1 4 -6 13 -4 24 7 15 16 14 18 -13 29 -23 10 -32
10 -44 0 -8 -7 -12 -16 -9 -21 3 -5 -2 -6 -12 -2 -15 5 -15 7 0 15 9 5 14 13
11 19 -4 5 -3 9 2 10 29 2 48 9 51 17 4 13 42 3 42 -10z m-110 -12 c0 -3 -4
-8 -10 -11 -5 -3 -10 -1 -10 4 0 6 5 11 10 11 6 0 10 -2 10 -4z m-1395 -16 c3
-5 1 -10 -4 -10 -6 0 -11 5 -11 10 0 6 2 10 4 10 3 0 8 -4 11 -10z m-35 -24
c0 -9 -7 -12 -21 -9 -16 4 -17 8 -7 14 19 13 28 11 28 -5z m1590 4 c-20 -13
-40 -13 -40 0 0 6 12 10 28 10 21 0 24 -2 12 -10z m-1000 -4 c0 -2 -7 -7 -16
-10 -8 -3 -12 -2 -9 4 6 10 25 14 25 6z m800 -46 c-9 -6 -8 -9 6 -12 17 -3 17
-4 2 -10 -10 -4 -24 -1 -32 7 -8 8 -19 15 -25 15 -18 0 -12 18 7 23 25 5 59
-13 42 -23z m-732 8 c-5 -15 -36 -19 -45 -6 -3 7 -1 8 5 4 7 -4 12 -2 12 3 0
6 7 11 16 11 9 0 14 -5 12 -12z m982 8 c0 -2 -7 -6 -15 -10 -8 -3 -15 -1 -15
4 0 6 7 10 15 10 8 0 15 -2 15 -4z m140 -12 c0 -8 -6 -11 -15 -8 -8 4 -21 1
-29 -5 -7 -6 -16 -8 -19 -4 -4 3 -7 2 -7 -3 0 -13 -40 -12 -40 1 0 5 -5 2 -11
-7 -5 -10 -14 -18 -20 -18 -5 0 -4 9 3 21 9 13 20 19 35 16 13 -2 31 1 40 8
22 17 63 16 63 -1z m-1200 -4 c0 -13 -20 -13 -40 0 -12 8 -9 10 13 10 15 0 27
-4 27 -10z m-630 -14 c0 -2 -7 -6 -15 -10 -8 -3 -15 -1 -15 4 0 6 7 10 15 10
8 0 15 -2 15 -4z m85 -6 c3 -5 1 -10 -4 -10 -6 0 -11 5 -11 10 0 6 2 10 4 10
3 0 8 -4 11 -10z m1736 -35 c32 -17 31 -35 -1 -32 -13 1 -19 6 -15 16 4 10 2
11 -8 3 -10 -8 -13 -6 -14 9 -2 23 0 23 38 4z m-1071 -5 c0 -5 -13 -16 -30
-25 -27 -14 -29 -14 -23 1 4 12 27 28 51 33 1 1 2 -3 2 -9z m-966 -28 c2 -4
-4 -9 -15 -9 -11 -1 -17 2 -14 8 7 11 22 12 29 1z m796 -7 c-7 -8 -17 -15 -22
-15 -6 0 -5 7 2 15 7 8 17 15 22 15 6 0 5 -7 -2 -15z m50 11 c0 -2 -7 -7 -16
-10 -8 -3 -12 -2 -9 4 6 10 25 14 25 6z m50 -6 c0 -5 -2 -10 -4 -10 -3 0 -8 5
-11 10 -3 6 -1 10 4 10 6 0 11 -4 11 -10z m770 -19 c0 -3 -10 -6 -22 -6 -13
-1 -34 -5 -48 -9 -22 -8 -23 -7 -11 7 7 9 17 15 21 12 5 -3 11 -1 14 4 6 10
46 3 46 -8z m175 -10 c-3 -6 -11 -11 -16 -11 -5 0 -4 6 3 14 14 16 24 13 13
-3z m124 -7 c7 5 9 1 5 -8 -9 -24 -34 -19 -34 7 0 16 3 18 9 8 5 -7 14 -11 20
-7z m-399 -8 c0 -12 -10 -14 -38 -7 -2 1 0 6 3 11 9 15 35 12 35 -4z m-973 -2
c-3 -3 -12 -4 -19 -1 -8 3 -5 6 6 6 11 1 17 -2 13 -5z m1173 2 c0 -2 -20 -11
-45 -20 -45 -15 -54 -3 -11 14 22 9 56 13 56 6z m-1745 -24 c-3 -3 -11 0 -18
7 -9 10 -8 11 6 5 10 -3 15 -9 12 -12z m830 0 c-3 -3 -11 0 -18 7 -9 10 -8 11
6 5 10 -3 15 -9 12 -12z m1040 8 c-3 -5 -10 -10 -16 -10 -5 0 -9 5 -9 10 0 6
7 10 16 10 8 0 12 -4 9 -10z m-1137 -9 c10 -6 10 -10 -3 -21 -13 -11 -15 -10
-9 3 3 10 -1 17 -13 20 -12 3 -13 5 -3 6 8 0 21 -3 28 -8z m842 -25 c0 -3 -4
-8 -10 -11 -5 -3 -10 -1 -10 4 0 6 5 11 10 11 6 0 10 -2 10 -4z m35 -24 c-3
-3 -11 0 -18 7 -9 10 -8 11 6 5 10 -3 15 -9 12 -12z m236 -26 c-13 -15 -65
-16 -78 -2 -4 5 -3 6 4 2 7 -4 22 -2 33 4 15 8 20 8 20 -2 0 -9 3 -9 13 1 10
11 9 14 -1 18 -6 3 -9 9 -6 15 4 7 10 4 16 -6 6 -11 6 -22 -1 -30z m-1141 13
c0 -5 -5 -9 -11 -9 -6 0 -9 -7 -5 -15 3 -9 0 -15 -9 -15 -9 0 -15 9 -15 21 0
18 -2 19 -15 9 -17 -14 -21 0 -4 17 11 11 59 5 59 -8z m907 -24 c0 -8 -4 -12
-9 -9 -5 3 -6 10 -3 15 9 13 12 11 12 -6z m473 5 c0 -5 -3 -10 -7 -10 -5 0
-19 -3 -33 -6 l-25 -6 25 15 c31 18 40 20 40 7z m-1465 -10 c3 -5 -3 -10 -14
-10 -12 0 -21 5 -21 10 0 6 6 10 14 10 8 0 18 -4 21 -10z m695 1 c0 -12 -20
-25 -27 -18 -7 7 6 27 18 27 5 0 9 -4 9 -9z m-40 -19 c0 -4 -14 -13 -31 -21
-20 -9 -27 -16 -19 -21 15 -9 -15 -24 -53 -25 -43 -1 -30 28 18 40 22 5 42 12
45 16 4 5 20 13 38 18 1 1 2 -2 2 -7z m540 -2 c0 -5 -2 -10 -4 -10 -3 0 -8 5
-11 10 -3 6 -1 10 4 10 6 0 11 -4 11 -10z m-435 -18 c-9 -9 -39 -12 -55 -6
-12 5 -11 8 5 14 21 7 60 1 50 -8z m-783 -22 c-26 -24 -32 -25 -32 -4 0 8 4
13 8 10 4 -2 14 -1 22 5 24 15 25 10 2 -11z m713 9 c11 -17 -1 -21 -37 -13
-32 7 -32 8 -8 15 36 10 38 10 45 -2z m-405 -9 c0 -5 -2 -10 -4 -10 -3 0 -8 5
-11 10 -3 6 -1 10 4 10 6 0 11 -4 11 -10z m-250 -13 c-8 -7 -14 -22 -12 -35 3
-22 4 -23 17 -5 14 17 14 17 15 -4 0 -16 6 -23 20 -23 12 0 20 7 20 16 0 11 5
14 18 9 23 -9 22 -9 70 0 23 4 42 11 42 15 0 5 10 6 22 2 12 -3 19 -1 15 4 -3
6 9 11 29 11 47 1 43 -11 -8 -26 -116 -35 -143 -47 -142 -64 1 -9 -5 -17 -13
-17 -8 0 -11 5 -7 11 5 9 -1 10 -22 5 -16 -4 -30 -11 -32 -15 -9 -25 -30 -43
-42 -36 -10 6 -9 11 5 21 16 12 15 13 -14 11 -19 -1 -29 -7 -27 -14 6 -14 -75
-24 -89 -11 -6 6 -4 7 6 3 11 -4 18 0 22 14 3 13 13 21 27 21 11 0 20 6 19 13
-3 27 2 38 19 35 11 -2 17 3 17 17 0 14 -6 19 -20 18 -18 -2 -18 -1 3 9 12 6
22 15 22 20 0 4 8 8 18 8 15 -1 15 -2 2 -13z m475 3 c3 -5 -1 -10 -11 -10 -13
0 -14 -3 -4 -15 7 -9 23 -13 36 -11 13 3 24 0 24 -5 0 -5 -16 -9 -35 -9 -24 0
-35 5 -35 15 0 8 -5 15 -11 15 -8 0 -8 5 1 15 14 17 26 19 35 5z m725 -10 c0
-5 -4 -10 -10 -10 -5 0 -10 5 -10 10 0 6 5 10 10 10 6 0 10 -4 10 -10z m-784
-13 c4 -4 -2 -16 -13 -26 -15 -14 -24 -16 -38 -9 -12 7 -20 7 -25 -2 -6 -9
-13 -9 -29 -1 -28 15 -27 18 8 18 16 0 36 7 45 15 16 16 39 18 52 5z m-483
-11 c6 -15 -11 -36 -27 -36 -6 0 -3 7 7 14 19 14 7 33 -13 21 -5 -3 -10 -1
-10 4 0 16 37 13 43 -3z m1367 4 c0 -5 -2 -10 -4 -10 -3 0 -8 5 -11 10 -3 6
-1 10 4 10 6 0 11 -4 11 -10z m970 6 c0 -3 -4 -8 -10 -11 -5 -3 -10 -1 -10 4
0 6 5 11 10 11 6 0 10 -2 10 -4z m91 -23 c13 -17 13 -17 -6 -3 -11 8 -22 16
-24 17 -2 2 0 3 6 3 6 0 17 -8 24 -17z m-2601 -13 c0 -5 -5 -10 -11 -10 -5 0
-7 5 -4 10 3 6 8 10 11 10 2 0 4 -4 4 -10z m684 -5 c3 -8 1 -15 -4 -15 -6 0
-10 7 -10 15 0 8 2 15 4 15 2 0 6 -7 10 -15z m-546 -18 c28 -1 9 -15 -30 -22
-24 -4 -49 -9 -55 -11 -7 -1 -13 2 -13 7 0 8 22 13 43 10 4 0 7 6 7 15 0 11 5
14 18 9 9 -4 23 -8 30 -8z m321 -1 c-2 -2 -17 -6 -34 -10 -22 -5 -26 -4 -15 4
14 9 59 15 49 6z m159 -12 c-8 -9 -24 -14 -34 -11 -17 3 -16 5 6 15 36 16 47
14 28 -4z m-228 -4 c0 -5 -5 -10 -11 -10 -5 0 -7 5 -4 10 3 6 8 10 11 10 2 0
4 -4 4 -10z m1055 0 c3 -5 1 -10 -4 -10 -6 0 -11 5 -11 10 0 6 2 10 4 10 3 0
8 -4 11 -10z m404 1 c10 -7 7 -9 -12 -8 -14 1 -23 5 -20 10 6 9 15 9 32 -2z
m-504 -19 c-3 -3 -11 0 -18 7 -9 10 -8 11 6 5 10 -3 15 -9 12 -12z m40 8 c3
-5 -1 -10 -9 -10 -9 0 -16 5 -16 10 0 6 4 10 9 10 6 0 13 -4 16 -10z m-912 -7
c-7 -2 -19 -2 -25 0 -7 3 -2 5 12 5 14 0 19 -2 13 -5z m-173 -13 c-8 -5 -19
-10 -25 -10 -5 0 -3 5 5 10 8 5 20 10 25 10 6 0 3 -5 -5 -10z m2380 1 c0 -5
-7 -11 -14 -14 -10 -4 -13 -1 -9 9 6 15 23 19 23 5z m-2903 -7 c-3 -3 -12 -4
-19 -1 -8 3 -5 6 6 6 11 1 17 -2 13 -5z m2656 -37 c-6 -10 -33 18 -33 34 0 8
7 5 19 -7 10 -10 16 -22 14 -27z m-978 7 c-38 -19 -44 -17 -16 6 12 11 27 17
33 14 5 -3 -3 -12 -17 -20z m220 -12 c-8 -2 -13 -8 -10 -13 3 -5 0 -6 -8 -3
-8 3 -20 -2 -27 -11 -7 -8 -24 -15 -39 -14 -26 0 -26 0 -3 9 28 12 40 39 21
51 -11 7 -11 9 3 9 9 0 18 -6 21 -12 3 -9 7 -8 12 4 6 15 8 15 26 0 17 -14 17
-18 4 -20z m-1571 13 c10 -8 23 -12 29 -8 6 3 7 1 3 -5 -4 -7 -17 -12 -28 -12
-12 0 -18 3 -15 7 4 3 -1 12 -11 19 -9 7 -12 13 -7 13 6 0 19 -6 29 -14z m216
7 c0 -5 -7 -9 -15 -9 -8 0 -15 4 -15 9 0 4 7 8 15 8 8 0 15 -4 15 -8z m2250
-2 c0 -13 -11 -13 -30 0 -12 8 -11 10 8 10 12 0 22 -4 22 -10z m-752 -18 c6
-18 -15 -14 -22 4 -4 10 -1 14 6 12 6 -2 14 -10 16 -16z m-1588 -12 c0 -5 -5
-10 -11 -10 -5 0 -7 5 -4 10 3 6 8 10 11 10 2 0 4 -4 4 -10z m1163 -2 c-17
-28 -10 -35 26 -33 20 2 45 4 55 4 20 1 20 1 0 16 -22 16 -23 16 34 21 28 2
41 0 37 -7 -4 -6 -13 -8 -20 -5 -8 3 -16 -5 -20 -21 -4 -17 -11 -23 -22 -19
-11 5 -14 2 -9 -10 3 -8 6 -19 6 -22 0 -12 86 -6 121 8 19 7 44 22 57 33 12
11 22 15 22 9 0 -6 -8 -16 -17 -22 -12 -8 -14 -13 -6 -16 7 -3 9 -12 6 -20 -3
-7 -9 -11 -14 -8 -10 6 -76 -23 -85 -38 -4 -6 4 -4 17 3 13 7 24 11 24 9 0 -2
17 2 38 9 20 7 37 17 37 22 0 6 4 7 10 4 5 -3 19 -1 30 5 14 7 20 7 20 0 0 -6
-12 -16 -27 -22 l-28 -11 24 -6 c22 -6 22 -7 7 -20 -9 -8 -15 -20 -12 -27 3
-7 -4 -16 -15 -19 -10 -4 -19 -11 -19 -16 0 -9 -35 -7 -45 3 -3 3 8 10 24 16
17 6 31 13 31 16 0 7 -27 2 -57 -10 l-22 -9 30 -32 30 -32 20 20 c27 27 68 41
97 34 l23 -6 -22 -18 c-23 -18 -59 -17 -59 1 0 6 -11 0 -24 -13 -19 -19 -82
-42 -63 -23 12 12 -18 32 -38 24 -11 -4 -25 -5 -31 -3 -6 2 -14 -5 -17 -17 -5
-20 -37 -29 -37 -9 0 5 -4 8 -10 4 -5 -3 -6 -13 -3 -23 6 -15 5 -16 -12 -2
-16 13 -18 13 -13 0 7 -23 50 -24 74 -1 15 13 25 16 32 9 7 -7 14 -3 23 13
l12 23 9 -23 c5 -15 13 -21 23 -17 9 3 15 0 15 -10 0 -11 -6 -13 -19 -9 -11 3
-22 1 -26 -5 -3 -5 1 -10 9 -10 9 0 16 -5 16 -11 0 -5 -4 -8 -9 -5 -16 10 -73
-15 -67 -30 3 -9 0 -11 -12 -7 -28 10 -42 25 -35 36 3 6 1 7 -6 3 -6 -4 -9
-12 -6 -17 4 -5 3 -9 -2 -10 -22 -2 -60 -10 -73 -16 -8 -3 -27 -5 -42 -4 -22
2 -27 -1 -22 -13 7 -18 -11 -22 -21 -6 -5 8 -11 7 -21 -1 -13 -11 -62 -7 -101
8 -11 4 -14 2 -9 -5 5 -8 0 -12 -13 -12 -11 0 -22 4 -25 8 -6 11 70 45 83 38
5 -3 26 1 47 10 22 9 40 16 42 15 8 -4 22 0 22 7 0 10 -36 9 -46 -1 -4 -4 -17
-7 -30 -7 -12 0 -52 -9 -89 -21 -51 -15 -65 -24 -61 -35 3 -9 -1 -25 -9 -37
-8 -12 -15 -16 -15 -9 0 7 -3 11 -7 9 -5 -3 -14 1 -21 9 -11 12 -9 14 13 14
14 0 24 4 21 8 -3 5 -19 7 -36 4 -16 -2 -37 1 -44 7 -11 10 -23 8 -55 -8 -23
-10 -60 -22 -84 -25 -23 -3 -34 -3 -24 2 10 4 18 12 17 16 -1 5 4 12 11 17 10
6 10 9 -4 13 -47 16 -52 18 -39 23 32 12 5 21 -53 17 -36 -2 -65 -2 -65 1 0 2
19 9 43 15 23 6 59 16 80 22 31 9 40 9 47 -2 6 -10 15 -8 40 13 18 16 45 28
63 28 24 1 26 3 10 6 -23 4 -32 23 -12 23 7 0 19 8 28 18 20 23 58 34 65 18 2
-6 5 2 5 18 1 21 -3 27 -13 23 -10 -4 -13 -1 -10 7 3 8 21 13 42 13 20 1 64
10 97 21 63 22 63 25 3 22 -25 -1 -38 3 -38 11 0 7 3 10 6 6 4 -3 13 1 21 9 8
8 19 12 24 8 5 -3 12 2 15 10 5 12 11 13 24 6 15 -8 22 -5 36 12 12 17 15 18
10 5 -3 -10 -6 -23 -6 -29 0 -6 -12 -8 -32 -4 l-32 6 22 -20 c21 -20 23 -20
47 -3 13 10 22 24 20 31 -3 8 0 10 7 6 7 -5 9 -2 5 9 -4 10 0 17 11 20 9 3 18
5 20 6 2 0 0 -5 -5 -11z m380 -16 c-4 -10 -8 -12 -11 -4 -2 7 -11 12 -20 12
-14 0 -14 2 -3 9 20 13 41 2 34 -17z m-62 1 c13 -16 12 -17 -3 -4 -10 7 -18
15 -18 17 0 8 8 3 21 -13z m-1421 -3 c0 -5 -8 -10 -17 -10 -15 0 -16 2 -3 10
19 12 20 12 20 0z m-135 -10 c-4 -6 -15 -8 -26 -5 -10 4 -19 2 -19 -3 0 -6 -6
-12 -14 -15 -10 -4 -14 0 -13 14 1 15 9 19 40 19 24 0 36 -4 32 -10z m178 -5
c-3 -9 -8 -14 -10 -11 -3 3 -2 9 2 15 9 16 15 13 8 -4z m-448 -4 c-17 -15 -55
-23 -55 -11 0 6 4 9 8 6 4 -2 14 -1 22 5 19 12 37 12 25 0z m1670 -1 c-7 -11
-45 -19 -45 -10 0 9 17 17 37 17 7 0 10 -4 8 -7z m-1345 -10 c0 -5 -5 -10 -11
-10 -5 0 -7 5 -4 10 3 6 8 10 11 10 2 0 4 -4 4 -10z m-201 -26 c-50 -18 -59
-16 -19 5 19 11 39 16 44 13 6 -3 -6 -11 -25 -18z m1711 16 c0 -5 -5 -10 -11
-10 -5 0 -7 5 -4 10 3 6 8 10 11 10 2 0 4 -4 4 -10z m-2030 -10 c0 -5 -4 -10
-9 -10 -6 0 -13 5 -16 10 -3 6 1 10 9 10 9 0 16 -4 16 -10z m200 6 c0 -3 -4
-8 -10 -11 -5 -3 -10 -1 -10 4 0 6 5 11 10 11 6 0 10 -2 10 -4z m50 -26 c0 -5
-15 -10 -32 -9 -28 0 -30 2 -13 9 28 12 45 12 45 0z m1825 -60 c-3 -5 -14 -10
-23 -9 -14 0 -13 2 3 9 27 11 27 11 20 0z m-735 -39 c0 -14 -26 -32 -35 -23
-5 4 -5 -1 -2 -10 5 -15 1 -18 -23 -18 -20 0 -30 5 -30 15 0 8 6 12 13 9 8 -3
25 4 38 15 26 22 39 26 39 12z m-95 -61 c3 -5 1 -10 -4 -10 -6 0 -11 5 -11 10
0 6 2 10 4 10 3 0 8 -4 11 -10z m1873 -9 c3 -8 -1 -12 -9 -9 -7 2 -15 10 -17
17 -3 8 1 12 9 9 7 -2 15 -10 17 -17z m-1903 -1 c-3 -5 -16 -10 -28 -9 -21 0
-21 1 -2 9 28 12 37 12 30 0z m828 -7 c-7 -2 -21 -2 -30 0 -10 3 -4 5 12 5 17
0 24 -2 18 -5z m1067 -31 c0 -14 -11 -21 -26 -15 -21 8 -17 23 6 23 11 0 20
-4 20 -8z m20 -22 c0 -5 -4 -10 -10 -10 -5 0 -10 5 -10 10 0 6 5 10 10 10 6 0
10 -4 10 -10z m-2027 -44 c-3 -6 -1 -6 8 2 18 17 40 15 68 -7 l23 -18 -27 -28
c-14 -17 -29 -25 -33 -20 -10 14 -32 17 -32 4 0 -5 -5 -7 -10 -4 -15 10 -43
-3 -35 -15 4 -7 12 -7 18 -2 7 4 28 5 47 1 19 -3 28 -8 20 -9 -8 -1 -24 -4
-35 -6 -11 -2 -38 -8 -60 -13 -55 -14 -62 -14 -39 5 19 15 18 15 -3 11 -36 -8
-27 10 12 23 50 16 43 25 -20 26 -30 1 -55 -2 -55 -6 0 -4 -10 -10 -22 -13
-21 -6 -21 -6 -2 14 11 11 34 21 52 23 53 7 71 16 65 32 -7 19 7 18 22 -2 11
-16 12 -16 18 0 5 11 3 15 -5 10 -7 -4 -8 -3 -4 4 9 15 38 3 29 -12z m1965 10
c-7 -8 -15 -12 -17 -11 -5 6 10 25 20 25 5 0 4 -6 -3 -14z m-1138 0 c0 -3 -4
-8 -10 -11 -5 -3 -10 -1 -10 4 0 6 5 11 10 11 6 0 10 -2 10 -4z m1190 -16 c0
-5 -4 -10 -10 -10 -5 0 -10 5 -10 10 0 6 5 10 10 10 6 0 10 -4 10 -10z m-1285
-20 c3 -5 -1 -10 -9 -10 -8 0 -18 5 -21 10 -3 6 1 10 9 10 8 0 18 -4 21 -10z
m150 0 c-3 -5 -11 -10 -16 -10 -6 0 -7 5 -4 10 3 6 11 10 16 10 6 0 7 -4 4
-10z m1119 -35 c-18 -28 -34 -33 -34 -11 0 8 -6 17 -12 20 -7 3 -1 4 15 2 15
-2 27 1 27 5 0 5 5 9 10 9 6 0 3 -11 -6 -25z m-1734 0 c-7 -8 -19 -15 -26 -15
-8 0 -20 -16 -29 -36 -8 -19 -19 -33 -24 -30 -5 4 -16 -3 -24 -14 -13 -18 -15
-19 -21 -5 -3 9 -2 13 4 10 6 -3 10 -1 10 4 0 6 -6 11 -14 11 -8 0 -17 11 -20
25 -4 14 -13 25 -22 25 -8 0 -13 4 -10 9 3 5 17 9 31 9 20 0 23 -3 15 -13 -8
-10 -6 -16 7 -24 14 -8 15 -11 3 -11 -12 0 -11 -3 2 -11 23 -13 62 7 54 27 -3
8 -1 14 5 14 6 0 7 5 4 10 -4 6 -10 8 -15 5 -5 -3 -11 -1 -15 5 -8 13 18 13
31 0 6 -6 18 -4 34 4 33 19 35 19 20 1z m-394 -32 c-4 -23 -54 -42 -86 -32
-19 5 -20 7 -6 8 10 1 25 9 32 19 13 16 14 16 7 -3 -6 -18 -5 -18 21 3 34 26
35 27 32 5z m424 7 c0 -5 -4 -10 -10 -10 -5 0 -10 5 -10 10 0 6 5 10 10 10 6
0 10 -4 10 -10z m-202 -35 c-3 -3 -9 2 -12 12 -6 14 -5 15 5 6 7 -7 10 -15 7
-18z m-43 5 c3 -5 1 -10 -4 -10 -6 0 -11 5 -11 10 0 6 2 10 4 10 3 0 8 -4 11
-10z m-65 -20 c0 -5 -8 -10 -17 -10 -15 0 -16 2 -3 10 19 12 20 12 20 0z
m-223 -16 c-3 -3 -12 -4 -19 -1 -8 3 -5 6 6 6 11 1 17 -2 13 -5z m2417 -25
c-16 -18 -16 -21 -2 -35 14 -14 16 -14 21 0 4 9 2 16 -3 16 -6 0 -10 5 -10 10
0 6 7 10 15 10 11 0 14 -10 13 -40 -1 -39 -10 -51 -23 -30 -3 6 -12 10 -18 10
-8 0 -8 -3 1 -9 10 -6 9 -10 -7 -14 -12 -3 -19 -1 -15 4 3 5 0 9 -7 9 -10 0
-10 3 -2 11 6 6 9 17 7 24 -3 7 -1 16 5 19 6 4 7 14 4 23 -4 11 -3 14 5 9 7
-4 12 -2 12 4 0 6 5 8 11 5 7 -5 4 -14 -7 -26z m-2274 -9 c-8 -5 -17 -7 -19
-4 -3 3 1 9 9 14 8 5 17 7 19 4 3 -3 -1 -9 -9 -14z m-85 -10 c3 -5 -1 -10 -10
-10 -9 0 -13 5 -10 10 3 6 8 10 10 10 2 0 7 -4 10 -10z m2160 -30 c3 -5 1 -10
-4 -10 -6 0 -11 5 -11 10 0 6 2 10 4 10 3 0 8 -4 11 -10z m239 -62 c-10 -12
-13 -18 -6 -14 7 4 12 1 12 -8 0 -23 -18 -20 -25 5 -6 19 -8 19 -31 4 -15 -9
-24 -11 -24 -4 0 6 9 13 20 16 11 3 20 8 20 12 0 4 12 8 27 9 26 2 26 2 7 -20z
m-2274 -2 c0 -3 -4 -8 -10 -11 -5 -3 -10 -1 -10 4 0 6 5 11 10 11 6 0 10 -2
10 -4z m2026 -23 c-3 -8 -6 -17 -6 -19 0 -2 -5 -4 -11 -4 -6 0 -8 7 -5 16 3 8
2 12 -4 9 -11 -7 -14 8 -4 18 11 11 35 -5 30 -20z m-31 -34 c11 -16 1 -19 -13
-3 -7 8 -8 14 -3 14 5 0 13 -5 16 -11z m256 -8 c-6 -10 -7 -21 -4 -25 3 -3 -1
-6 -11 -6 -17 0 -15 9 7 38 14 18 19 15 8 -7z m-96 -21 c3 -5 -1 -10 -9 -10
-9 0 -16 5 -16 10 0 6 4 10 9 10 6 0 13 -4 16 -10z m-1980 -26 c10 3 14 2 9
-5 -3 -6 -17 -8 -29 -5 -13 3 -25 1 -27 -4 -4 -13 -68 -31 -68 -19 0 5 11 11
25 15 13 3 29 12 36 20 9 11 15 11 25 3 8 -6 21 -9 29 -5z m172 10 c-3 -3 -12
-4 -19 -1 -8 3 -5 6 6 6 11 1 17 -2 13 -5z m-77 -27 c-18 -14 -24 -37 -10 -37
6 0 10 4 10 8 0 4 9 8 20 9 46 4 6 -27 -62 -47 -17 -5 -28 -5 -28 1 0 5 -4 9
-10 9 -5 0 -10 -9 -10 -19 0 -14 -5 -18 -19 -14 -18 5 -17 8 12 34 17 16 26
29 20 29 -7 0 -15 -4 -18 -10 -3 -5 -15 -10 -26 -10 -11 0 -17 -4 -14 -10 3
-5 -1 -10 -9 -10 -9 0 -13 -6 -10 -13 3 -8 -6 -18 -21 -25 -14 -6 -25 -7 -25
-3 0 5 8 11 17 13 9 2 17 13 18 25 1 12 -2 20 -7 17 -4 -3 -8 0 -8 5 0 6 6 12
13 13 21 2 32 5 47 11 27 12 105 35 120 36 13 0 13 -1 0 -12z m197 7 c-3 -3
-12 -4 -19 -1 -8 3 -5 6 6 6 11 1 17 -2 13 -5z m1683 2 c0 -2 -7 -7 -16 -10
-8 -3 -12 -2 -9 4 6 10 25 14 25 6z m174 -11 c-4 -8 -2 -15 4 -15 6 0 8 -9 5
-20 -3 -11 -1 -20 5 -20 6 0 9 -8 7 -17 -2 -10 -4 -20 -4 -22 -1 -3 -5 -1 -10
5 -12 11 -23 83 -15 95 9 14 14 10 8 -6z m-71 -2 c3 -5 -5 -8 -18 -8 -13 0
-21 3 -18 8 2 4 10 7 18 7 8 0 16 -3 18 -7z m-2213 -13 c0 -5 -4 -10 -10 -10
-5 0 -10 5 -10 10 0 6 5 10 10 10 6 0 10 -4 10 -10z m364 -21 c-13 -15 -14
-19 -3 -19 10 -1 9 -4 -4 -11 -26 -15 -61 11 -44 33 12 17 46 28 60 20 5 -2 1
-13 -9 -23z m151 11 c4 -6 -7 -10 -27 -10 -25 0 -29 3 -18 10 19 13 37 13 45
0z m1728 -27 c-3 -16 -5 -41 -5 -58 l0 -30 -10 28 c-7 20 -7 32 1 40 7 7 5 14
-7 24 -9 8 -11 12 -4 8 6 -3 12 -1 12 4 0 6 4 11 9 11 4 0 6 -12 4 -27z
m-1838 7 c3 -5 -1 -10 -10 -10 -9 0 -13 5 -10 10 3 6 8 10 10 10 2 0 7 -4 10
-10z m215 -10 c0 -5 -4 -10 -10 -10 -5 0 -10 5 -10 10 0 6 5 10 10 10 6 0 10
-4 10 -10z m-615 -10 c-3 -5 -11 -10 -16 -10 -6 0 -7 5 -4 10 3 6 11 10 16 10
6 0 7 -4 4 -10z m40 -1 c11 -16 1 -19 -13 -3 -7 8 -8 14 -3 14 5 0 13 -5 16
-11z m255 -6 c0 -7 -72 -35 -77 -30 -2 3 9 11 26 18 16 7 27 17 25 21 -3 4 2
5 10 2 9 -3 16 -8 16 -11z m496 6 c13 5 26 6 29 2 5 -9 -35 -28 -70 -33 -14
-2 -20 3 -21 19 -1 19 1 21 19 12 14 -8 26 -8 43 0z m-925 -30 c-26 -21 -64
-28 -43 -7 6 6 20 13 29 14 10 2 19 8 21 14 2 6 7 8 11 5 3 -4 -5 -15 -18 -26z
m839 2 c0 -5 -7 -12 -16 -15 -14 -5 -15 -4 -4 9 14 17 20 19 20 6z m1616 -30
c10 -25 9 -28 -7 -24 -19 5 -32 29 -23 44 9 16 19 10 30 -20z m-2066 -11 c-24
-15 -36 -11 -14 4 10 8 21 12 24 10 2 -3 -2 -9 -10 -14z m660 10 c0 -9 -29
-15 -52 -11 -5 0 -8 -3 -8 -9 0 -5 -5 -10 -11 -10 -23 0 -1 25 27 31 44 10 44
10 44 -1z m1434 -81 c15 -29 14 -30 -7 -24 -22 5 -22 5 -1 -6 16 -8 20 -17 16
-37 -5 -26 -31 -62 -33 -45 0 4 -2 28 -4 53 -2 24 -9 46 -14 48 -6 2 -11 8
-11 14 0 5 9 7 20 3 15 -5 18 -3 14 9 -11 28 4 17 20 -15z m-84 -30 c0 -5 -7
-9 -16 -9 -8 0 -12 -4 -9 -10 3 -5 2 -10 -3 -10 -5 0 -9 11 -9 24 0 18 4 22
18 19 11 -3 19 -9 19 -14z m40 1 c0 -5 -4 -10 -10 -10 -5 0 -10 5 -10 10 0 6
5 10 10 10 6 0 10 -4 10 -10z m-240 -35 c-7 -8 -20 -15 -29 -15 -11 0 -8 5 9
14 33 19 35 19 20 1z m241 -138 c-10 -9 -11 -8 -5 6 3 10 9 15 12 12 3 -3 0
-11 -7 -18z m104 -14 c0 -6 3 -15 8 -19 4 -4 7 -16 7 -26 0 -11 4 -17 9 -14
13 8 20 -16 14 -47 -6 -28 -23 -38 -23 -12 0 8 -4 15 -8 15 -5 0 -17 19 -26
43 -10 23 -20 37 -23 30 -2 -7 -11 -9 -19 -6 -23 9 -16 20 11 18 14 -2 25 1
25 6 0 5 -6 9 -12 9 -9 0 -8 4 2 10 18 11 35 8 35 -7z m-53 -92 c8 12 9 12 6
0 -7 -25 -28 -24 -27 1 1 19 2 20 6 4 4 -15 7 -16 15 -5z m118 -46 c1 13 40
-65 40 -79 0 -6 16 -24 35 -41 33 -28 36 -34 36 -85 1 -53 -23 -128 -43 -141
-6 -4 -10 -19 -10 -33 0 -15 -8 -31 -18 -36 -10 -5 -23 -29 -31 -53 -8 -29
-18 -44 -28 -43 -12 1 -16 -8 -15 -31 1 -18 -2 -33 -6 -33 -4 0 -7 -8 -6 -17
1 -13 -6 -18 -26 -17 -17 1 -28 -4 -28 -12 0 -7 -9 -16 -20 -19 -11 -3 -20
-11 -20 -16 0 -5 -12 -9 -27 -9 -22 0 -25 2 -13 10 8 5 11 10 6 10 -5 0 3 9
18 21 14 11 24 24 21 28 -2 5 7 19 20 31 28 26 35 50 8 29 -15 -13 -15 -12 -2
9 8 12 17 22 21 22 5 0 8 10 8 22 0 12 3 18 7 15 11 -11 44 25 34 37 -8 11 32
100 41 90 8 -8 -1 100 -13 151 -7 28 -19 56 -28 63 -9 8 -10 11 -3 7 16 -8 19
21 7 79 -7 33 13 66 26 44 5 -7 9 -8 9 -3z m-73 -51 c-3 -3 -12 -4 -19 -1 -8
3 -5 6 6 6 11 1 17 -2 13 -5z m-39 -44 c-9 -13 -14 -16 -20 -7 -4 6 -2 15 5
19 21 14 28 9 15 -12z m82 10 c0 -5 -9 -10 -21 -10 -11 0 -17 5 -14 10 3 6 13
10 21 10 8 0 14 -4 14 -10z m-72 -67 c-6 -7 -15 -10 -21 -6 -6 4 -3 9 9 14 10
4 14 8 7 8 -7 1 -10 8 -6 18 6 15 7 14 14 -3 3 -10 2 -25 -3 -31z m602 -101
c0 -5 -7 -9 -15 -9 -8 0 -15 4 -15 9 0 4 7 8 15 8 8 0 15 -4 15 -8z m-520
-501 c0 -5 -7 -11 -15 -15 -15 -5 -20 5 -8 17 9 10 23 9 23 -2z m-3400 -291
c0 -5 -5 -10 -11 -10 -5 0 -7 5 -4 10 3 6 8 10 11 10 2 0 4 -4 4 -10z m-5 -30
c3 -5 2 -10 -4 -10 -5 0 -13 5 -16 10 -3 6 -2 10 4 10 5 0 13 -4 16 -10z m355
-4 c0 -3 -4 -8 -10 -11 -5 -3 -10 -1 -10 4 0 6 5 11 10 11 6 0 10 -2 10 -4z
m-920 -26 c0 -5 -5 -10 -11 -10 -5 0 -7 5 -4 10 3 6 8 10 11 10 2 0 4 -4 4
-10z m-20 -31 c0 -6 -4 -7 -10 -4 -5 3 -10 11 -10 16 0 6 5 7 10 4 6 -3 10
-11 10 -16z m-155 -59 c-3 -5 -12 -7 -20 -3 -8 3 -15 -1 -15 -8 0 -7 -3 -10
-6 -6 -10 10 6 27 27 27 11 0 18 -4 14 -10z m-60 -20 c-3 -5 -11 -10 -16 -10
-6 0 -7 5 -4 10 3 6 11 10 16 10 6 0 7 -4 4 -10z m-51 -135 c4 -13 10 -14 26
-5 17 9 20 8 20 -8 0 -12 -7 -18 -19 -17 -21 1 -51 23 -51 36 0 15 17 10 24
-6z m-26 -76 c-20 -13 -28 -11 -22 5 3 8 12 12 21 9 12 -5 12 -7 1 -14z m2022
-79 c0 -5 -2 -10 -4 -10 -3 0 -8 5 -11 10 -3 6 -1 10 4 10 6 0 11 -4 11 -10z
m-40 -34 c0 -11 -19 -15 -25 -6 -3 5 1 10 9 10 9 0 16 -2 16 -4z"/>
<path d="M5292 6908 c-7 -7 -12 -9 -12 -5 0 4 -10 -1 -22 -12 -11 -11 -24 -18
-28 -16 -5 3 -10 -2 -14 -10 -8 -22 18 -18 39 5 10 11 24 20 31 20 13 0 29 18
22 25 -2 3 -10 -1 -16 -7z"/>
<path d="M5090 6819 c0 -5 5 -7 10 -4 6 3 10 8 10 11 0 2 -4 4 -10 4 -5 0 -10
-5 -10 -11z"/>
<path d="M5420 5689 c0 -5 5 -7 10 -4 6 3 10 8 10 11 0 2 -4 4 -10 4 -5 0 -10
-5 -10 -11z"/>
<path d="M5474 5659 c-3 -6 -2 -15 3 -20 5 -5 9 -1 9 11 0 23 -2 24 -12 9z"/>
<path d="M5503 5640 c0 -20 3 -26 9 -18 10 17 10 48 0 48 -5 0 -9 -14 -9 -30z"/>
<path d="M5535 5624 c-13 -20 -14 -28 -5 -34 9 -6 9 -13 1 -28 -9 -17 -8 -19
10 -15 13 4 25 -1 34 -13 15 -21 28 -13 40 24 6 20 5 21 -21 12 -15 -6 -29 -8
-32 -5 -3 3 0 5 6 5 7 0 12 7 12 15 0 9 6 12 18 9 13 -5 14 -4 3 4 -8 5 -24 9
-37 7 -20 -2 -22 0 -13 17 16 30 4 32 -16 2z"/>
<path d="M4750 5516 c0 -21 48 -59 65 -52 19 7 11 26 -11 26 -8 0 -14 6 -14
14 0 7 -9 16 -20 19 -12 3 -20 0 -20 -7z"/>
<path d="M4830 5449 c0 -6 7 -8 16 -5 12 4 15 2 10 -9 -3 -10 1 -15 13 -15 30
0 32 12 5 27 -32 16 -44 17 -44 2z"/>
<path d="M4970 5390 c0 -5 5 -10 10 -10 6 0 10 5 10 10 0 6 -4 10 -10 10 -5 0
-10 -4 -10 -10z"/>
<path d="M5370 5339 c0 -5 -5 -7 -10 -4 -10 6 7 -42 21 -58 4 -5 19 -1 33 8
14 10 26 14 26 11 0 -4 8 -2 18 3 12 6 23 6 28 1 11 -11 54 -2 54 11 0 5 -7 9
-15 9 -8 0 -15 6 -15 14 0 15 -52 14 -58 -2 -3 -11 -50 -3 -58 9 -7 12 -24 11
-24 -2z m30 -49 c0 -5 -5 -10 -11 -10 -5 0 -7 5 -4 10 3 6 8 10 11 10 2 0 4
-4 4 -10z"/>
<path d="M5085 5330 c-3 -5 -2 -10 4 -10 5 0 13 5 16 10 3 6 2 10 -4 10 -5 0
-13 -4 -16 -10z"/>
<path d="M5637 5323 c-9 -2 -15 -9 -12 -14 4 -5 1 -9 -4 -9 -6 0 -3 -9 5 -19
14 -16 22 -17 45 -9 16 5 29 13 29 17 0 6 -38 42 -43 40 -1 -1 -10 -3 -20 -6z"/>
<path d="M5536 5289 c-13 -13 -14 -18 -5 -21 23 -8 57 4 62 20 5 23 -34 23
-57 1z"/>
<path d="M5550 5239 c0 -5 5 -7 10 -4 6 3 10 8 10 11 0 2 -4 4 -10 4 -5 0 -10
-5 -10 -11z"/>
<path d="M4780 5091 c0 -6 4 -13 10 -16 6 -3 7 1 4 9 -7 18 -14 21 -14 7z"/>
<path d="M6028 4973 c7 -3 16 -2 19 1 4 3 -2 6 -13 5 -11 0 -14 -3 -6 -6z"/>
<path d="M6310 4940 c0 -5 7 -10 15 -10 8 0 15 5 15 10 0 6 -7 10 -15 10 -8 0
-15 -4 -15 -10z"/>
<path d="M6388 4912 c8 -5 14 -13 15 -18 3 -15 27 -13 27 2 0 8 -4 14 -9 14
-5 0 -18 3 -28 6 -13 4 -14 3 -5 -4z"/>
<path d="M5977 4890 c4 -14 0 -20 -11 -20 -9 0 -16 -5 -16 -11 0 -6 9 -9 20
-6 11 3 20 2 20 -2 0 -4 6 -8 13 -8 6 0 21 -4 32 -7 15 -5 15 -4 -2 5 -26 14
-30 29 -9 29 24 0 26 16 3 17 -12 1 -23 7 -25 13 -7 20 -30 11 -25 -10z"/>
<path d="M4720 4880 c-9 -6 -10 -10 -3 -10 6 0 15 5 18 10 8 12 4 12 -15 0z"/>
<path d="M6176 4869 c-16 -16 -17 -19 -4 -19 9 0 19 7 22 16 9 24 4 24 -18 3z"/>
<path d="M6307 4883 c-4 -3 -7 -11 -7 -17 0 -6 5 -5 12 2 6 6 9 14 7 17 -3 3
-9 2 -12 -2z"/>
<path d="M6846 4874 c-6 -16 2 -18 22 -5 11 7 11 9 -1 14 -9 3 -18 -1 -21 -9z"/>
<path d="M6240 4860 c0 -5 7 -10 16 -10 8 0 12 5 9 10 -3 6 -10 10 -16 10 -5
0 -9 -4 -9 -10z"/>
<path d="M5232 4834 c10 -10 20 -15 24 -12 3 4 -5 12 -18 18 -22 12 -22 12 -6
-6z"/>
<path d="M6870 4841 c0 -5 9 -7 20 -4 11 3 20 7 20 9 0 2 -9 4 -20 4 -11 0
-20 -4 -20 -9z"/>
<path d="M6883 4813 c-6 -15 -39 -18 -48 -3 -9 15 -27 1 -21 -16 3 -7 1 -16
-4 -19 -19 -12 -10 -26 11 -20 25 8 98 57 99 66 0 12 -32 5 -37 -8z"/>
<path d="M5260 4805 c-10 -12 -10 -15 3 -15 19 0 31 16 18 24 -5 3 -14 -1 -21
-9z"/>
<path d="M6100 4800 c0 -5 7 -7 15 -4 8 4 15 8 15 10 0 2 -7 4 -15 4 -8 0 -15
-4 -15 -10z"/>
<path d="M6005 4780 c3 -5 10 -10 16 -10 5 0 9 5 9 10 0 6 -7 10 -16 10 -8 0
-12 -4 -9 -10z"/>
<path d="M6742 4761 c-5 -3 -6 -15 -1 -26 4 -11 8 -14 8 -6 1 11 4 11 16 1 17
-14 42 0 31 18 -8 13 -41 21 -54 13z"/>
<path d="M6874 4758 c-5 -7 -3 -8 6 -3 10 6 12 4 6 -10 -5 -15 -4 -16 9 -5 8
7 15 16 15 21 0 13 -28 11 -36 -3z"/>
<path d="M6927 4731 c-10 -12 -9 -14 6 -8 10 4 25 7 33 7 8 0 14 4 14 9 0 15
-40 9 -53 -8z"/>
<path d="M5995 4720 c3 -5 8 -10 11 -10 2 0 4 5 4 10 0 6 -5 10 -11 10 -5 0
-7 -4 -4 -10z"/>
<path d="M5197 4705 c-4 -8 3 -10 19 -7 33 6 39 20 9 20 -13 0 -26 -6 -28 -13z"/>
<path d="M5891 4693 c-6 -11 -11 -13 -11 -5 0 7 -5 10 -11 6 -8 -5 -6 -10 5
-16 43 -24 81 -13 56 17 -16 20 -27 19 -39 -2z"/>
<path d="M6675 4699 c-4 -6 -4 -13 0 -17 4 -4 10 -2 12 5 2 7 10 10 18 7 7 -3
16 -1 20 5 4 7 -4 11 -19 11 -14 0 -28 -5 -31 -11z"/>
<path d="M7046 4695 c-3 -8 -1 -15 4 -15 6 0 10 7 10 15 0 8 -2 15 -4 15 -2 0
-6 -7 -10 -15z"/>
<path d="M5965 4680 c-3 -5 -2 -10 4 -10 5 0 13 5 16 10 3 6 2 10 -4 10 -5 0
-13 -4 -16 -10z"/>
<path d="M6990 4661 c0 -10 30 -24 37 -17 3 3 2 9 -2 15 -8 13 -35 15 -35 2z"/>
<path d="M5124 4635 c-17 -13 -17 -14 -2 -15 9 0 20 5 23 11 11 17 0 20 -21 4z"/>
<path d="M5151 4596 c-15 -8 -20 -16 -12 -20 6 -4 11 -2 11 3 0 6 7 11 15 11
8 0 15 5 15 10 0 12 0 12 -29 -4z"/>
<path d="M5106 4591 c-4 -7 -5 -15 -2 -18 9 -9 19 4 14 18 -4 11 -6 11 -12 0z"/>
<path d="M5000 4580 c-9 -6 -10 -10 -3 -10 6 0 15 5 18 10 8 12 4 12 -15 0z"/>
<path d="M5920 4580 c0 -5 7 -7 15 -4 8 4 15 1 15 -6 0 -6 5 -8 11 -4 8 4 7 9
-2 15 -19 12 -39 11 -39 -1z"/>
<path d="M6628 4573 c7 -3 16 -2 19 1 4 3 -2 6 -13 5 -11 0 -14 -3 -6 -6z"/>
<path d="M7040 4551 c0 -5 5 -13 10 -16 6 -3 10 -2 10 4 0 5 -4 13 -10 16 -5
3 -10 2 -10 -4z"/>
<path d="M4950 4539 c0 -5 5 -7 10 -4 6 3 10 8 10 11 0 2 -4 4 -10 4 -5 0 -10
-5 -10 -11z"/>
<path d="M5131 4541 c-8 -5 -9 -11 -3 -15 5 -3 12 1 16 9 6 17 6 18 -13 6z"/>
<path d="M5853 4544 c4 -4 23 -8 44 -10 25 -2 32 0 23 7 -17 10 -77 13 -67 3z"/>
<path d="M7250 4540 c0 -5 5 -10 11 -10 5 0 7 5 4 10 -3 6 -8 10 -11 10 -2 0
-4 -4 -4 -10z"/>
<path d="M5018 4533 c7 -3 16 -2 19 1 4 3 -2 6 -13 5 -11 0 -14 -3 -6 -6z"/>
<path d="M7058 4519 c-14 -18 -15 -24 -4 -35 8 -7 23 -10 36 -7 18 5 21 3 16
-8 -4 -8 -1 -6 8 4 16 21 11 47 -9 47 -7 0 -16 -6 -19 -12 -4 -7 -4 -3 -2 10
5 28 -4 28 -26 1z"/>
<path d="M7150 4500 c-13 -8 -12 -10 3 -10 9 0 17 5 17 10 0 12 -1 12 -20 0z"/>
<path d="M7280 4495 c0 -8 4 -15 9 -15 5 0 11 7 15 15 3 9 0 15 -9 15 -8 0
-15 -7 -15 -15z"/>
<path d="M7253 4485 c0 -8 4 -15 9 -15 4 0 8 7 8 15 0 8 -4 15 -8 15 -5 0 -9
-7 -9 -15z"/>
<path d="M6530 4460 c0 -5 10 -10 23 -10 18 0 19 2 7 10 -19 13 -30 13 -30 0z"/>
<path d="M6590 4459 c0 -5 9 -9 20 -9 12 0 17 -5 14 -14 -3 -8 -1 -17 5 -21 6
-3 14 0 17 9 3 9 12 12 21 9 10 -4 14 -2 10 4 -4 6 -1 13 5 16 7 2 9 8 5 13
-4 5 -12 2 -17 -6 -7 -11 -16 -12 -44 -3 -20 6 -36 7 -36 2z"/>
<path d="M6005 4440 c3 -5 14 -10 23 -10 15 0 15 2 2 10 -20 13 -33 13 -25 0z"/>
<path d="M7095 4441 c3 -5 1 -12 -4 -16 -7 -4 -7 -15 -1 -31 6 -14 8 -30 4
-35 -3 -5 -1 -9 3 -9 14 0 34 40 26 53 -8 12 -9 17 -12 37 0 6 -6 10 -12 10
-5 0 -8 -4 -4 -9z"/>
<path d="M7262 4424 c-11 -12 -11 -18 -2 -29 10 -12 14 -12 26 0 8 7 11 21 8
29 -8 20 -15 20 -32 0z"/>
<path d="M5867 4393 c-3 -7 -3 -15 1 -50 3 -19 32 -16 32 3 0 11 6 14 23 9 17
-5 19 -4 7 4 -12 9 -11 11 7 11 12 0 24 4 27 9 3 4 -6 6 -19 3 -15 -2 -25 0
-25 7 0 19 -18 12 -25 -9 -3 -11 -11 -20 -18 -20 -8 0 -8 3 1 12 7 7 12 16 12
20 0 10 -18 11 -23 1z"/>
<path d="M6685 4390 c3 -5 8 -10 11 -10 2 0 4 5 4 10 0 6 -5 10 -11 10 -5 0
-7 -4 -4 -10z"/>
<path d="M6880 4390 c0 -6 7 -10 15 -10 8 0 15 2 15 4 0 2 -7 6 -15 10 -8 3
-15 1 -15 -4z"/>
<path d="M6704 4366 c-10 -27 2 -43 14 -19 8 14 9 24 2 28 -6 3 -13 -1 -16 -9z"/>
<path d="M5830 4360 c-9 -6 -10 -10 -3 -10 6 0 15 5 18 10 8 12 4 12 -15 0z"/>
<path d="M6627 4354 c-4 -4 -7 -14 -7 -23 0 -11 3 -12 11 -4 6 6 10 16 7 23
-2 6 -7 8 -11 4z"/>
<path d="M7267 4349 c7 -7 15 -10 18 -7 3 3 -2 9 -12 12 -14 6 -15 5 -6 -5z"/>
<path d="M5853 4329 c3 -9 1 -21 -5 -27 -13 -13 4 -23 21 -12 11 6 10 12 -4
31 -10 13 -15 17 -12 8z"/>
<path d="M7210 4324 c0 -8 5 -12 10 -9 6 3 10 10 10 16 0 5 -4 9 -10 9 -5 0
-10 -7 -10 -16z"/>
<path d="M7285 4310 c3 -5 8 -10 11 -10 2 0 4 5 4 10 0 6 -5 10 -11 10 -5 0
-7 -4 -4 -10z"/>
<path d="M6775 4300 c4 -6 2 -17 -4 -24 -8 -9 -6 -13 7 -14 35 -2 72 10 72 23
0 8 -7 11 -20 8 -11 -3 -20 -9 -20 -14 0 -5 -4 -9 -10 -9 -5 0 -10 9 -10 20 0
11 -5 20 -11 20 -5 0 -7 -5 -4 -10z"/>
<path d="M6860 4299 c0 -5 5 -7 10 -4 6 3 10 8 10 11 0 2 -4 4 -10 4 -5 0 -10
-5 -10 -11z"/>
<path d="M6007 4243 c3 -6 11 -9 19 -6 20 7 17 19 -5 19 -11 0 -17 -6 -14 -13z"/>
<path d="M5935 4230 c-3 -5 -1 -10 4 -10 6 0 11 5 11 10 0 6 -2 10 -4 10 -3 0
-8 -4 -11 -10z"/>
<path d="M6590 4229 c0 -5 5 -7 10 -4 6 3 10 8 10 11 0 2 -4 4 -10 4 -5 0 -10
-5 -10 -11z"/>
<path d="M6316 4214 c-5 -14 -4 -15 9 -4 17 14 19 20 6 20 -5 0 -12 -7 -15
-16z"/>
<path d="M6538 4203 c7 -3 16 -2 19 1 4 3 -2 6 -13 5 -11 0 -14 -3 -6 -6z"/>
<path d="M7140 4200 c0 -5 7 -10 16 -10 8 0 12 5 9 10 -3 6 -10 10 -16 10 -5
0 -9 -4 -9 -10z"/>
<path d="M6069 4183 c-13 -16 -12 -17 3 -5 9 8 22 11 28 7 5 -3 10 -1 10 4 0
17 -26 13 -41 -6z"/>
<path d="M6820 4182 c-37 -25 -36 -44 0 -25 17 8 30 21 30 29 0 18 0 18 -30
-4z"/>
<path d="M5968 4183 c6 -2 18 -2 25 0 6 3 1 5 -13 5 -14 0 -19 -2 -12 -5z"/>
<path d="M6350 4185 c0 -4 6 -13 14 -21 16 -15 41 -19 32 -5 -4 5 -1 12 4 14
6 3 5 4 -2 3 -7 -2 -21 1 -30 6 -10 5 -18 6 -18 3z"/>
<path d="M7485 4181 c-3 -5 -1 -12 5 -16 5 -3 10 1 10 9 0 18 -6 21 -15 7z"/>
<path d="M6726 4161 c-11 -12 -14 -21 -7 -26 14 -8 33 3 26 16 -4 5 1 9 10 9
9 0 13 5 10 10 -9 15 -20 12 -39 -9z"/>
<path d="M5390 4154 c0 -8 5 -12 10 -9 6 4 8 11 5 16 -9 14 -15 11 -15 -7z"/>
<path d="M5965 4140 c3 -5 10 -10 16 -10 5 0 9 5 9 10 0 6 -7 10 -16 10 -8 0
-12 -4 -9 -10z"/>
<path d="M6824 4133 c5 -11 2 -13 -10 -9 -11 4 -14 1 -12 -12 2 -10 11 -16 23
-14 11 2 35 4 53 5 17 0 32 5 32 9 0 4 7 8 15 8 8 0 12 6 9 14 -3 8 -13 12
-25 9 -10 -3 -16 -9 -13 -14 3 -5 -2 -6 -10 -3 -9 3 -16 9 -16 13 0 3 -12 7
-26 7 -19 2 -24 -2 -20 -13z"/>
<path d="M5880 4136 c0 -2 7 -6 15 -10 8 -3 15 -1 15 4 0 6 -7 10 -15 10 -8 0
-15 -2 -15 -4z"/>
<path d="M6091 4111 c13 -38 27 -40 27 -6 0 14 -3 23 -6 21 -3 -3 -11 -1 -18
5 -11 9 -12 6 -3 -20z"/>
<path d="M6136 4115 c-3 -9 0 -15 9 -15 8 0 15 7 15 15 0 8 -4 15 -9 15 -5 0
-11 -7 -15 -15z"/>
<path d="M6560 4119 c0 -5 5 -7 10 -4 6 3 10 8 10 11 0 2 -4 4 -10 4 -5 0 -10
-5 -10 -11z"/>
<path d="M5960 4109 c0 -5 9 -9 20 -9 11 0 20 2 20 4 0 2 -9 6 -20 9 -11 3
-20 1 -20 -4z"/>
<path d="M6757 4112 c-15 -6 -13 -9 13 -19 33 -12 33 -12 24 11 -7 17 -10 18
-37 8z"/>
<path d="M6525 4100 c-3 -5 -1 -10 4 -10 6 0 11 5 11 10 0 6 -2 10 -4 10 -3 0
-8 -4 -11 -10z"/>
<path d="M6166 4069 c-14 -11 -30 -17 -36 -14 -5 3 -10 1 -10 -4 0 -14 9 -14
49 0 17 6 31 17 31 25 0 18 -2 18 -34 -7z"/>
<path d="M6870 4079 c0 -5 5 -7 10 -4 6 3 10 8 10 11 0 2 -4 4 -10 4 -5 0 -10
-5 -10 -11z"/>
<path d="M5374 4045 c-10 -8 -14 -15 -8 -15 6 0 17 7 24 15 16 19 9 19 -16 0z"/>
<path d="M6018 4039 c-37 -21 -7 -40 36 -23 13 5 14 9 5 20 -13 16 -18 17 -41
3z"/>
<path d="M5480 4029 c0 -5 8 -9 17 -9 9 0 26 -8 37 -17 21 -18 21 -18 3 4 -19
22 -57 37 -57 22z"/>
<path d="M6196 4031 c-11 -4 -15 -10 -10 -13 5 -4 18 0 29 8 20 15 12 17 -19
5z"/>
<path d="M7510 4028 c0 -11 12 -10 30 2 12 7 10 9 -8 7 -12 0 -22 -5 -22 -9z"/>
<path d="M6660 4020 c0 -5 5 -10 11 -10 5 0 7 5 4 10 -3 6 -8 10 -11 10 -2 0
-4 -4 -4 -10z"/>
<path d="M5949 4007 c-7 -7 -27 -11 -47 -9 -25 3 -33 1 -27 -7 11 -19 115 -1
115 20 0 13 -27 11 -41 -4z"/>
<path d="M6028 3993 c6 -2 18 -2 25 0 6 3 1 5 -13 5 -14 0 -19 -2 -12 -5z"/>
<path d="M6136 3991 c-3 -5 3 -11 13 -14 14 -3 18 -1 14 9 -6 16 -19 18 -27 5z"/>
<path d="M7500 3973 c12 -18 25 -33 28 -33 11 0 13 48 3 55 -5 3 -7 -4 -4 -15
7 -26 -4 -25 -29 3 -17 19 -17 18 2 -10z"/>
<path d="M5935 3960 c-37 -17 -41 -17 -57 -3 -10 9 -21 13 -25 10 -3 -4 -1 -7
5 -7 7 0 12 -9 12 -19 0 -15 4 -18 23 -12 55 18 87 34 87 42 0 5 -1 9 -2 8 -2
0 -21 -9 -43 -19z"/>
<path d="M5515 3960 c-19 -8 -19 -9 3 -9 12 -1 22 4 22 9 0 6 -1 10 -2 9 -2 0
-12 -4 -23 -9z"/>
<path d="M6415 3960 c4 -6 11 -8 16 -5 14 9 11 15 -7 15 -8 0 -12 -5 -9 -10z"/>
<path d="M6615 3960 c-3 -5 3 -10 15 -10 12 0 18 5 15 10 -3 6 -10 10 -15 10
-5 0 -12 -4 -15 -10z"/>
<path d="M6275 3930 c-3 -5 -2 -10 4 -10 5 0 13 5 16 10 3 6 2 10 -4 10 -5 0
-13 -4 -16 -10z"/>
<path d="M5266 3901 c-12 -5 -16 -10 -9 -14 6 -4 18 -4 27 -1 9 3 16 1 16 -6
0 -6 5 -8 10 -5 9 5 -11 37 -22 34 -2 0 -12 -4 -22 -8z"/>
<path d="M5443 3903 c-13 -2 -23 -9 -23 -15 0 -5 6 -8 13 -5 6 3 20 8 30 12
10 4 17 3 17 -4 0 -6 5 -11 11 -11 8 0 8 5 -1 15 -7 8 -15 14 -19 14 -3 -1
-16 -4 -28 -6z"/>
<path d="M6495 3880 c-3 -5 -1 -10 4 -10 6 0 11 5 11 10 0 6 -2 10 -4 10 -3 0
-8 -4 -11 -10z"/>
<path d="M5205 3870 c3 -5 8 -10 11 -10 2 0 4 5 4 10 0 6 -5 10 -11 10 -5 0
-7 -4 -4 -10z"/>
<path d="M6250 3870 c-9 -6 -10 -10 -3 -10 6 0 15 5 18 10 8 12 4 12 -15 0z"/>
<path d="M5230 3855 c-9 -10 -9 -15 -1 -15 6 0 11 4 11 9 0 5 8 12 18 14 14 4
14 5 1 6 -9 0 -22 -6 -29 -14z"/>
<path d="M6517 3862 c-3 -4 1 -13 9 -19 7 -7 15 -9 17 -5 3 4 -1 13 -9 19 -7
7 -15 9 -17 5z"/>
<path d="M6207 3838 c-7 -4 -22 -5 -34 -2 -13 4 -31 3 -40 -1 -15 -5 -12 -10
17 -24 31 -15 36 -15 47 -1 11 13 14 13 24 0 9 -13 10 -12 5 3 -5 14 -2 17 13
12 10 -3 23 1 30 8 9 12 5 14 -20 13 -17 -1 -36 -4 -42 -8z"/>
<path d="M6333 3828 c-2 -16 1 -18 10 -9 7 7 8 14 1 21 -6 6 -10 2 -11 -12z"/>
<path d="M6370 3839 c0 -5 5 -7 10 -4 6 3 10 8 10 11 0 2 -4 4 -10 4 -5 0 -10
-5 -10 -11z"/>
<path d="M6472 3838 c5 -15 28 -23 28 -10 0 5 -7 13 -16 16 -10 4 -14 1 -12
-6z"/>
<path d="M5380 3830 c-8 -5 -10 -10 -5 -10 6 0 17 5 25 10 8 5 11 10 5 10 -5
0 -17 -5 -25 -10z"/>
<path d="M5345 3820 c-3 -5 -1 -10 4 -10 6 0 11 5 11 10 0 6 -2 10 -4 10 -3 0
-8 -4 -11 -10z"/>
<path d="M6035 3820 c-11 -5 -14 -9 -7 -9 23 -2 12 -21 -13 -21 -16 0 -25 -6
-25 -15 0 -20 12 -19 43 5 14 11 29 20 34 20 5 0 17 6 27 13 16 11 15 13 -11
14 -15 1 -37 -2 -48 -7z"/>
<path d="M6440 3820 c0 -5 5 -10 11 -10 5 0 7 5 4 10 -3 6 -8 10 -11 10 -2 0
-4 -4 -4 -10z"/>
<path d="M5390 3804 c-10 -11 -9 -14 8 -14 25 0 37 16 18 23 -8 3 -20 -1 -26
-9z"/>
<path d="M5940 3808 c0 -9 -6 -21 -12 -25 -17 -11 -41 -54 -34 -60 3 -3 8 2
12 11 4 10 18 16 36 16 24 0 28 3 19 13 -6 8 -8 16 -5 20 3 3 1 14 -5 24 -9
16 -10 16 -11 1z"/>
<path d="M6286 3792 l-20 -27 21 18 c18 16 21 16 26 2 4 -8 16 -15 27 -15 11
0 20 -4 20 -10 0 -5 5 -10 10 -10 19 0 10 19 -12 26 -12 3 -29 15 -37 25 -15
18 -17 17 -35 -9z"/>
<path d="M5285 3790 c-3 -5 1 -10 10 -10 9 0 13 5 10 10 -3 6 -8 10 -10 10 -2
0 -7 -4 -10 -10z"/>
<path d="M6436 3792 c2 -3 -1 -11 -7 -19 -8 -9 -8 -13 -1 -13 16 0 26 20 15
30 -6 4 -8 5 -7 2z"/>
<path d="M5192 3775 c-16 -19 -11 -19 24 0 23 12 25 15 9 15 -11 -1 -26 -7
-33 -15z"/>
<path d="M6140 3772 c0 -5 -10 -14 -22 -20 -18 -8 -19 -11 -6 -11 9 -1 20 4
23 9 4 6 11 8 16 5 5 -4 9 -2 9 4 0 5 -4 13 -10 16 -5 3 -10 2 -10 -3z"/>
<path d="M5284 3755 c-4 -10 -15 -12 -37 -8 -18 3 -29 3 -25 -1 3 -5 22 -9 40
-11 28 -3 34 0 34 16 0 23 -5 24 -12 4z"/>
<path d="M5103 3743 c-14 -5 -18 -23 -5 -23 5 0 17 7 28 15 14 11 15 14 4 14
-8 0 -21 -3 -27 -6z"/>
<path d="M6295 3727 c-4 -10 -14 -16 -21 -13 -8 3 -24 1 -36 -4 -13 -5 -18 -9
-13 -10 6 -1 19 -3 30 -5 25 -5 59 19 52 37 -3 9 -7 8 -12 -5z"/>
<path d="M5128 3703 c7 -3 16 -2 19 1 4 3 -2 6 -13 5 -11 0 -14 -3 -6 -6z"/>
<path d="M6173 3680 c-28 -11 -29 -16 -3 -16 11 0 22 6 24 13 3 7 4 13 3 12
-1 0 -12 -4 -24 -9z"/>
<path d="M6320 3682 c0 -7 -3 -11 -7 -11 -18 3 -33 -2 -33 -9 0 -17 38 -53 45
-42 3 5 -1 13 -9 16 -9 3 -16 13 -16 21 0 8 4 12 9 8 11 -6 26 13 17 22 -3 4
-6 1 -6 -5z"/>
<path d="M5880 3660 c-8 -5 -11 -12 -7 -16 4 -4 13 -2 19 4 15 15 7 24 -12 12z"/>
<path d="M5935 3639 c-3 -4 6 -11 20 -15 34 -9 40 -2 9 13 -13 6 -26 7 -29 2z"/>
<path d="M6036 3631 c-3 -5 1 -11 9 -14 9 -4 12 -1 8 9 -6 16 -10 17 -17 5z"/>
<path d="M6205 3630 c-3 -5 -1 -10 4 -10 6 0 11 5 11 10 0 6 -2 10 -4 10 -3 0
-8 -4 -11 -10z"/>
<path d="M6275 3600 c-3 -5 1 -10 10 -10 9 0 13 5 10 10 -3 6 -8 10 -10 10 -2
0 -7 -4 -10 -10z"/>
<path d="M6380 3601 c0 -6 -9 -11 -19 -11 -19 0 -38 -17 -29 -25 6 -7 68 18
68 27 0 4 -4 10 -10 13 -5 3 -10 1 -10 -4z"/>
<path d="M6096 3569 c-17 -16 -40 -32 -53 -35 -13 -4 -21 -10 -18 -14 6 -10
20 -7 65 12 19 9 50 19 67 23 18 3 36 11 39 17 7 11 1 10 -64 -8 -17 -5 -21
-3 -16 9 3 9 12 13 21 10 11 -4 14 -2 9 5 -11 17 -18 15 -50 -19z"/>
<path d="M6220 3590 c0 -5 6 -10 14 -10 8 0 18 5 21 10 3 6 -3 10 -14 10 -12
0 -21 -4 -21 -10z"/>
<path d="M5976 3559 c3 -5 0 -9 -5 -9 -6 0 -11 -5 -11 -11 0 -6 9 -8 23 -4 35
11 41 22 13 27 -14 3 -23 1 -20 -3z"/>
<path d="M6160 3519 c-24 -11 -52 -18 -62 -16 -11 3 -15 0 -11 -9 3 -8 10 -14
16 -14 8 0 8 -3 0 -11 -9 -9 -16 -8 -28 4 -11 11 -22 14 -38 8 -12 -4 -37 -6
-54 -4 -18 2 -33 0 -33 -5 0 -6 -6 -10 -12 -9 -48 1 -67 -16 -28 -26 11 -3 18
0 17 6 -1 7 21 13 56 15 47 3 57 1 57 -12 0 -21 18 -20 63 2 29 14 35 20 25
30 -9 9 -6 12 18 12 22 0 26 -3 14 -10 -8 -5 -11 -10 -6 -10 8 0 66 59 66 67
0 7 -17 2 -60 -18z"/>
<path d="M7727 3508 c-13 -27 -13 -67 1 -54 2 3 14 0 26 -6 20 -10 20 -10 -1
11 -23 22 -32 48 -13 36 6 -3 10 -3 11 2 0 4 2 16 4 26 5 28 -11 19 -28 -15z"/>
<path d="M5790 3490 c-13 -8 -12 -10 3 -10 10 0 15 -4 12 -10 -9 -15 37 -12
58 4 24 19 21 29 -5 15 -16 -9 -23 -9 -26 0 -4 13 -22 14 -42 1z"/>
<path d="M6160 3453 c-8 -4 -21 -15 -29 -25 -8 -12 -21 -18 -31 -15 -10 2 -24
0 -31 -5 -11 -8 -10 -9 4 -4 9 3 17 1 17 -4 0 -5 9 -8 20 -7 11 1 20 5 20 9 0
5 11 6 24 2 20 -5 25 0 34 25 11 32 6 37 -28 24z m15 -23 c3 -5 -1 -10 -10
-10 -9 0 -13 5 -10 10 3 6 8 10 10 10 2 0 7 -4 10 -10z"/>
<path d="M5840 3430 c-15 -10 -15 -10 25 -10 3 0 5 3 6 7 1 12 -15 13 -31 3z"/>
<path d="M5949 3438 c-6 -21 -5 -38 2 -38 5 0 9 9 9 20 0 16 -7 28 -11 18z"/>
<path d="M5970 3435 c0 -6 4 -16 8 -23 9 -14 42 -6 42 10 0 6 -6 8 -14 5 -7
-3 -19 0 -25 6 -6 6 -11 7 -11 2z"/>
<path d="M6166 3359 c-23 -27 -20 -30 12 -17 40 17 46 25 24 30 -12 3 -26 -2
-36 -13z"/>
<path d="M6044 3335 c-17 -13 -17 -14 -1 -15 9 0 17 5 17 11 0 6 9 8 20 4 11
-4 20 -2 20 4 0 16 -33 13 -56 -4z"/>
<path d="M5799 3293 c-9 -16 -21 -19 -59 -17 -47 3 -132 -28 -111 -40 14 -9
63 12 56 24 -3 5 -1 10 4 10 6 0 11 -8 12 -17 0 -11 3 -13 6 -5 3 7 23 12 48
12 35 0 47 5 55 21 15 27 5 37 -11 12z"/>
<path d="M5986 3279 c-17 -17 -44 -25 -70 -20 -5 1 -26 -1 -46 -4 -31 -5 -37
-10 -37 -31 l0 -24 23 25 c25 27 35 32 32 14 -2 -6 3 -14 10 -16 6 -3 12 0 12
6 0 6 6 8 13 5 8 -3 27 1 43 7 16 7 32 12 35 11 4 -1 7 10 7 23 0 14 -1 25 -2
24 0 0 -10 -9 -20 -20z"/>
<path d="M7850 3289 c0 -5 5 -7 10 -4 6 3 10 8 10 11 0 2 -4 4 -10 4 -5 0 -10
-5 -10 -11z"/>
<path d="M5575 3230 c-4 -6 -11 -8 -16 -5 -5 4 -9 2 -9 -3 0 -16 24 -19 48 -7
20 11 21 13 7 19 -22 8 -23 8 -30 -4z"/>
<path d="M7630 3180 c0 -5 5 -10 11 -10 5 0 7 5 4 10 -3 6 -8 10 -11 10 -2 0
-4 -4 -4 -10z"/>
<path d="M7919 3013 c-13 -16 -12 -17 4 -4 9 7 17 15 17 17 0 8 -8 3 -21 -13z"/>
<path d="M7946 2975 c4 -8 7 -15 9 -15 2 0 5 7 9 15 3 9 0 15 -9 15 -9 0 -12
-6 -9 -15z"/>
<path d="M8006 2963 c-6 -14 -5 -15 5 -6 7 7 10 15 7 18 -3 3 -9 -2 -12 -12z"/>
<path d="M8061 2817 c-8 -10 -7 -14 2 -14 8 0 14 6 14 14 0 7 -1 13 -2 13 -2
0 -8 -6 -14 -13z"/>
<path d="M8140 2620 c0 -5 -9 -19 -21 -31 -16 -16 -18 -23 -8 -35 10 -12 9
-13 -4 -9 -24 10 -26 -8 -4 -30 16 -16 19 -17 14 -3 -5 15 17 34 36 29 4 0 1
9 -8 22 -14 22 -14 26 0 37 17 14 20 30 5 30 -5 0 -10 -4 -10 -10z"/>
<path d="M8076 2593 c-6 -14 -5 -15 5 -6 7 7 10 15 7 18 -3 3 -9 -2 -12 -12z"/>
<path d="M8130 2524 c0 -7 27 -34 33 -34 3 0 7 7 10 14 4 10 1 13 -9 9 -7 -3
-14 0 -14 6 0 6 -4 11 -10 11 -5 0 -10 -3 -10 -6z"/>
<path d="M9120 4799 c0 -5 5 -7 10 -4 6 3 10 8 10 11 0 2 -4 4 -10 4 -5 0 -10
-5 -10 -11z"/>
<path d="M9120 4575 c0 -8 4 -15 10 -15 5 0 7 7 4 15 -4 8 -8 15 -10 15 -2 0
-4 -7 -4 -15z"/>
<path d="M9115 4540 c-3 -5 -1 -10 4 -10 6 0 11 5 11 10 0 6 -2 10 -4 10 -3 0
-8 -4 -11 -10z"/>
<path d="M9400 4490 c-12 -8 -12 -10 3 -16 10 -3 21 -4 24 0 4 3 0 6 -8 6 -11
0 -11 2 1 10 8 5 11 10 5 10 -5 0 -17 -4 -25 -10z"/>
<path d="M8745 4460 c3 -5 11 -10 16 -10 6 0 7 5 4 10 -3 6 -11 10 -16 10 -6
0 -7 -4 -4 -10z"/>
<path d="M9026 4485 c4 -8 8 -15 10 -15 2 0 4 7 4 15 0 8 -4 15 -10 15 -5 0
-7 -7 -4 -15z"/>
<path d="M7172 3720 c0 -14 2 -19 5 -12 2 6 2 18 0 25 -3 6 -5 1 -5 -13z"/>
<path d="M7225 3620 c-3 -5 -2 -10 4 -10 5 0 13 5 16 10 3 6 2 10 -4 10 -5 0
-13 -4 -16 -10z"/>
<path d="M7238 3523 c7 -3 16 -2 19 1 4 3 -2 6 -13 5 -11 0 -14 -3 -6 -6z"/>
<path d="M7246 3486 c7 -19 38 -22 32 -3 -3 6 -12 13 -21 15 -12 2 -15 -1 -11
-12z"/>
<path d="M7215 3420 c3 -5 10 -10 16 -10 5 0 9 5 9 10 0 6 -7 10 -16 10 -8 0
-12 -4 -9 -10z"/>
<path d="M7246 3404 c-4 -10 -1 -14 6 -12 15 5 23 28 10 28 -5 0 -13 -7 -16
-16z"/>
<path d="M6976 3321 c-3 -5 1 -11 9 -14 9 -4 12 -1 8 9 -6 16 -10 17 -17 5z"/>
<path d="M7010 3290 c0 -5 5 -10 10 -10 6 0 10 5 10 10 0 6 -4 10 -10 10 -5 0
-10 -4 -10 -10z"/>
<path d="M6940 3280 c0 -5 5 -10 11 -10 5 0 7 5 4 10 -3 6 -8 10 -11 10 -2 0
-4 -4 -4 -10z"/>
<path d="M7060 3250 c-9 -6 -10 -10 -3 -10 6 0 15 5 18 10 8 12 4 12 -15 0z"/>
<path d="M6895 3190 c3 -5 8 -10 11 -10 2 0 4 5 4 10 0 6 -5 10 -11 10 -5 0
-7 -4 -4 -10z"/>
<path d="M6825 3151 c-40 -15 -55 -27 -55 -46 1 -5 5 -2 11 8 10 17 12 17 36
2 13 -9 27 -14 31 -11 3 3 0 6 -7 6 -7 0 -10 4 -6 9 6 10 45 11 45 1 0 -3 -5
-11 -12 -18 -6 -6 -9 -14 -6 -17 9 -10 38 25 38 45 0 30 -30 39 -75 21z"/>
<path d="M6730 3116 c0 -2 7 -9 15 -16 12 -10 15 -10 15 4 0 9 -7 16 -15 16
-8 0 -15 -2 -15 -4z"/>
<path d="M6795 3090 c-3 -5 1 -10 9 -10 9 0 16 5 16 10 0 6 -4 10 -9 10 -6 0
-13 -4 -16 -10z"/>
<path d="M6731 3066 c-9 -10 -8 -15 2 -19 8 -3 13 3 14 14 2 23 -1 24 -16 5z"/>
<path d="M6695 3890 c-3 -6 1 -7 9 -4 18 7 21 14 7 14 -6 0 -13 -4 -16 -10z"/>
<path d="M5415 3100 c-13 -5 -14 -9 -5 -9 8 0 24 4 35 9 13 5 14 9 5 9 -8 0
-24 -4 -35 -9z"/>
<path d="M6579 2899 c-13 -10 -39 -19 -56 -19 -22 0 -33 -5 -33 -15 0 -11 8
-13 33 -8 17 3 33 10 35 14 2 4 10 5 18 2 8 -3 14 0 14 6 0 6 5 11 11 11 5 0
7 -4 4 -10 -3 -5 -2 -10 3 -10 16 0 20 24 7 36 -9 9 -18 7 -36 -7z"/>
<path d="M6660 2900 c0 -5 5 -10 10 -10 6 0 10 5 10 10 0 6 -4 10 -10 10 -5 0
-10 -4 -10 -10z"/>
<path d="M6414 2838 c-4 -5 -16 -8 -28 -6 -12 3 -27 -1 -34 -8 -16 -18 -15
-22 6 -20 34 4 104 27 98 34 -11 10 -36 11 -42 0z"/>
<path d="M6652 2792 c-13 -2 -32 -12 -43 -23 -23 -23 -17 -25 14 -4 13 8 40
14 60 13 20 -1 40 1 43 4 7 7 -45 14 -74 10z"/>
<path d="M6758 2783 c7 -3 16 -2 19 1 4 3 -2 6 -13 5 -11 0 -14 -3 -6 -6z"/>
<path d="M6735 2740 c-3 -5 -1 -10 4 -10 6 0 11 5 11 10 0 6 -2 10 -4 10 -3 0
-8 -4 -11 -10z"/>
<path d="M6540 2730 c0 -5 10 -10 23 -10 18 0 19 2 7 10 -19 13 -30 13 -30 0z"/>
<path d="M6660 2701 c0 -10 -9 -12 -35 -8 -26 4 -35 2 -35 -9 0 -15 41 -18 72
-6 13 5 15 11 8 22 -8 12 -10 12 -10 1z"/>
<path d="M6255 2669 c-11 -16 -1 -19 13 -3 7 8 8 14 3 14 -5 0 -13 -5 -16 -11z"/>
<path d="M6740 2670 c0 -5 4 -10 9 -10 6 0 13 5 16 10 3 6 -1 10 -9 10 -9 0
-16 -4 -16 -10z"/>
<path d="M6200 2655 c-14 -8 -20 -14 -14 -15 5 0 19 7 30 15 24 18 16 19 -16
0z"/>
<path d="M6371 2656 c-10 -12 -8 -13 8 -9 12 3 18 9 15 14 -7 12 -10 11 -23
-5z"/>
<path d="M6295 2630 l-30 -20 35 6 c42 8 47 11 34 24 -6 6 -20 2 -39 -10z"/>
<path d="M6170 2175 c0 -8 5 -15 10 -15 6 0 10 7 10 15 0 8 -4 15 -10 15 -5 0
-10 -7 -10 -15z"/>
<path d="M9015 1570 c-3 -5 -2 -10 4 -10 5 0 13 5 16 10 3 6 2 10 -4 10 -5 0
-13 -4 -16 -10z"/>
<path d="M10786 1183 c-6 -14 -5 -15 5 -6 7 7 10 15 7 18 -3 3 -9 -2 -12 -12z"/>
<path d="M10776 1144 c-3 -9 -3 -21 1 -26 3 -7 1 -8 -5 -4 -7 4 -12 2 -12 -4
0 -6 -10 -32 -21 -58 -12 -26 -22 -63 -23 -82 -1 -19 -4 -37 -7 -40 -3 -3 -16
-27 -29 -55 -13 -27 -31 -59 -42 -71 -10 -12 -17 -31 -15 -45 2 -14 -3 -30
-12 -37 -9 -8 -10 -11 -3 -7 6 3 12 2 12 -4 0 -5 -4 -11 -9 -13 -5 -1 -11 -12
-13 -23 -1 -11 -9 -26 -16 -34 -7 -7 -11 -20 -8 -27 3 -8 0 -14 -7 -14 -8 0
-6 -4 3 -10 13 -8 8 -14 -10 -12 -3 0 -6 -7 -7 -16 -2 -36 -13 -109 -22 -144
-5 -20 -6 -40 -3 -43 4 -3 -1 -3 -11 1 -10 3 -17 1 -17 -5 0 -6 4 -11 10 -11
5 0 9 -11 8 -25 -1 -14 -6 -25 -10 -25 -5 0 -6 -11 -2 -24 3 -13 1 -27 -5 -30
-6 -4 -11 -14 -11 -22 0 -8 5 -12 10 -9 11 7 9 -23 -3 -42 -4 -7 -7 -28 -5
-47 1 -19 -3 -40 -10 -48 -6 -8 -9 -24 -5 -36 3 -12 0 -29 -7 -37 -11 -13 8
-15 159 -15 l171 0 0 580 c0 334 -4 580 -9 580 -5 0 -12 -7 -15 -16z m-126
-364 c0 -5 -5 -10 -11 -10 -5 0 -7 5 -4 10 3 6 8 10 11 10 2 0 4 -4 4 -10z"/>
<path d="M5264 895 c8 -8 18 -15 22 -15 3 0 1 7 -6 15 -7 8 -17 15 -22 15 -5
0 -3 -7 6 -15z"/>
<path d="M5013 873 c-15 -5 -17 -23 -4 -23 5 0 11 7 15 15 3 8 4 15 3 14 -1 0
-8 -3 -14 -6z"/>
<path d="M5355 830 c3 -5 8 -10 11 -10 2 0 4 5 4 10 0 6 -5 10 -11 10 -5 0 -7
-4 -4 -10z"/>
<path d="M4855 740 c-3 -5 -1 -10 4 -10 6 0 11 5 11 10 0 6 -2 10 -4 10 -3 0
-8 -4 -11 -10z"/>
<path d="M4785 680 c-3 -5 -2 -10 4 -10 5 0 13 5 16 10 3 6 2 10 -4 10 -5 0
-13 -4 -16 -10z"/>
<path d="M4825 680 c-3 -5 -1 -10 4 -10 6 0 11 5 11 10 0 6 -2 10 -4 10 -3 0
-8 -4 -11 -10z"/>
<path d="M5326 593 c-6 -14 -5 -15 5 -6 7 7 10 15 7 18 -3 3 -9 -2 -12 -12z"/>
<path d="M4440 455 c0 -8 5 -15 10 -15 6 0 10 7 10 15 0 8 -4 15 -10 15 -5 0
-10 -7 -10 -15z"/>
<path d="M4252 365 c6 -13 16 -21 21 -18 8 5 7 8 -1 11 -7 2 -10 7 -7 12 3 4
-2 10 -10 13 -12 5 -12 2 -3 -18z"/>
<path d="M4310 373 c0 -17 -36 -53 -52 -53 -8 0 -9 -3 -2 -10 16 -16 75 42 63
61 -6 10 -9 10 -9 2z"/>
<path d="M4500 70 c0 -5 5 -10 11 -10 5 0 7 5 4 10 -3 6 -8 10 -11 10 -2 0 -4
-4 -4 -10z"/>
<path d="M4100 60 c0 -5 5 -10 10 -10 6 0 10 5 10 10 0 6 -4 10 -10 10 -5 0
-10 -4 -10 -10z"/>
</g>
</svg>
